<?xml version="1.0" standalone="no"?>
<!DOCTYPE svg PUBLIC "-//W3C//DTD SVG 1.1//EN" "http://www.w3.org/Graphics/SVG/1.1/DTD/svg11.dtd" >
<svg xmlns="http://www.w3.org/2000/svg" xmlns:xlink="http://www.w3.org/1999/xlink" version="1.1">
<metadata></metadata>
<defs>
<font id="officinasansblackcregular" horiz-adv-x="1105" >
<font-face units-per-em="2048" ascent="1479" descent="-569" />
<missing-glyph horiz-adv-x="477" />
<glyph horiz-adv-x="0" />
<glyph horiz-adv-x="682" />
<glyph unicode=" "  horiz-adv-x="477" />
<glyph unicode="&#x09;" horiz-adv-x="477" />
<glyph unicode="&#xa0;" horiz-adv-x="477" />
<glyph unicode="!" horiz-adv-x="774" d="M152 166q0 97 69 166t166 69t166.5 -69t69.5 -166t-69.5 -166.5t-166.5 -69.5t-166 69.5t-69 166.5zM166 1399q0 19 7 23.5t34 4.5h352q26 0 34.5 -5.5t8.5 -24.5v-13l-51 -804q-2 -27 -8.5 -34t-32.5 -7h-252q-26 0 -32.5 7t-8.5 34z" />
<glyph unicode="&#x22;" horiz-adv-x="919" d="M57 1378q0 17 8.5 22t34.5 5h283q25 0 34 -6t9 -21q0 -2 -1 -6.5t-1 -7.5l-49 -481q-3 -28 -10 -35.5t-33 -7.5h-182q-27 0 -34 7t-10 36zM500 1378q0 17 8.5 22t34.5 5h282q25 0 34 -6t9 -21q0 -2 -1 -6.5t-1 -7.5l-49 -481q-3 -28 -10 -35.5t-33 -7.5h-182 q-27 0 -33.5 7t-9.5 36z" />
<glyph unicode="#" horiz-adv-x="1568" d="M70 219q0 3 1 10t1 11l28 233q3 27 10 34t35 7h158l27 240h-152q-23 0 -30 3.5t-7 16.5q0 2 1 10t1 13l23 233q3 28 11 34.5t38 6.5h152l34 293q3 28 10.5 34.5t34.5 6.5h302q24 0 31 -4t7 -17q0 -3 -1 -9.5t-1 -10.5l-32 -293h174l32 289q3 29 12 37t36 8h303 q24 0 31.5 -4t7.5 -17q0 -3 -1 -9.5t-1 -10.5l-33 -293h153q22 0 29.5 -4t7.5 -16q0 -3 -1 -10t-1 -11l-28 -233q-3 -29 -11 -36t-37 -7h-149l-27 -240h152q24 0 32.5 -5t8.5 -20q0 -2 -1 -7.5t-1 -8.5l-29 -233q-3 -29 -10.5 -36t-36.5 -7h-156l-39 -326q-3 -29 -10.5 -36 t-36.5 -7h-303q-23 0 -31 5t-8 22q0 2 1 7.5t1 8.5l39 326h-174l-39 -326q-3 -29 -10.5 -36t-36.5 -7h-301q-23 0 -31 5.5t-8 23.5l41 340h-153q-24 0 -31.5 4t-7.5 18zM686 514h174l29 240h-172z" />
<glyph unicode="$" horiz-adv-x="1150" d="M84 109q0 4 4 16l84 266q6 15 18 15q4 0 19 -5q260 -108 358 -108q63 0 95 26.5t32 73.5q0 15 -3.5 27.5t-7.5 22t-14.5 19t-16 15t-21.5 14t-22.5 11t-26 11.5t-25.5 11q-178 81 -211 99q-26 13 -40 20.5t-44.5 27.5t-48.5 38t-42.5 50t-38.5 66t-24 83t-10 104 q0 139 98 243t261 136v98q0 27 7.5 35t33.5 8h170q28 0 34.5 -7.5t6.5 -35.5v-90q130 -10 234 -55t104 -87q0 -5 -3 -8l-100 -243q-7 -17 -16 -17q-8 0 -17 6q-205 105 -317 105q-65 0 -97 -21t-32 -69q0 -47 30 -74t107 -62q54 -24 83 -37t77 -36.5t74.5 -40t64.5 -42.5 t59 -48t46 -53t37.5 -62.5t21 -71t8.5 -82.5q0 -158 -98 -271t-266 -148v-97q0 -29 -6 -35t-35 -6h-170q-27 0 -34 6.5t-7 34.5v86q-132 15 -252.5 58.5t-120.5 79.5z" />
<glyph unicode="%" horiz-adv-x="1925" d="M70 965q0 170 98 280.5t268 110.5q172 0 270.5 -107t98.5 -282q0 -76 -23 -145t-67 -125.5t-116.5 -90t-162.5 -33.5q-174 0 -270 111t-96 281zM350 965q0 -162 86 -162t86 164q0 52 -7 86.5t-20 51t-27 22.5t-32 6q-86 0 -86 -168zM532 -57q0 9 7 26l577 1387 q13 30 47 30h189q41 0 41 -22q0 -2 -9 -29l-573 -1382q-14 -35 -49 -35h-191q-39 0 -39 25zM1122 354q0 170 98.5 280.5t268.5 110.5q172 0 270.5 -107t98.5 -282q0 -60 -14 -116.5t-44 -107.5t-73 -89t-104 -60t-134 -22q-174 0 -270.5 111.5t-96.5 281.5zM1405 354 q0 -161 84 -161q86 0 86 163q0 52 -7 86.5t-20 51t-27 22.5t-32 6q-84 0 -84 -168z" />
<glyph unicode="&#x26;" horiz-adv-x="1404" d="M84 365q0 71 22 131.5t63 108t83 81.5t98 68q-85 96 -121 167.5t-36 147.5q0 163 130.5 271t319.5 108q185 0 302.5 -100t117.5 -261q0 -47 -15 -92t-36 -79t-56 -71.5t-61.5 -61t-67.5 -56.5l150 -156q10 26 17 79.5t15.5 86.5t26.5 33q2 0 8 -1t9 -1l237 -33 q27 -3 27 -33q0 -68 -30 -177t-73 -183l132 -131q18 -18 18 -29t-21 -32l-178 -183q-12 -12 -22 -12q-14 0 -35 18l-109 99q-42 -30 -73 -48t-79.5 -38t-109.5 -29.5t-137 -9.5q-238 0 -377 109t-139 309zM455 385q0 -62 44.5 -103.5t114.5 -41.5q53 0 89.5 16t80.5 49 l-225 242q-104 -76 -104 -162zM532 1081q0 -19 5 -36t18.5 -36.5t20.5 -28.5t28.5 -32t24.5 -26q53 49 73.5 84t20.5 75q0 45 -25 67.5t-67 22.5q-44 0 -71.5 -25t-27.5 -65z" />
<glyph unicode="'" horiz-adv-x="477" d="M57 1378q0 17 8.5 22t34.5 5h283q25 0 34 -6t9 -21q0 -2 -1 -6.5t-1 -7.5l-49 -481q-3 -28 -10 -35.5t-33 -7.5h-182q-27 0 -34 7t-10 36z" />
<glyph unicode="(" horiz-adv-x="964" d="M160 500q0 154 36.5 302.5t103.5 278.5t148 241t181 214q2 2 6 6.5t6 6t5.5 5t5 4.5t4.5 3.5t5 3.5t4.5 2t5 1.5t5.5 0.5q12 0 29 -10l190 -119q16 -11 16 -25q0 -17 -16 -39q-144 -209 -191 -291q-114 -201 -140 -416q-9 -80 -9 -169q0 -116 19.5 -224.5t47 -186.5 t74.5 -164t82 -137.5t90 -125.5q6 -8 15.5 -19.5t14.5 -17.5t10 -14t7.5 -14t2.5 -11q0 -14 -21 -26l-197 -123q-12 -6 -20 -6q-6 0 -12.5 2.5t-11 5t-12 8.5t-10.5 8.5t-11 11t-9 9.5q-102 110 -180 219.5t-142 237t-98 271t-34 296.5z" />
<glyph unicode=")" horiz-adv-x="985" d="M70 -412q0 3 0.5 6t2 6.5t3 6.5t4.5 8t5 7.5t6.5 8.5t7 9.5t8 10.5t8.5 11q55 74 90 125.5t82 137.5t74.5 164t47 186.5t19.5 224.5q0 114 -16.5 214t-39.5 173t-71 162t-85.5 146t-109.5 161q-9 13 -14 20q-16 22 -16 39q0 14 16 25l187 119q17 10 28 10q3 0 5.5 -0.5 t5 -1.5t4.5 -2t5 -3.5t4.5 -3.5t5 -4.5t5.5 -5t6 -6t6 -6.5q100 -102 181.5 -213t148.5 -241t104 -279t37 -303q0 -153 -34 -296.5t-99 -271t-143 -237t-180 -219.5q-2 -2 -10.5 -11t-13 -13t-12 -10t-14.5 -8.5t-14 -2.5q-8 0 -20 6l-195 123q-20 14 -20 28z" />
<glyph unicode="*" horiz-adv-x="1161" d="M119 956q0 10 6 25l80 231q11 33 26 33q9 0 29 -10l201 -109l-33 232q0 3 -1 9.5t-1 8.5q0 17 8.5 23t32.5 6h244q41 0 41 -27q0 -12 -2 -20l-45 -238l200 113q20 10 29 10q18 0 29 -33l79 -231q7 -18 7 -25q0 -18 -39 -24l-222 -41l150 -156q18 -18 18 -31 q0 -14 -22 -28l-199 -142q-18 -12 -28 -12q-15 0 -29 29l-96 211l-103 -213q-15 -29 -28 -29q-11 0 -29 12l-199 142q-24 15 -24 28q0 11 20 31l162 168l-223 33q-39 6 -39 24z" />
<glyph unicode="+" d="M76 590v252q0 27 7 34t36 7h246v247q0 29 7 36.5t34 7.5h294q29 0 36 -8t7 -38v-245h246q29 0 36 -7t7 -34v-252q0 -29 -7 -36t-36 -7h-246v-250q0 -29 -7 -36t-36 -7h-294q-27 0 -34 7t-7 36v250h-248q-29 0 -35 6.5t-6 36.5z" />
<glyph unicode="," horiz-adv-x="653" d="M39 -283q0 3 4 23l156 524q6 20 16 26.5t31 6.5h332q40 0 40 -21q0 -10 -10 -30l-313 -594q-16 -27 -29 -27q-11 0 -26 6l-168 58q-33 11 -33 28z" />
<glyph unicode="-" horiz-adv-x="894" d="M80 401v246q0 27 6.5 34t34.5 7h651q29 0 36 -7t7 -34v-246q0 -29 -6.5 -35t-36.5 -6h-651q-29 0 -35 6t-6 35z" />
<glyph unicode="." horiz-adv-x="665" d="M74 205q0 107 74.5 181.5t181.5 74.5t182.5 -74.5t75.5 -181.5t-75.5 -182.5t-182.5 -75.5t-181.5 75.5t-74.5 182.5z" />
<glyph unicode="/" horiz-adv-x="1118" d="M78 -156q0 3 8 31l625 1669q14 35 53 35h248q37 0 37 -23q0 -8 -7 -26l-620 -1669q-12 -35 -55 -35h-252q-37 0 -37 18z" />
<glyph unicode="0" horiz-adv-x="1153" d="M27 672q0 118 17 221t58.5 198.5t105 164t162 109t224.5 40.5q118 0 211 -39t152 -104t98 -156t55 -188t16 -207q0 -126 -13.5 -228t-50.5 -201.5t-97.5 -167t-161 -108.5t-234.5 -41q-267 0 -404.5 188.5t-137.5 518.5zM397 676q0 -121 13.5 -205t39.5 -129t57 -64.5 t73 -19.5q61 0 98.5 32t59.5 120t22 241q0 185 -20 286.5t-56 137t-98 35.5q-43 0 -76 -20.5t-59 -68t-40 -134t-14 -211.5z" />
<glyph unicode="1" horiz-adv-x="1161" d="M82 1051q0 10 27 28l436 291h221q27 0 35 -8t8 -35v-1040h131q28 0 35.5 -7t7.5 -36v-201q0 -29 -7.5 -36t-35.5 -7h-686q-29 0 -35 6.5t-6 36.5v201q0 30 6 36.5t35 6.5h174v653l-176 -100q-22 -11 -29 -11q-4 0 -6.5 1t-5.5 4t-4.5 5.5t-5.5 8.5t-6 10l-99 164 q-14 20 -14 29z" />
<glyph unicode="2" horiz-adv-x="1153" d="M96 1012q0 28 12 61.5t56 110.5q61 107 174.5 164t263.5 57q200 0 325.5 -105t125.5 -276q0 -76 -14 -137.5t-35.5 -106.5t-64 -91.5t-82 -79t-107.5 -83.5q-2 -1 -71.5 -49.5t-108.5 -84.5t-54 -68h485q27 0 35 -7.5t8 -33.5v-240q0 -30 -5 -36.5t-31 -6.5h-871 q-17 0 -22.5 6.5t-5.5 28.5q0 69 1 82.5t1 25.5q0 103 32 191t83.5 150t113 115.5t123.5 98.5t113.5 88t83.5 94.5t32 108.5q0 117 -119 117q-44 0 -77.5 -21.5t-52 -52t-32.5 -61.5t-29.5 -52.5t-33.5 -21.5q-6 0 -10 2l-219 82q-23 9 -23 31z" />
<glyph unicode="3" horiz-adv-x="1159" d="M74 111q0 8 2 12l65 225q6 14 17 14q4 0 9 -2t11.5 -5.5t9.5 -4.5q86 -40 173.5 -65t138.5 -25q184 0 184 160q0 79 -44.5 115t-164.5 36h-67q-28 0 -35.5 6.5t-7.5 34.5v205q0 27 7.5 35t33.5 8h71q87 0 131.5 30.5t44.5 110.5q0 53 -33 82t-88 29q-53 0 -94.5 -23 t-61 -50.5t-37.5 -50.5t-30 -23q-6 0 -12 6l-180 157q-8 8 -8 19q0 13 12 33q62 108 175 166.5t249 58.5q204 0 333.5 -107.5t129.5 -285.5q0 -157 -148 -273q91 -55 144 -139t53 -188q0 -131 -69.5 -233t-190.5 -157t-273 -55q-31 0 -79 5t-114.5 17t-132.5 37.5t-108 61.5 q-16 13 -16 23z" />
<glyph unicode="4" horiz-adv-x="1153" d="M31 287v268l538 838q17 26 27 26t29 -8l260 -102q35 -12 35 -29q0 -6 -15 -29l-514 -702h236l45 258q5 27 11.5 34t31.5 7h215q26 0 34.5 -8.5t8.5 -34.5v-258h100q29 0 36 -8t7 -43v-209q0 -27 -7.5 -35t-35.5 -8h-100v-238q0 -28 -7.5 -34.5t-35.5 -6.5h-271 q-29 0 -36 7t-7 34v238h-542q-26 0 -34.5 8.5t-8.5 34.5z" />
<glyph unicode="5" horiz-adv-x="1157" d="M86 76q0 2 1 6t1 6l43 231q3 19 19 19q10 0 30 -8q10 -3 39.5 -12t40 -12t36 -10t38.5 -9.5t36 -7t40 -6.5t39.5 -3.5t44.5 -1.5q117 0 181 57.5t64 163.5q0 166 -155 166q-64 0 -104 -21.5t-87 -70.5q-16 -16 -31 -16q-8 0 -14 2l-203 65q-20 6 -26 13.5t-6 23.5l65 678 q3 27 10 34t35 7h713q21 0 28.5 -1.5t12 -10t4.5 -27.5v-244q0 -28 -7 -34t-36 -6h-442l-21 -152q58 41 156 41q203 0 326.5 -121.5t123.5 -322.5q0 -242 -162 -386.5t-427 -144.5q-37 0 -127 11.5t-184.5 40t-94.5 63.5z" />
<glyph unicode="6" horiz-adv-x="1153" d="M84 580q0 242 79 428.5t229 291.5t351 105q111 0 192 -35.5t81 -71.5q0 -10 -2 -14l-62 -205q-6 -18 -24 -18q-5 0 -17 4q-88 45 -168 45q-191 0 -305 -227q109 80 203 80q200 0 316 -130t116 -354q0 -228 -137.5 -371t-360.5 -143q-240 0 -365.5 161.5t-125.5 453.5z M440 483q0 -227 146 -227q76 0 112.5 55.5t36.5 175.5q0 112 -34.5 162.5t-106.5 50.5q-71 0 -112.5 -53.5t-41.5 -163.5z" />
<glyph unicode="7" horiz-adv-x="1153" d="M80 1075v252q0 29 7 36t34 7h868q26 0 34.5 -8.5t8.5 -34.5v-137l-485 -1198q-8 -20 -14 -26.5t-19 -6.5q-10 0 -18 2l-297 59q-37 8 -37 25q0 13 8 29l422 960h-471q-27 0 -34 6.5t-7 34.5z" />
<glyph unicode="8" horiz-adv-x="1153" d="M41 385q0 105 62.5 192t170.5 148q-180 119 -180 299q0 172 139 280.5t345 108.5q137 0 247.5 -47t175 -136t64.5 -204q0 -171 -184 -297q231 -137 231 -338q0 -106 -46.5 -190t-124 -134t-171 -76t-195.5 -26q-242 0 -388 111.5t-146 308.5zM403 393q0 -63 46 -101 t129 -38q75 0 118 38t43 101q0 74 -45 115.5t-127 73.5q-74 -36 -119 -80t-45 -109zM453 1010q0 -56 35.5 -89t99.5 -59q112 44 112 144q0 55 -31.5 84.5t-90.5 29.5q-57 0 -91 -29.5t-34 -80.5z" />
<glyph unicode="9" horiz-adv-x="1153" d="M80 887q0 228 138.5 373t361.5 145q239 0 364 -164t125 -457q0 -243 -76.5 -428t-227 -290t-355.5 -105q-113 0 -184.5 24t-71.5 54q0 2 1 6.5t1 7.5l43 228q3 16 18 16q3 0 78 -17.5t115 -17.5q96 0 169.5 48.5t135.5 172.5q-48 -39 -105 -60.5t-98 -21.5 q-196 0 -314 131.5t-118 354.5zM420 879q0 -112 33.5 -162.5t105.5 -50.5q70 0 110 53.5t40 163.5q0 227 -142 227q-76 0 -111.5 -55t-35.5 -176z" />
<glyph unicode=":" horiz-adv-x="692" d="M106 205q0 107 74.5 181.5t181.5 74.5q108 0 183.5 -74.5t75.5 -181.5t-76 -182.5t-183 -75.5t-181.5 75.5t-74.5 182.5zM106 831q0 108 74.5 183.5t181.5 75.5t183 -76t76 -183t-75.5 -181.5t-183.5 -74.5q-107 0 -181.5 74.5t-74.5 181.5z" />
<glyph unicode=";" horiz-adv-x="696" d="M55 -283q0 3 4 23l156 524q6 20 16 26.5t31 6.5h332q41 0 41 -21q0 -10 -10 -30l-314 -594q-16 -27 -28 -27t-27 6l-168 58q-33 11 -33 28zM145 831q0 107 75.5 183t182.5 76t181.5 -75.5t74.5 -183.5q0 -107 -74.5 -181.5t-181.5 -74.5t-182.5 74.5t-75.5 181.5z" />
<glyph unicode="&#x3c;" d="M33 586v233q0 15 6.5 22.5t26.5 16.5l966 492q20 8 25 8q16 0 16 -37v-313q0 -18 -5 -26t-26 -17l-561 -258l561 -265q21 -10 27 -18.5t6 -26.5v-313q0 -37 -16 -37q-5 0 -25 8l-964 490q-24 11 -30.5 18t-6.5 23z" />
<glyph unicode="=" d="M53 322v245q0 27 7 34t36 7h914q29 0 36 -7t7 -34v-245q0 -29 -6.5 -35t-36.5 -6h-914q-30 0 -36.5 6t-6.5 35zM53 799v243q0 27 7.5 35t35.5 8h914q28 0 35.5 -8t7.5 -35v-243q0 -29 -7 -36t-36 -7h-914q-29 0 -36 7t-7 36z" />
<glyph unicode="&#x3e;" d="M33 84v313q0 17 6.5 26t28.5 19l557 265l-557 258q-21 9 -27 17t-6 26v313q0 37 18 37q5 0 25 -8l966 -492q19 -9 25 -16.5t6 -22.5v-233q0 -17 -6 -23.5t-29 -17.5l-964 -490q-20 -8 -25 -8q-18 0 -18 37z" />
<glyph unicode="?" horiz-adv-x="1122" d="M117 1307q0 8 5.5 15t11 11t20.5 15q68 48 203.5 75t205.5 27q209 0 340 -114t131 -300q0 -268 -338 -383l-2 -69q-2 -28 -9.5 -36.5t-33.5 -8.5h-270q-29 0 -36 7.5t-7 37.5v235q0 22 8 30t39 17q24 7 64.5 18.5t57.5 16.5t45 14.5t39.5 16.5t28 18.5t22 23.5t10.5 28.5 t5 37.5q0 86 -135 86q-54 0 -116.5 -22t-111 -44t-69.5 -22q-13 0 -22 21l-82 227q-4 16 -4 21zM287 168q0 97 70 166t167 69t166.5 -69t69.5 -166t-69.5 -166.5t-166.5 -69.5t-167 69.5t-70 166.5z" />
<glyph unicode="@" horiz-adv-x="2138" d="M197 387q0 212 79 397t214 314t319.5 202.5t390.5 73.5q221 0 388 -76t260.5 -222.5t93.5 -344.5q0 -146 -47 -269.5t-127 -206.5t-186 -129t-224 -46q-168 0 -199 117q-62 -61 -114.5 -89t-124.5 -28q-111 0 -167.5 73t-56.5 197q0 142 49.5 269t135 204.5t182.5 77.5 q143 0 207 -67q1 3 5.5 12.5t7.5 14.5t8 11.5t11.5 9.5t14.5 3h162q22 0 22 -21q0 -12 -2 -20l-96 -465q-6 -24 -6 -43q0 -27 14 -39t47 -12q58 0 113.5 64.5t90 165t34.5 202.5q0 92 -32.5 171t-94.5 138.5t-159.5 93t-219.5 33.5q-161 0 -299 -60.5t-232.5 -164.5 t-148 -246t-53.5 -301q0 -115 31.5 -205t85 -148t129.5 -96t158 -53.5t177 -15.5q316 0 570 117q30 12 37 12q14 0 20 -15l53 -149q6 -15 6 -25q0 -9 -5.5 -15t-22.5 -17q-98 -63 -284 -104.5t-368 -41.5q-147 0 -274.5 29t-233 89.5t-181 149.5t-117 214.5t-41.5 279.5z M971 369q0 -44 10.5 -62t46.5 -18q44 0 91 53.5t63 138.5l30 160q-51 51 -102 51q-33 0 -61 -38.5t-44 -93.5t-25 -106.5t-9 -84.5z" />
<glyph unicode="A" horiz-adv-x="1323" d="M35 20q0 9 8 29l428 1321q6 24 12.5 29.5t32.5 5.5h305q25 0 31.5 -5t15.5 -30l430 -1321q1 -4 2 -9t2 -8.5t1 -6.5q0 -14 -9 -19.5t-32 -5.5h-347q-26 0 -32.5 5t-12.5 30l-77 293h-269l-84 -293q-8 -25 -13.5 -30t-29.5 -5h-319q-43 0 -43 20zM569 604h166l-41 240 q-26 145 -37 233q-20 -163 -34 -233z" />
<glyph unicode="B" horiz-adv-x="1206" d="M111 43v1321q0 27 7 34t36 7h403q172 0 254.5 -18.5t146.5 -75.5q58 -52 90.5 -128.5t32.5 -158.5q0 -97 -39 -166t-129 -117q217 -97 217 -323q0 -138 -80.5 -251.5t-207.5 -143.5q-63 -14 -111.5 -18.5t-155.5 -4.5h-421q-29 0 -36 7t-7 36zM496 297h84q100 0 139 35 t39 104q0 40 -7 64.5t-27.5 44.5t-59.5 28.5t-101 8.5h-67v-285zM496 852h84q73 0 105 34t32 105t-30.5 101t-115.5 30h-75v-270z" />
<glyph unicode="C" d="M76 717q0 191 39 325t131 230q157 168 403 168q99 0 204.5 -35t174.5 -94q25 -19 25 -37q0 -3 -4 -19l-99 -235q-8 -16 -22 -16q-5 0 -17 4q-17 8 -68 39.5t-96 50t-88 18.5q-30 0 -55.5 -10t-49 -35.5t-40.5 -65.5t-27 -103t-10 -144q0 -469 211 -469q44 0 90 15.5 t75 34.5t52.5 34.5t28.5 15.5q9 0 18 -18l101 -234q4 -8 4 -20q0 -38 -73 -75t-164.5 -57t-157.5 -20q-291 0 -438.5 198t-147.5 554z" />
<glyph unicode="D" horiz-adv-x="1265" d="M111 43v1321q0 26 8 33.5t35 7.5h364q241 0 386.5 -67.5t215.5 -218.5t70 -404q0 -134 -18.5 -240.5t-61.5 -197t-111 -150.5t-170.5 -93.5t-236.5 -33.5h-438q-29 0 -36 7t-7 36zM508 317h59q35 0 63 5t49.5 13t38 23.5t28 31.5t19.5 42.5t12.5 50.5t7 61.5t3 69.5 t0.5 80v56q0 35 -0.5 59t-3 55t-7 52.5t-12.5 47t-19.5 42t-28 33.5t-38 26.5t-50.5 15.5t-64 6h-57v-770z" />
<glyph unicode="E" horiz-adv-x="1056" d="M111 43v1321q0 27 7 34t36 7h798q23 0 31 -5.5t8 -17.5q0 -6 -4 -26l-35 -238q-3 -20 -13 -26.5t-32 -6.5h-399v-204h330q27 0 35 -7.5t8 -35.5v-236q0 -26 -8 -33.5t-35 -7.5h-330v-239h428q28 0 34.5 -7t6.5 -34v-238q0 -30 -6 -36.5t-35 -6.5h-782q-29 0 -36 7t-7 36z " />
<glyph unicode="F" horiz-adv-x="991" d="M111 43v1321q0 29 6.5 35t36.5 6h798q23 0 31 -5.5t8 -17.5q0 -6 -4 -26l-35 -238q-3 -23 -11 -28t-34 -5h-399v-225h330q27 0 35 -7.5t8 -35.5v-235q0 -26 -8.5 -34.5t-34.5 -8.5h-330v-496q0 -28 -8 -35.5t-35 -7.5h-311q-29 0 -36 7t-7 36z" />
<glyph unicode="G" horiz-adv-x="1257" d="M78 686v8q2 358 155.5 552t458.5 194q120 0 240.5 -34t193.5 -97q15 -11 15 -29q0 -2 -4 -14l-115 -240q-5 -10 -16 -10q-9 0 -29 10q-3 2 -25 13t-29.5 14.5t-29 13.5t-34 14t-34.5 11t-39 10t-39.5 5.5t-44.5 2.5q-50 0 -88 -17t-71 -59t-50.5 -123t-17.5 -198 q0 -56 4 -107.5t19 -114.5t38.5 -108t67.5 -76t103 -31q53 0 106 17v192l-164 2q-27 0 -33 5.5t-6 31.5v228q0 29 7 36t36 7h473q25 0 32 -7.5t7 -31.5v-598q0 -46 -81.5 -92t-193 -73.5t-202.5 -27.5q-307 0 -458.5 184.5t-151.5 536.5z" />
<glyph unicode="H" horiz-adv-x="1282" d="M111 43v1321q0 27 6.5 34t34.5 7h313q27 0 35 -7.5t8 -33.5v-483h266v483q0 27 6.5 34t34.5 7h313q29 0 36 -7t7 -34v-1321q0 -29 -7 -36t-36 -7h-313q-29 0 -35 6.5t-6 36.5v514h-266v-514q0 -28 -8 -35.5t-35 -7.5h-313q-29 0 -35 6.5t-6 36.5z" />
<glyph unicode="I" horiz-adv-x="735" d="M55 43v211q0 30 6 36.5t35 6.5h68v809h-68q-29 0 -35 6.5t-6 36.5v215q0 27 6.5 34t34.5 7h543q28 0 34.5 -7t6.5 -34v-215q0 -30 -6 -36.5t-35 -6.5h-78v-809h78q28 0 34.5 -7.5t6.5 -35.5v-211q0 -30 -6 -36.5t-35 -6.5h-543q-29 0 -35 6.5t-6 36.5z" />
<glyph unicode="J" horiz-adv-x="1001" d="M14 442q0 29 6 40.5t21 11.5h293q22 0 22 -29q0 -128 11 -161.5t59 -33.5q42 0 55 30.5t13 100.5v703h-271q-29 0 -36 7t-7 36v217q0 27 7 34t36 7h625q27 0 35 -7.5t8 -33.5v-932q0 -226 -114.5 -346.5t-334.5 -120.5t-324 110.5t-104 366.5z" />
<glyph unicode="K" horiz-adv-x="1284" d="M111 43v1321q0 27 7 34t36 7h311q27 0 35 -7.5t8 -33.5v-473l328 516q11 16 28 16q5 0 29 -4l313 -76q29 -6 29 -24q0 -12 -14 -33l-410 -565l463 -615q16 -19 16 -32q0 -19 -28 -25l-340 -78q-20 -4 -25 -4q-11 0 -27 21l-362 516v-461q0 -28 -8 -35.5t-35 -7.5h-311 q-29 0 -36 7t-7 36z" />
<glyph unicode="L" horiz-adv-x="1044" d="M111 43v1321q0 27 7 34t36 7h311q27 0 35 -7.5t8 -33.5v-1012h453q23 0 31.5 -5t8.5 -23q0 -11 -2 -19l-36 -270q-3 -24 -10.5 -29.5t-32.5 -5.5h-766q-29 0 -36 7t-7 36z" />
<glyph unicode="M" horiz-adv-x="1497" d="M92 33l84 1331q2 26 9.5 33.5t33.5 7.5h316q24 0 32 -5t15 -28l125 -401q15 -51 49 -195q12 51 55 193l131 403q8 23 14 28t31 5h303q25 0 33.5 -7.5t9.5 -33.5l74 -1319v-12q0 -19 -8 -26t-33 -7h-297q-28 0 -35.5 8t-7.5 35l-6 465q0 46 6 177.5t12 195.5 q-15 -58 -49 -179.5t-39 -140.5l-65 -239q-6 -24 -13.5 -28.5t-33.5 -4.5h-183q-26 0 -33.5 5t-13.5 30l-59 237q-7 32 -78 320q8 -123 8 -373l-4 -465q0 -28 -7.5 -35.5t-33.5 -7.5h-301q-24 0 -32.5 7t-8.5 26z" />
<glyph unicode="N" horiz-adv-x="1300" d="M111 43v1321q0 27 7 34t36 7h262q26 0 35 -5t22 -30l297 -510q13 -23 26 -53.5t33 -82t33 -81.5q-26 186 -26 240v481q0 27 7 34t36 7h268q30 0 36.5 -6t6.5 -35v-1321q0 -29 -7 -36t-36 -7h-236q-25 0 -34 6.5t-25 34.5l-322 569q-30 51 -94 213q5 -37 14.5 -93t13 -86 t3.5 -58v-543q0 -28 -8 -35.5t-35 -7.5h-270q-29 0 -36 7t-7 36z" />
<glyph unicode="O" horiz-adv-x="1286" d="M76 721q0 103 13.5 196t52 191.5t99.5 169.5t164.5 116.5t239.5 45.5q285 0 425 -186t140 -533q0 -366 -141 -561t-432 -195q-561 0 -561 756zM477 694q0 -434 166 -434q164 0 164 442q0 443 -164 443q-34 0 -62.5 -23.5t-52.5 -74.5t-37.5 -141t-13.5 -212z" />
<glyph unicode="P" horiz-adv-x="1136" d="M111 43v1321q0 29 6.5 35t36.5 6h401q154 0 244 -21t153 -75q60 -52 94.5 -135.5t34.5 -174.5q0 -214 -140 -344.5t-370 -130.5h-63v-481q0 -28 -8 -35.5t-35 -7.5h-311q-29 0 -36 7t-7 36zM508 823h47q94 0 131 35t37 121q0 76 -39 107.5t-119 31.5h-57v-295z" />
<glyph unicode="Q" horiz-adv-x="1284" d="M76 721q0 72 6.5 139t24 140t45 135.5t72 120t102 97.5t138.5 63.5t179 23.5q285 0 425 -186t140 -533q0 -363 -135 -555q14 -10 68 -40.5t87.5 -54.5t33.5 -40q0 -6 -7 -13l-190 -190q-14 -14 -27 -14q-37 0 -101.5 46.5t-135.5 121.5q-89 -21 -166 -21q-559 0 -559 760 zM477 696q3 -434 166 -434q164 0 164 443q0 440 -164 440q-71 0 -118.5 -104.5t-47.5 -331.5v-13z" />
<glyph unicode="R" horiz-adv-x="1218" d="M111 43v1321q0 29 6.5 35t36.5 6h403q154 0 244 -21t153 -75q60 -52 94.5 -135.5t34.5 -174.5q0 -128 -56 -230t-150 -163l305 -524q10 -15 10 -31q0 -19 -33 -24l-317 -58q-20 -4 -23 -4q-15 0 -28 27l-269 553h-18v-502q0 -28 -8 -35.5t-35 -7.5h-307q-29 0 -36 7 t-7 36zM504 825h49q95 0 131.5 34.5t36.5 119.5q0 77 -38 108t-118 31h-61v-293z" />
<glyph unicode="S" horiz-adv-x="1116" d="M59 125q0 8 2 12l74 262q6 19 21 19q9 0 18 -6q81 -49 188.5 -82t180.5 -33q63 0 95 27.5t32 74.5q0 23 -3 39t-16.5 32.5t-26.5 27.5t-48 29.5t-63.5 32.5t-90.5 42q-72 33 -117 57.5t-94.5 61.5t-76.5 75t-44.5 93t-17.5 123q0 195 138 307.5t368 112.5q91 0 196 -23 t177.5 -59t72.5 -70q0 -6 -2 -10l-88 -240q-6 -14 -16 -14q-5 0 -17 4q-203 94 -313 94q-129 0 -129 -84q0 -39 31.5 -64.5t121.5 -66.5q180 -83 250 -130q145 -98 178 -239q11 -49 11 -106q0 -203 -140 -327t-368 -124q-75 0 -187.5 20.5t-204.5 57.5t-92 74z" />
<glyph unicode="T" horiz-adv-x="1050" d="M25 1108v256q0 27 7 34t36 7h962q23 0 31 -5.5t8 -19.5t-2 -24l-47 -256q-5 -22 -12.5 -28.5t-30.5 -6.5h-248v-1022q0 -30 -6 -36.5t-35 -6.5h-313q-29 0 -36 7t-7 36v1022h-264q-29 0 -36 7t-7 36z" />
<glyph unicode="U" horiz-adv-x="1335" d="M111 475v889q0 27 7 34t36 7h313q28 0 34.5 -7t6.5 -34v-854q0 -135 35 -182t123 -47q91 0 132.5 51.5t41.5 175.5v856q0 26 7.5 33.5t33.5 7.5h301q29 0 36 -7t7 -34v-872q0 -266 -155 -396.5t-427 -130.5q-148 0 -252 33.5t-165 101t-88 159t-27 216.5z" />
<glyph unicode="V" horiz-adv-x="1220" d="M18 1362q0 21 37 24l348 37q15 0 23 -7t12 -25l137 -682q2 -13 41 -285q32 239 41 283l150 677q5 20 11.5 26.5t23.5 6.5l329 -24q39 -3 39 -27q0 -5 -4 -25l-391 -1335q-6 -22 -13.5 -27.5t-31.5 -5.5h-326q-25 0 -31 5t-12 28l-376 1329q-7 17 -7 27z" />
<glyph unicode="W" horiz-adv-x="1712" d="M20 1360q0 21 37 24l301 31q12 2 27 2q9 0 14 -7t9 -28l100 -587q20 -121 33 -295q5 53 9.5 119.5t8.5 106t10 67.5l127 571q5 23 12 29t33 6h250q26 0 32.5 -6t12.5 -33l129 -565q6 -27 10.5 -68t9.5 -117.5t9 -120.5q6 52 14 123.5t12.5 115t8.5 65.5l94 587 q3 20 9.5 27.5t17.5 7.5q14 0 24 -2l293 -33q35 -3 35 -24q0 -7 -4 -27l-303 -1321q-6 -23 -14 -29t-31 -6h-289q-27 0 -35 5.5t-12 29.5l-119 592q-12 66 -31 303q-2 -24 -7.5 -80.5t-9 -91.5t-8.5 -75t-10 -60l-135 -588q-6 -24 -13 -29.5t-32 -5.5h-291q-26 0 -31.5 5 t-11.5 30l-290 1325q-5 25 -5 27z" />
<glyph unicode="X" horiz-adv-x="1275" d="M12 33q0 12 13 35l391 675l-346 570q-13 19 -13 30q0 22 37 27l328 55q4 1 11 2t11 2t7 1q7 0 11.5 -5.5t12.5 -23.5l123 -271q33 -73 41 -104q16 56 35 104l112 275q7 17 13.5 23t15.5 6q5 0 25 -4l325 -60q35 -5 35 -22q0 -12 -12 -33l-324 -576l393 -682 q15 -26 15 -32q0 -20 -37 -23l-338 -31q-5 0 -13 -1t-10 -1q-16 0 -28 25l-170 348q-9 21 -35 100q-12 -54 -37 -102l-172 -344q-11 -27 -24 -27q-5 0 -29 4l-332 37q-35 3 -35 23z" />
<glyph unicode="Y" horiz-adv-x="1216" d="M2 1362q0 19 37 22l346 37q8 2 23 2q9 0 14.5 -5.5t11.5 -22.5l146 -365q6 -17 32 -125q29 111 35 125l154 367q12 26 35 26q3 0 9 -1t9 -1l332 -43q37 -5 37 -24q0 -9 -11 -31l-401 -748v-532q0 -29 -6.5 -36t-34.5 -7h-313q-29 0 -36 7t-7 36v535l-402 753 q-10 20 -10 31z" />
<glyph unicode="Z" horiz-adv-x="1163" d="M70 43v195l536 837h-467q-24 0 -31.5 4.5t-7.5 16.5q0 16 2 26l29 248q3 25 10.5 30t34.5 5h834q29 0 36 -7t7 -34v-217l-514 -801h534q27 0 35 -5t8 -19q0 -3 -1 -10t-1 -11l-20 -262q-2 -25 -9.5 -32t-33.5 -7h-938q-29 0 -36 7t-7 36z" />
<glyph unicode="[" horiz-adv-x="1001" d="M227 -377v1798q0 30 6 36.5t35 6.5h529q27 0 35 -7.5t8 -35.5v-231q0 -26 -8 -33.5t-35 -7.5h-185v-1251h185q26 0 34.5 -8.5t8.5 -34.5v-232q0 -28 -8 -35.5t-35 -7.5h-529q-29 0 -35 6.5t-6 36.5z" />
<glyph unicode="\" horiz-adv-x="1118" d="M76 1556q0 23 37 23h247q40 0 54 -35l624 -1669q1 -5 3.5 -12t4 -11t1.5 -8q0 -18 -37 -18h-252q-44 0 -56 35l-620 1669q-6 15 -6 26z" />
<glyph unicode="]" horiz-adv-x="1001" d="M162 -145q0 27 7.5 35t33.5 8h186v1251h-186q-26 0 -33.5 7.5t-7.5 33.5v231q0 29 7 36t34 7h530q29 0 35 -6.5t6 -36.5v-1798q0 -30 -6 -36.5t-35 -6.5h-530q-27 0 -34 7t-7 36v232z" />
<glyph unicode="^" horiz-adv-x="1142" d="M33 735q0 12 8 25l313 616q11 23 17.5 29t23.5 6h365q15 0 20.5 -5t14.5 -24l315 -622q8 -20 8 -25q0 -16 -37 -16h-307q-18 0 -25.5 5t-17.5 26l-156 335l-157 -333q-11 -22 -17.5 -27.5t-23.5 -5.5h-309q-35 0 -35 16z" />
<glyph unicode="_" horiz-adv-x="1232" d="M27 -104q0 27 7 34t36 7h1093q29 0 36 -7t7 -34v-236q0 -29 -6.5 -35t-36.5 -6h-1093q-30 0 -36.5 6t-6.5 35v236z" />
<glyph unicode="`" horiz-adv-x="874" d="M119 1341q0 9 10 29l113 223q16 31 26 31q6 0 31 -14l438 -267q27 -18 27 -28q0 -9 -10 -29l-68 -133q-14 -29 -31 -29q-9 0 -24 6l-479 183q-33 11 -33 28z" />
<glyph unicode="a" horiz-adv-x="1071" d="M68 297q0 84 31.5 148t82.5 103t124 64t146.5 34t159.5 9v60q0 32 -22.5 46.5t-95.5 14.5q-92 0 -246 -63q-6 -4 -17 -4q-13 0 -18 16l-74 203l-4 16q0 10 27 25q140 78 379 78q413 0 413 -353v-372q0 -21 1 -40t2 -34.5t3.5 -32t4 -27t5.5 -24.5l6 -21t6.5 -20t6 -17 t6.5 -16.5t6 -15.5q5 -20 5 -21q0 -9 -15 -14l-219 -64q-18 -6 -39 -6q-19 0 -30 16.5t-32 65.5q-5 11 -7 17q-120 -97 -244 -97q-166 0 -259 87t-93 239zM385 311q0 -51 28.5 -80.5t69.5 -29.5q64 0 129 65v174q-123 0 -175 -33.5t-52 -95.5z" />
<glyph unicode="b" horiz-adv-x="1142" d="M74 27q0 9 6 24q37 109 37 230v1122q0 14 1 19.5t7.5 10.5t21.5 7l299 41q4 0 11 1t10 1q12 0 15 -7t3 -28v-461q99 62 197 62q196 0 294.5 -132t98.5 -368q0 -145 -27.5 -245.5t-95.5 -180.5q-136 -158 -340 -158q-51 0 -94 18t-94 56q-20 -44 -32.5 -55t-33.5 -11 q-5 0 -10 1.5t-16 2.5l-236 29q-22 3 -22 21zM485 240q48 -23 84 -23q66 0 111 83t45 232q0 140 -34 211.5t-83 71.5q-55 0 -123 -47v-528z" />
<glyph unicode="c" horiz-adv-x="962" d="M68 489q0 255 137.5 406.5t386.5 151.5q179 0 321 -105q21 -15 21 -29q0 -4 -8 -28l-78 -180q-10 -19 -19 -19q-7 0 -24 10q-122 76 -209 76q-69 0 -116.5 -64.5t-47.5 -207.5q0 -138 47 -199t119 -61t176 61q21 12 33 12q15 0 27 -24l77 -152q9 -18 9 -24 q0 -32 -43.5 -61t-104.5 -47t-119.5 -29t-93.5 -11q-239 0 -365 140t-126 384z" />
<glyph unicode="d" horiz-adv-x="1126" d="M68 487q0 165 24.5 262t95.5 175q114 125 312 125q62 0 151 -35v385q0 26 19 28l309 52q6 2 18 2q23 0 23 -33v-1180q0 -30 4 -56.5t8 -41t12.5 -38.5t12.5 -36q6 -18 6 -26q0 -15 -21 -21l-223 -69q-23 -7 -45 -7q-33 0 -57 88q-131 -96 -266 -96q-97 0 -171 39.5 t-120 110.5t-69 165t-23 207zM410 514q0 -164 30.5 -230.5t85.5 -66.5q30 0 65 13t60 34v527q-58 20 -110 20q-43 0 -70 -23.5t-44 -91t-17 -182.5z" />
<glyph unicode="e" horiz-adv-x="1093" d="M68 498q0 158 59.5 281.5t174.5 195.5t269 72q238 0 349.5 -149t111.5 -439q0 -19 -7.5 -24t-25.5 -5h-579q9 -105 51.5 -152t120.5 -47q58 0 107.5 11.5t78.5 24.5t78 40q13 8 23 8q13 0 26 -22l92 -172q7 -10 7 -17q0 -10 -21 -22q-173 -117 -401 -117 q-251 0 -382.5 140t-131.5 393zM420 649h266q-6 97 -35.5 134.5t-91.5 37.5q-64 0 -94 -37.5t-45 -134.5z" />
<glyph unicode="f" horiz-adv-x="866" d="M37 782v197q0 20 6.5 26.5t30.5 6.5h104v80q0 189 100.5 290t290.5 101q69 0 192.5 -28t123.5 -64q0 -5 -4 -21l-54 -192q-6 -25 -28 -25q-11 0 -23 6q-5 2 -30 12.5t-37.5 14.5t-37.5 9t-50 5q-39 0 -56.5 -25t-17.5 -79v-84h231q21 0 28 -4t7 -17q0 -14 -2 -22 l-37 -209q-3 -14 -8.5 -17.5t-24.5 -3.5h-194v-723q0 -12 -3.5 -14t-21.5 -2h-332q-7 0 -9.5 5t-2.5 22v712h-108q-22 0 -27.5 6.5t-5.5 36.5z" />
<glyph unicode="g" horiz-adv-x="1157" d="M78 492q0 247 112 401t320 154q119 0 219 -80q3 5 13 24t14 25t12.5 17.5t17 15.5t17.5 4q14 0 22 -2l236 -50q18 -3 18 -16q0 -3 -12 -43q-43 -124 -43 -250v-301q0 -71 4 -210t4 -210q0 -191 -117.5 -295t-330.5 -104q-108 0 -241.5 31.5t-215.5 87.5q-18 12 -18 20 q0 1 4 17l65 209q6 16 21 16q9 0 37 -12q182 -84 325 -84q58 0 79.5 20t21.5 84q0 4 -4.5 49.5t-4.5 50.5q-90 -49 -184 -49q-192 0 -291.5 128.5t-99.5 351.5zM422 508q0 -134 31.5 -199t74.5 -65q72 0 123 45v463q-51 30 -106 30q-51 0 -87 -69.5t-36 -204.5z" />
<glyph unicode="h" horiz-adv-x="1146" d="M102 33v1374q0 19 4.5 25.5t22.5 9.5l293 39q8 2 22 2q17 0 22 -8.5t5 -34.5v-482q47 41 114 65t130 24q177 0 253 -84.5t76 -243.5v-686v-8q0 -19 -5 -22t-33 -3h-310q-13 0 -16.5 4t-3.5 19v667q0 101 -72 101q-62 0 -133 -56v-717q0 -13 -5.5 -15.5t-33.5 -2.5h-299 q-22 0 -26.5 5t-4.5 28z" />
<glyph unicode="i" horiz-adv-x="655" d="M37 748v233q0 20 5 25.5t24 5.5h450q20 0 24.5 -5t4.5 -26v-954q0 -19 -3 -23t-18 -4h-317q-20 0 -25.5 4t-5.5 23v694h-110q-19 0 -24 5t-5 22zM127 1350q0 89 63.5 153t157.5 64q92 0 155.5 -64.5t63.5 -152.5q-2 -90 -64.5 -156t-156.5 -66q-93 0 -156 66t-63 156z " />
<glyph unicode="j" horiz-adv-x="669" d="M-143 -397q0 4 4 20l69 223q3 13 19 13q10 0 14 -2q9 -4 30.5 -12.5t29 -11.5t23.5 -8.5t25.5 -7t23 -3.5t26.5 -2q45 0 57 43t12 174v692h-110q-19 0 -24 4.5t-5 22.5v233q0 21 5 26t24 5h450q21 0 25 -5t4 -26v-952q0 -176 -18 -255t-78 -143q-53 -56 -135 -85 t-178 -29q-98 0 -195.5 29.5t-97.5 56.5zM141 1350q0 89 63.5 153t157.5 64q92 0 156 -64.5t64 -152.5q-2 -90 -65 -156t-157 -66q-93 0 -156 66t-63 156z" />
<glyph unicode="k" horiz-adv-x="1124" d="M102 27v1372q0 24 7.5 33t33.5 12l275 37q12 2 31 2q16 0 19 -7t3 -34v-717l309 328q14 14 25 14q8 0 26 -12l205 -133q19 -13 19 -25t-17 -29l-284 -303l352 -440q14 -17 14 -27q0 -13 -22 -22l-281 -101q-20 -8 -26 -8q-14 0 -25 17l-295 378v-335q0 -19 -4.5 -23 t-22.5 -4h-313q-20 0 -24.5 4t-4.5 23z" />
<glyph unicode="l" horiz-adv-x="677" d="M98 1393q0 26 4.5 34t22.5 11l307 41q10 2 25 2q12 0 15 -7t3 -30v-1125q0 -20 8.5 -32.5t20.5 -12.5q28 0 66.5 11.5t41.5 11.5q15 0 17 -12l53 -211q2 -6 2 -15q0 -34 -103 -64t-167 -30q-153 0 -236 86q-44 49 -61 107.5t-17 150.5z" />
<glyph unicode="m" horiz-adv-x="1660" d="M76 985q0 13 18 16l266 43q9 3 19 3q43 0 76 -111q65 54 126.5 82.5t139.5 28.5q146 0 246 -123q136 123 295 123q74 0 129 -20.5t86.5 -53t50.5 -81.5t25 -96.5t6 -107.5v-647q0 -29 -5.5 -35t-31.5 -6h-308q-18 0 -21 5.5t-3 35.5v672q0 90 -53 90q-23 0 -43 -8 t-33.5 -18t-42.5 -34v-702q0 -29 -5 -35t-28 -6h-289q-23 0 -27.5 4.5t-4.5 26.5v682q0 46 -12 65t-42 19q-34 0 -59 -11.5t-64 -42.5v-712q0 -22 -5 -26.5t-31 -4.5h-295q-26 0 -31.5 6t-5.5 35v664q0 138 -37 251q-6 18 -6 29z" />
<glyph unicode="n" horiz-adv-x="1155" d="M74 973q0 13 16 16l260 55q9 3 19 3q42 0 75 -111q125 111 281 111q328 0 328 -345v-671q0 -20 -4 -25.5t-19 -5.5h-315q-21 0 -26 5t-5 26v663q0 99 -70 99q-62 0 -135 -54v-719q0 -13 -4.5 -16.5t-25.5 -3.5h-308q-21 0 -25.5 4.5t-4.5 22.5v675q0 81 -18.5 170.5 t-18.5 100.5z" />
<glyph unicode="o" horiz-adv-x="1138" d="M68 508q0 244 133 391.5t372 147.5q238 0 368 -147.5t130 -395.5q0 -241 -133.5 -390t-366.5 -149q-242 0 -372.5 146t-130.5 397zM432 504q0 -162 34 -225.5t103 -63.5t103.5 64.5t34.5 226.5t-34.5 226.5t-103.5 64.5t-103 -64t-34 -229z" />
<glyph unicode="p" horiz-adv-x="1144" d="M72 954q0 12 16 15l238 71q24 7 43 7q8 0 15.5 -6.5t15 -21.5t12 -27t12.5 -34q57 48 113 68.5t125 20.5q207 0 311 -144t104 -395q0 -271 -106 -409t-332 -138q-66 0 -158 41v-360q0 -20 -4 -25.5t-18 -7.5l-330 -39q-8 0 -11.5 3.5t-4 9.5t-0.5 22v1110q0 67 -20.5 149 t-20.5 90zM481 215q47 -20 107 -20q47 0 74.5 23.5t43 92t15.5 191.5q0 286 -117 286q-61 0 -123 -49v-524z" />
<glyph unicode="q" horiz-adv-x="1144" d="M68 471q0 169 47 297t145.5 203.5t239.5 75.5q61 0 110 -18.5t107 -61.5q13 24 21.5 37t27 28t39.5 15q6 0 31 -5l225 -41q16 -3 16 -16q0 -8 -2 -12q-53 -141 -53 -281v-1054q0 -16 -3.5 -22t-14.5 -7l-334 -41q-17 0 -17 31v413q-71 -47 -176 -47q-205 0 -307 132.5 t-102 373.5zM426 475q0 -146 32.5 -214t78.5 -68q64 0 116 49v495q-49 35 -108 35q-51 0 -85 -71t-34 -226z" />
<glyph unicode="r" horiz-adv-x="860" d="M74 971q0 15 22 18l219 47q3 1 16 4.5t21 3.5q47 0 88 -122q58 63 109 94t119 31q52 0 116 -26.5t64 -68.5q0 -8 -4 -16l-86 -219q-8 -21 -23 -21q-9 0 -45.5 20.5t-77.5 20.5q-34 0 -54.5 -10.5t-57.5 -48.5v-655q0 -17 -4 -20t-25 -3h-309q-22 0 -26.5 4.5t-4.5 28.5 v631q0 73 -14 149.5t-29 116.5z" />
<glyph unicode="s" horiz-adv-x="962" d="M57 90q0 12 6 27l60 211q6 18 22 18q10 0 141.5 -53t182.5 -53q43 0 63.5 12.5t20.5 44.5q0 12 -5.5 22t-13.5 17t-25 15t-30 13t-39 14.5t-43 16.5q-126 50 -164 72q-106 63 -131 172q-8 38 -8 84q0 152 117.5 238t298.5 86q87 0 156 -14t101 -27.5t85 -42.5 q16 -8 16 -23q0 -10 -6 -22l-74 -195q-9 -18 -18 -18q-4 0 -16 4q-5 2 -32 13.5t-39 16t-37.5 14t-42 13.5t-37.5 8t-38 4q-90 0 -90 -51q0 -10 2.5 -18.5t9.5 -15.5t13.5 -12t20 -11t23 -10t29 -11t31.5 -12q141 -58 177 -78q107 -59 139 -149q18 -51 18 -115 q0 -162 -110.5 -246t-290.5 -84q-103 0 -208 20.5t-170 50t-65 54.5z" />
<glyph unicode="t" horiz-adv-x="882" d="M39 780v203q0 21 5.5 25t33.5 4h129v266q0 19 5.5 25.5t25.5 7.5l319 22q13 0 15.5 -4t2.5 -20v-297h242q35 0 35 -15q0 -10 -2 -16l-35 -211q-3 -18 -11 -23.5t-26 -5.5h-203v-415q0 -60 54 -60q57 0 159 45q12 4 19 4q15 0 20 -20l50 -209q4 -20 4 -25 q0 -34 -124.5 -65t-207.5 -31q-342 0 -342 352v424h-144q-18 0 -21 5t-3 34z" />
<glyph unicode="u" horiz-adv-x="1153" d="M102 379v596q0 24 4.5 31t24.5 8l299 30q18 3 27 3t11.5 -4.5t2.5 -18.5v-696q0 -59 17 -85t61 -26q69 0 127 55v707q0 18 1 23.5t6 9t19 4.5l302 28q6 0 13 1.5t9 1.5q11 0 14.5 -5.5t3.5 -21.5v-744q0 -130 39 -210q9 -22 9 -27q0 -11 -13 -14l-266 -52h-27 q-7 0 -12.5 2t-10.5 7t-9 10t-8.5 14.5t-7.5 16.5t-8 21t-9 22q-107 -101 -254 -101q-190 0 -281 98q-55 57 -69.5 117.5t-14.5 198.5z" />
<glyph unicode="v" horiz-adv-x="1122" d="M23 987q0 16 32 19l365 18q12 0 17.5 -5t8.5 -22l101 -438q8 -36 26 -221q20 155 35 221l111 438q4 18 9.5 23.5t16.5 5.5l334 -22q31 -3 31 -19q0 -4 -4 -20l-369 -977q-8 -20 -13.5 -24.5t-25.5 -4.5h-268q-18 0 -23.5 4.5t-13.5 24.5l-364 975q-6 15 -6 24z" />
<glyph unicode="w" horiz-adv-x="1490" d="M20 981q0 17 31 20l320 27q12 0 16.5 -5t7.5 -22l68 -405q0 -2 22 -201q10 133 23 201l78 385q5 21 10 26t25 5h266q20 0 26 -6t9 -27l71 -383q6 -33 21 -201q20 179 24 199l82 407q3 17 8.5 22t18.5 5l299 -27q33 -3 33 -22q0 -5 -4 -21l-308 -946q-4 -14 -8.5 -19 t-9.5 -6t-21 -1h-262q-22 0 -28 4t-9 24l-67 432q-3 23 -9.5 96.5t-9.5 96.5q-12 -152 -22 -193l-92 -432q-4 -21 -9 -24.5t-26 -3.5h-262q-20 0 -25.5 3.5t-11.5 22.5l-270 946q-1 3 -3 11.5t-2 11.5z" />
<glyph unicode="x" horiz-adv-x="1150" d="M23 53q0 12 12 27l317 430l-286 405q-13 19 -13 29q0 15 29 21l324 57q8 2 20 2q13 0 25 -18l92 -179q5 -12 16.5 -41t15.5 -38q24 56 39 79l109 179q10 18 22 18q5 0 25 -4l320 -66q28 -6 28 -22q0 -12 -12 -27l-301 -395l319 -457q11 -18 11 -26q0 -20 -27 -23 l-330 -35q-4 0 -10.5 -1t-9.5 -1q-17 0 -25 19l-117 211q-9 16 -16 32.5t-13 32.5t-9 23q-1 -1 -13.5 -34.5t-23.5 -53.5l-123 -211q-11 -17 -23 -17q-10 0 -20 2l-324 60q-28 6 -28 22z" />
<glyph unicode="y" horiz-adv-x="1116" d="M23 977q0 15 32 18l340 31q13 0 18.5 -5t8.5 -22l125 -505q11 -47 35 -250q2 16 9.5 78t14 103.5t12.5 68.5l113 505q3 17 7.5 22t15.5 5l317 -31q35 -3 35 -18q0 -3 -2.5 -11t-3.5 -10l-256 -874q-7 -23 -21 -74.5t-21.5 -77t-23.5 -72.5t-28.5 -72.5t-34 -63.5 t-42.5 -59t-52.5 -46.5t-66 -38.5t-79.5 -22t-96 -9q-37 0 -115.5 17t-153.5 49.5t-75 67.5q0 10 6 22l98 195q6 14 21 14q1 0 32.5 -17.5t76 -35t77.5 -17.5q47 0 73.5 14.5t39.5 57.5l24 86h-69q-21 0 -26.5 3.5t-12.5 23.5l-346 925q-6 15 -6 25z" />
<glyph unicode="z" horiz-adv-x="1026" d="M68 35v188l356 418q46 53 117 92q-50 -12 -135 -12h-261q-25 0 -30.5 5t-5.5 30v219q0 23 6.5 30t29.5 7h770q22 0 28.5 -7t6.5 -30v-193l-362 -420q-33 -38 -105 -75q57 14 121 14h348q16 0 22.5 -3.5t6.5 -16.5t-2 -21l-43 -235q-3 -17 -11 -21t-26 -4h-797 q-23 0 -28.5 6t-5.5 29z" />
<glyph unicode="{" d="M225 401v230q0 21 18 32t39.5 15.5t39.5 26.5t18 63v313q0 179 92.5 259.5t290.5 80.5q77 0 164 -6q29 -3 35 -9t6 -32v-231q0 -30 -6 -36.5t-35 -6.5h-58q-68 0 -89 -15.5t-21 -74.5v-258q0 -85 -29.5 -140.5t-97.5 -103.5q59 -38 93 -101.5t34 -144.5v-258 q0 -60 20 -75t88 -15h60q29 0 35 -6.5t6 -36.5v-231q0 -35 -38 -42.5t-146 -7.5h-21q-198 0 -290.5 83.5t-92.5 263.5v307q0 43 -12 68.5t-29 34t-33.5 13t-28.5 13.5t-12 28z" />
<glyph unicode="|" d="M365 -485v2023q0 27 6.5 34t34.5 7h294q29 0 36 -7t7 -34v-2023q0 -29 -6.5 -35t-36.5 -6h-294q-29 0 -35 6t-6 35z" />
<glyph unicode="}" d="M223 -129q0 30 6 36.5t35 6.5h60q68 0 87 15t19 75v258q0 80 35.5 144t95.5 102q-69 49 -100 104.5t-31 139.5v258q0 59 -20.5 74.5t-87.5 15.5h-58q-29 0 -35 6.5t-6 36.5v231q0 26 6 32t35 9q87 6 162 6q198 0 291.5 -81t93.5 -259v-313q0 -40 18 -62t39.5 -26.5 t39.5 -16t18 -32.5v-230q0 -16 -8.5 -25.5t-21.5 -12t-27.5 -9.5t-27.5 -16.5t-21.5 -33.5t-8.5 -60v-307q0 -180 -93.5 -263.5t-291.5 -83.5q-139 0 -170 10q-33 10 -33 40v231z" />
<glyph unicode="~" horiz-adv-x="1472" d="M205 670q0 12 8 28q47 104 73 142q91 133 261 133q65 0 143.5 -27.5t148.5 -55.5t113 -28q33 0 61 16t43.5 34.5t29.5 34.5t22 16q5 0 27 -11l122 -69q25 -16 25 -25q0 -8 -12 -29q-6 -10 -19.5 -35t-20.5 -36.5t-22 -34.5t-25 -35.5t-27.5 -31.5t-33.5 -29t-38.5 -23 t-45.5 -19.5t-52.5 -11t-61.5 -4.5q-56 0 -135.5 27.5t-151 55.5t-109.5 28t-68.5 -30t-48.5 -59.5t-28 -29.5t-31 12l-121 68q-26 14 -26 29z" />
<glyph unicode="&#xa3;" horiz-adv-x="1228" d="M27 602v184q0 28 7.5 34.5t35.5 6.5h102q-16 78 -16 129q0 198 146 315.5t382 117.5q77 0 147 -13t116.5 -32t81.5 -40.5t51 -38.5t16 -26q0 -4 -4 -16l-101 -203q-9 -19 -22 -19q-3 0 -41 15q-144 67 -240 67q-76 0 -117 -39.5t-41 -105.5q0 -53 15 -107h286 q28 0 35.5 -6t7.5 -34v-189q0 -27 -7 -34t-36 -7h-229q23 -50 23 -143q0 -52 -7 -99h512q25 0 33 -4.5t8 -17.5q0 -15 -2 -23l-41 -239q-5 -35 -47 -35h-991q-27 0 -35 7.5t-8 35.5v236q0 28 7.5 34t35.5 6h150q12 61 12 105q0 34 -21 137h-161q-29 0 -36 7t-7 34z" />
<glyph unicode="&#xa8;" horiz-adv-x="1081" d="M90 1305q0 86 60 146t145 60t144 -60t59 -146q0 -85 -59 -145t-144 -60t-145 60t-60 145zM584 1305q0 86 58.5 146t143.5 60t145 -60t60 -146q0 -85 -60 -145t-145 -60q-84 0 -143 60t-59 145z" />
<glyph unicode="&#xa9;" horiz-adv-x="1667" d="M96 702q0 151 58.5 288t157 235.5t235.5 156.5t287 58q202 0 371.5 -98.5t267.5 -268t98 -371.5q0 -150 -58 -286.5t-156.5 -235.5t-235 -157t-287.5 -58q-150 0 -287 58t-235.5 157t-157 235.5t-58.5 286.5zM262 702q0 -159 77 -294t208.5 -213t286.5 -78q117 0 223 46 t182.5 124.5t122 187t45.5 227.5q0 160 -76.5 295.5t-208.5 214t-288 78.5q-155 0 -286.5 -78.5t-208.5 -214t-77 -295.5zM510 711q0 200 91.5 317t252.5 117q60 0 152 -34t92 -67q0 -6 -2 -10l-60 -143q-3 -8 -14 -8q-18 0 -73 32.5t-89 32.5q-48 0 -79 -49t-31 -164 q0 -280 129 -280q33 0 65 14.5t53 28.5t27 14q7 0 12 -10l62 -140q2 -4 2 -12q0 -36 -85.5 -63t-154.5 -27q-175 0 -262.5 118.5t-87.5 332.5z" />
<glyph unicode="&#xab;" horiz-adv-x="1409" d="M80 514q0 7 12 25l330 458q15 21 27 21q7 0 30 -10l236 -99q24 -11 24 -26q0 -12 -12 -33l-215 -350l223 -350q15 -22 15 -33q0 -18 -27 -27l-244 -88q-28 -8 -30 -8q-13 0 -27 20l-328 471q-14 24 -14 29zM647 514q0 7 12 25l332 458q15 21 27 21q8 0 31 -10l235 -99 q25 -11 25 -26q0 -10 -13 -33l-215 -350l224 -350q14 -21 14 -33q0 -18 -27 -27l-243 -88q-28 -8 -31 -8q-13 0 -27 20l-329 471q-15 26 -15 29z" />
<glyph unicode="&#xad;" horiz-adv-x="894" d="M80 401v246q0 27 6.5 34t34.5 7h651q29 0 36 -7t7 -34v-246q0 -29 -6.5 -35t-36.5 -6h-651q-29 0 -35 6t-6 35z" />
<glyph unicode="&#xae;" horiz-adv-x="1667" d="M96 702q0 151 58.5 288t157 235.5t235.5 156.5t287 58q202 0 371.5 -98.5t267.5 -268t98 -371.5q0 -150 -58 -286.5t-156.5 -235.5t-235 -157t-287.5 -58q-150 0 -287 58t-235.5 157t-157 235.5t-58.5 286.5zM262 702q0 -159 77 -294t208.5 -213t286.5 -78q117 0 223 46 t182.5 124.5t122 187t45.5 227.5q0 159 -76.5 294.5t-208.5 214.5t-288 79q-155 0 -286.5 -78.5t-208.5 -214t-77 -295.5zM561 305v795q0 17 4.5 20.5t22.5 3.5h241q169 0 242.5 -61.5t73.5 -181.5q0 -77 -33.5 -138t-89.5 -98l182 -317q6 -12 6 -17q0 -11 -20 -14l-189 -35 q-6 -2 -14 -2t-16 16l-162 332h-12v-303q0 -16 -4.5 -20t-20.5 -4h-184q-18 0 -22.5 3.5t-4.5 20.5zM797 778h30q57 0 79 19.5t22 70.5q0 46 -23 65t-71 19h-37v-174z" />
<glyph unicode="&#xb4;" horiz-adv-x="872" d="M117 1313q0 13 28 30l437 267q24 14 30 14q12 0 27 -31l113 -223q10 -20 10 -29q0 -17 -33 -28l-479 -183q-15 -6 -25 -6q-15 0 -30 29l-68 133q-10 20 -10 27z" />
<glyph unicode="&#xbb;" horiz-adv-x="1398" d="M98 117q0 11 15 33l223 350l-215 350q-12 21 -12 33q0 15 24 26l238 99q23 10 30 10q10 0 25 -21l332 -458q12 -18 12 -25q0 -5 -14 -29l-330 -471q-14 -20 -27 -20l-28 8l-246 88q-27 9 -27 27zM668 117q0 12 14 33l223 350l-215 350q-12 21 -12 33q0 15 24 26l236 99 q23 10 31 10q11 0 26 -21l332 -458q12 -18 12 -25q0 -5 -14 -29l-330 -471q-14 -20 -26 -20q-3 0 -31 8l-244 88q-26 9 -26 27z" />
<glyph unicode="&#x401;" horiz-adv-x="1056" d="M111 43v1321q0 27 7 34t36 7h798q23 0 31 -5.5t8 -17.5q0 -6 -4 -26l-35 -238q-3 -20 -13 -26.5t-32 -6.5h-399v-204h330q27 0 35 -7.5t8 -35.5v-236q0 -26 -8 -33.5t-35 -7.5h-330v-239h428q28 0 34.5 -7t6.5 -34v-238q0 -30 -6 -36.5t-35 -6.5h-782q-29 0 -36 7t-7 36z M182 1692q0 68 49 115.5t117 47.5t116 -47t48 -116q0 -70 -48 -120t-116 -50t-117 50t-49 120zM598 1692q0 69 48 116t116 47t117 -47.5t49 -115.5q0 -70 -49 -120t-117 -50t-116 50t-48 120z" />
<glyph unicode="&#x402;" horiz-adv-x="1509" d="M25 1100v276q0 29 30 29h1024q15 0 23 -8.5t8 -20.5l-49 -278q-5 -22 -10.5 -27.5t-24.5 -5.5h-328v-231q139 55 289 55q223 0 330 -111q62 -65 82 -150.5t20 -193.5q0 -71 -5 -125.5t-31 -127t-72 -118.5q-98 -98 -301 -98q-74 0 -150 14t-76 44q0 3 1 8t1 8l31 223 q1 9 6.5 15t10.5 6q1 0 2 -1t2 -1l14 -7q35 -14 70 -14q28 0 47 10.5t28.5 24t14.5 39t5.5 41.5t0.5 45q0 100 -37 137t-115 37q-79 0 -168 -39v-514q0 -25 -8 -33t-33 -8h-323q-33 0 -33 37v1028h-246q-30 0 -30 35z" />
<glyph unicode="&#x403;" horiz-adv-x="1005" d="M111 43v1321q0 29 6.5 35t36.5 6h798q23 0 31 -5.5t8 -17.5q0 -6 -4 -26l-35 -238q-3 -23 -11 -28t-34 -5h-399v-1042q0 -28 -8 -35.5t-35 -7.5h-311q-29 0 -36 7t-7 36zM209 1692q0 13 29 30l436 267q24 14 31 14q11 0 26 -31l113 -223q10 -20 10 -29q0 -17 -33 -28 l-479 -183q-15 -6 -25 -6q-15 0 -30 29l-68 133q-10 20 -10 27z" />
<glyph unicode="&#x404;" horiz-adv-x="1069" d="M76 698q0 742 549 742q130 0 235 -45q53 -23 106.5 -60.5t53.5 -62.5q0 -10 -6 -19l-107 -188q-7 -10 -18 -10q-2 0 -34.5 22t-84 44t-100.5 22q-54 0 -94 -25.5t-61 -68t-30.5 -86t-9.5 -89.5v-14h313q18 0 24.5 -7.5t6.5 -25.5v-231q0 -35 -28 -35h-314 q0 -299 195 -299q38 0 74.5 10.5t56 20.5t53.5 31l27 16q8 4 16 4q11 0 16 -8l109 -209q4 -6 4 -18q0 -15 -12 -27l-12 -10q-61 -53 -158.5 -80t-200.5 -27q-258 0 -399 146q-54 56 -90 128t-52.5 154t-22 151t-5.5 154z" />
<glyph unicode="&#x405;" horiz-adv-x="1116" d="M59 125q0 8 2 12l74 262q6 19 21 19q9 0 18 -6q81 -49 188.5 -82t180.5 -33q63 0 95 27.5t32 74.5q0 23 -3 39t-16.5 32.5t-26.5 27.5t-48 29.5t-63.5 32.5t-90.5 42q-72 33 -117 57.5t-94.5 61.5t-76.5 75t-44.5 93t-17.5 123q0 195 138 307.5t368 112.5q91 0 196 -23 t177.5 -59t72.5 -70q0 -6 -2 -10l-88 -240q-6 -14 -16 -14q-5 0 -17 4q-203 94 -313 94q-129 0 -129 -84q0 -39 31.5 -64.5t121.5 -66.5q180 -83 250 -130q145 -98 178 -239q11 -49 11 -106q0 -203 -140 -327t-368 -124q-75 0 -187.5 20.5t-204.5 57.5t-92 74z" />
<glyph unicode="&#x406;" horiz-adv-x="737" d="M55 43v211q0 30 6 36.5t35 6.5h68v809h-68q-29 0 -35 6.5t-6 36.5v215q0 27 6.5 34t34.5 7h545q28 0 34.5 -7t6.5 -34v-215q0 -30 -6 -36.5t-35 -6.5h-78v-809h78q28 0 34.5 -7.5t6.5 -35.5v-211q0 -30 -6 -36.5t-35 -6.5h-545q-29 0 -35 6.5t-6 36.5z" />
<glyph unicode="&#x407;" horiz-adv-x="737" d="M12 1683q0 84 50.5 144.5t119.5 60.5q73 0 121.5 -59.5t48.5 -145.5t-48.5 -145t-121.5 -59q-69 0 -119.5 60t-50.5 144zM57 31v233q0 18 5 25.5t24 7.5h80v809h-76q-18 0 -25.5 5t-7.5 24v235q0 23 8.5 29t32.5 6h545q28 0 34.5 -7.5t6.5 -33.5v-225q0 -20 -5.5 -26.5 t-25.5 -6.5h-88v-809h86q15 0 22.5 -5t9 -11.5t1.5 -18.5v-233q0 -15 -5.5 -22t-21.5 -7h-567q-20 0 -26.5 5.5t-6.5 25.5zM385 1683q0 84 50.5 144.5t119.5 60.5q73 0 121.5 -59.5t48.5 -145.5t-48.5 -145t-121.5 -59q-69 0 -119.5 60t-50.5 144z" />
<glyph unicode="&#x408;" horiz-adv-x="1003" d="M14 442q0 29 6 40.5t21 11.5h293q22 0 22 -29q0 -128 11 -161.5t59 -33.5q42 0 55 30.5t13 100.5v703h-271q-29 0 -36 7t-7 36v217q0 27 7 34t36 7h627q27 0 35 -7.5t8 -33.5v-932q0 -226 -114.5 -346.5t-334.5 -120.5q-222 0 -326 110.5t-104 366.5z" />
<glyph unicode="&#x409;" horiz-adv-x="1869" d="M-23 236q0 21 21 28l37 8q32 7 50.5 12t45 18.5t45.5 33.5q17 17 30.5 44.5t23 67.5t16 78.5t10.5 94.5t6.5 98t3 106.5t1 101.5t0 102t-0.5 91v244q0 18 11 29.5t32 11.5h832q21 0 32 -11.5t11 -29.5v-496h153q238 0 355 -108q116 -107 116 -307q0 -91 -20 -163 t-49.5 -118.5t-77 -80.5t-89.5 -51t-100 -26.5t-95.5 -11.5t-88.5 -2h-448q-24 0 -32.5 9.5t-8.5 31.5v1040h-178v-116q0 -251 -15 -420q-6 -82 -17 -146t-46.5 -150t-91.5 -143q-69 -69 -177 -105t-178 -36q-31 0 -39 19l-77 245q0 1 -1.5 3.5t-1.5 3.5zM1184 297h63 q189 0 189 152q0 86 -47.5 117.5t-135.5 31.5h-69v-301z" />
<glyph unicode="&#x40a;" horiz-adv-x="1845" d="M111 27v1347q0 19 5.5 25t24.5 6h338q29 0 29 -37v-487h266v487q0 37 37 37h322q26 0 26 -29v-508h154q237 0 354 -108t117 -307q0 -91 -20 -163t-49.5 -118.5t-77 -80.5t-89.5 -51t-100 -26.5t-95.5 -11.5t-88.5 -2h-449q-24 0 -32.5 9.5t-8.5 31.5v516h-266v-524 q0 -33 -25 -33h-340q-16 0 -24 5t-8 22zM1159 297h64q188 0 188 152q0 87 -47.5 118t-134.5 31h-70v-301z" />
<glyph unicode="&#x40b;" horiz-adv-x="1452" d="M25 1100v276q0 29 30 29h1024q15 0 23 -8.5t8 -20.5l-49 -278q-5 -22 -10.5 -27.5t-24.5 -5.5h-328v-231q129 55 279 55q93 0 164.5 -24.5t112 -61t66 -86t34 -92t8.5 -86.5v-498q0 -20 -7.5 -30.5t-31.5 -10.5h-319q-39 0 -39 39v418q0 61 -32.5 99t-94.5 38 q-63 0 -140 -39v-514q0 -25 -8 -33t-33 -8h-323q-33 0 -33 37v1028h-246q-30 0 -30 35z" />
<glyph unicode="&#x40c;" horiz-adv-x="1261" d="M111 35v1339q0 18 7 24.5t25 6.5h340q25 0 25 -25v-508h65q66 0 101 38.5t47 115.5l22 121q14 76 53.5 134.5t93 92t110.5 50t114 16.5q44 0 53 -27l64 -217q2 -4 2 -12q0 -19 -23 -27l-53 -14q-75 -18 -94 -125l-23 -103q-13 -57 -51.5 -107t-109.5 -71v-6 q157 -50 188 -217l23 -117q6 -29 15.5 -50.5t16.5 -32.5t23 -20t21.5 -10.5t25.5 -7.5l41 -10q31 -10 31 -28q0 -7 -2 -11l-74 -231q-4 -11 -6.5 -16t-13 -10t-27.5 -5q-40 0 -74.5 3.5t-78.5 12.5t-80 28.5t-69.5 49t-56.5 77t-32 108.5l-33 211q-18 120 -139 120h-70v-550 q0 -12 -7 -18.5t-16 -6.5h-342q-21 0 -26.5 8.5t-5.5 26.5zM342 1692q0 13 29 30l436 267q25 14 31 14q10 0 26 -31l113 -223q10 -20 10 -29q0 -17 -33 -28l-479 -183q-15 -6 -24 -6q-17 0 -31 29l-68 133q-10 20 -10 27z" />
<glyph unicode="&#x40e;" horiz-adv-x="1165" d="M10 1378q0 22 60 25l292 16q6 0 17 1t14 1q13 0 21.5 -8t15.5 -33l105 -389q26 -99 73 -293h10q17 80 32.5 148.5t23.5 103.5t12 56l76 370q6 27 13 36t24 9l313 -16q43 -4 43 -25q0 -3 -8 -34l-254 -938q-31 -114 -71.5 -196t-81.5 -129t-94.5 -74.5t-100 -35.5 t-107.5 -8q-140 0 -262 55q-55 28 -55 46q0 4 4 16l76 227q4 8 12 8q4 0 32 -13.5t71 -27.5t85 -14q67 0 103 31.5t53 103.5l14 60h-198q-18 0 -25 18l-328 868q-10 30 -10 35zM244 1812q0 30 24 33l238 29q12 0 18.5 -19t9.5 -42.5t17 -42.5t39 -19q26 0 39.5 19t15.5 42.5 t8 42.5t19 19l237 -31q23 -3 23 -26q0 -54 -20 -111t-58.5 -109.5t-106.5 -86t-153 -33.5q-83 0 -152 32.5t-111 83t-64.5 108t-22.5 111.5z" />
<glyph unicode="&#x40f;" horiz-adv-x="1282" d="M111 27v1343q0 20 6 27.5t28 7.5h330q16 0 24.5 -5t8.5 -22v-1054h266v1048q0 18 7 25.5t26 7.5h330q13 0 18.5 -1t10.5 -7t5 -19v-1335q0 -13 -1.5 -20.5t-10 -15t-24.5 -7.5h-314v-344q0 -19 -7.5 -24t-25.5 -5h-292q-20 0 -27.5 6.5t-7.5 26.5v340h-324q-26 0 -26 27z " />
<glyph unicode="&#x410;" horiz-adv-x="1323" d="M35 20q0 9 8 29l428 1321q6 24 12.5 29.5t32.5 5.5h305q25 0 31.5 -5t15.5 -30l430 -1321q1 -4 2 -9t2 -8.5t1 -6.5q0 -14 -9 -19.5t-32 -5.5h-347q-26 0 -32.5 5t-12.5 30l-77 293h-269l-84 -293q-8 -25 -13.5 -30t-29.5 -5h-319q-43 0 -43 20zM569 604h166l-41 240 q-26 145 -37 233q-20 -163 -34 -233z" />
<glyph unicode="&#x411;" horiz-adv-x="1181" d="M111 41v1323q0 41 41 41h837q31 0 31 -21q0 -4 -2 -11.5t-2 -10.5l-45 -244q-7 -33 -47 -33h-428v-217h153q238 0 355 -108q116 -109 116 -314q0 -446 -520 -446h-448q-41 0 -41 41zM496 297h63q39 0 68 5t59 20t46 47t16 80q0 79 -45.5 114t-114.5 35h-92v-301z" />
<glyph unicode="&#x412;" horiz-adv-x="1206" d="M111 43v1321q0 27 7 34t36 7h403q172 0 254.5 -18.5t146.5 -75.5q58 -52 90.5 -128.5t32.5 -158.5q0 -97 -39 -166t-129 -117q217 -97 217 -323q0 -138 -80.5 -251.5t-207.5 -143.5q-63 -14 -111.5 -18.5t-155.5 -4.5h-421q-29 0 -36 7t-7 36zM496 297h84q100 0 139 35 t39 104q0 40 -7 64.5t-27.5 44.5t-59.5 28.5t-101 8.5h-67v-285zM496 852h84q73 0 105 34t32 105t-30.5 101t-115.5 30h-75v-270z" />
<glyph unicode="&#x413;" horiz-adv-x="1005" d="M111 43v1321q0 29 6.5 35t36.5 6h798q23 0 31 -5.5t8 -17.5q0 -6 -4 -26l-35 -238q-3 -23 -11 -28t-34 -5h-399v-1042q0 -28 -8 -35.5t-35 -7.5h-311q-29 0 -36 7t-7 36z" />
<glyph unicode="&#x414;" horiz-adv-x="1325" d="M0 281q0 36 35 36h90q81 150 113 315t32 462v280q0 18 7.5 24.5t25.5 6.5h844q31 0 31 -25v-1063h102q35 0 35 -36v-590q0 -25 -25 -25h-284q-16 0 -23.5 6.5t-7.5 24.5v303h-635v-305q0 -18 -7.5 -23.5t-23.5 -5.5h-276q-18 0 -25.5 6.5t-7.5 24.5v584zM494 317h303v770 h-176v-200q0 -122 -37 -303q-34 -158 -90 -267z" />
<glyph unicode="&#x415;" horiz-adv-x="1056" d="M111 43v1321q0 27 7 34t36 7h798q23 0 31 -5.5t8 -17.5q0 -6 -4 -26l-35 -238q-3 -20 -13 -26.5t-32 -6.5h-399v-204h330q27 0 35 -7.5t8 -35.5v-236q0 -26 -8 -33.5t-35 -7.5h-330v-239h428q28 0 34.5 -7t6.5 -34v-238q0 -30 -6 -36.5t-35 -6.5h-782q-29 0 -36 7t-7 36z " />
<glyph unicode="&#x416;" horiz-adv-x="1781" d="M2 248q0 14 12 16l54 10q53 10 75.5 36t34.5 75l35 150q33 156 168 196v6q-62 23 -103 73.5t-53 117.5l-20 108q-14 95 -111 113l-39 6q-26 4 -26 29q0 6 2 10l67 219q3 14 11 19.5t32 5.5q55 0 110 -16t108.5 -48t93 -90t53.5 -133l22 -129q1 -3 3.5 -19.5t4 -22.5 t5 -21.5t8.5 -22.5t12 -19.5t17 -18.5t23 -13t30.5 -10t38.5 -3h37v502q0 18 7 24.5t25 6.5h305q31 0 31 -25v-508h31q25 0 45.5 4.5t34 10t24.5 18t17 19.5t11.5 25t6.5 24t4.5 26t3.5 23l23 129q14 75 53.5 133t92.5 90t108 48t110 16q24 0 32 -5.5t11 -19.5l68 -219 q2 -4 2 -10q0 -12 -8 -19.5t-19 -9.5l-38 -6q-97 -18 -111 -113l-21 -108q-12 -67 -52.5 -117.5t-102.5 -73.5v-6q135 -40 168 -196l35 -150q12 -49 34.5 -75t75.5 -36l53 -10q13 -3 13 -16l-76 -252q-4 -12 -7 -17t-12 -9.5t-26 -4.5q-87 0 -167.5 24.5t-125.5 69.5 q-55 55 -76 174l-39 224q-22 118 -133 118h-43v-542q0 -11 -1 -17t-7 -11t-18 -5h-308q-17 0 -25.5 6t-8.5 23v546h-43q-112 0 -134 -118l-38 -224q-21 -119 -76 -174q-45 -45 -125.5 -69.5t-167.5 -24.5q-17 0 -26 4.5t-12 9.5t-7 17z" />
<glyph unicode="&#x417;" horiz-adv-x="989" d="M10 139q0 13 4 21l86 194q6 15 21 15q9 0 26 -11q11 -7 41.5 -30t49.5 -33.5t61.5 -21.5t97.5 -11q42 0 79.5 14t66 51.5t28.5 94.5q0 84 -53.5 122t-140.5 38h-88q-41 0 -41 41v188q0 41 41 41h43q37 0 68.5 6t61.5 21t47 44.5t17 71.5q0 23 -6 46t-21.5 47.5 t-47.5 39.5t-78 15q-62 0 -121 -33q-13 -7 -34.5 -23t-39 -26t-33.5 -10q-15 0 -18 10l-92 180q-6 12 -6 23q0 21 20 41q72 72 180 103.5t224 31.5q49 0 100 -7t116.5 -32t115 -64.5t84 -112t34.5 -167.5q0 -42 -10.5 -86t-32 -89.5t-63.5 -83t-97 -55.5q248 -86 248 -352 q0 -81 -19.5 -147.5t-50 -110t-75 -76t-86.5 -49.5t-92.5 -27.5t-85.5 -13t-72 -2.5q-163 0 -283 43q-38 14 -74 32t-68 46t-32 53z" />
<glyph unicode="&#x418;" horiz-adv-x="1343" d="M111 25v1349q0 18 7 24.5t25 6.5h316q24 0 24 -25v-403q0 -55 -4 -146.5t-8.5 -158t-5.5 -76.5h12q37 99 86.5 215t75.5 182l152 383q12 29 43 29h366q33 0 33 -29v-1351q0 -25 -31 -25h-309q-18 0 -25.5 6.5t-7.5 24.5v512q0 120 19 342h-11q-44 -141 -159 -420 l-181 -432q-16 -33 -41 -33h-352q-24 0 -24 25z" />
<glyph unicode="&#x419;" horiz-adv-x="1343" d="M111 25v1349q0 18 7 24.5t25 6.5h316q24 0 24 -25v-403q0 -55 -4 -146.5t-8.5 -158t-5.5 -76.5h12q37 99 86.5 215t75.5 182l152 383q12 29 43 29h366q33 0 33 -29v-1351q0 -25 -31 -25h-309q-18 0 -25.5 6.5t-7.5 24.5v512q0 120 19 342h-11q-44 -141 -159 -420 l-181 -432q-16 -33 -41 -33h-352q-24 0 -24 25zM270 1788v4q0 24 23 29l194 30q3 0 9 1t8 1q12 0 20 -18l8 -25q39 -100 130 -100q95 0 124 102l7 21q6 18 24 18h6l203 -30q23 -4 23 -29v-6q0 -65 -30 -116.5t-74.5 -81.5t-100 -50t-101.5 -27.5t-84 -7.5q-44 0 -93 8.5 t-102.5 30t-96 53t-70 82t-27.5 111.5z" />
<glyph unicode="&#x41a;" horiz-adv-x="1261" d="M111 35v1339q0 18 7 24.5t25 6.5h340q25 0 25 -25v-508h65q66 0 101 38.5t47 115.5l22 121q14 76 53.5 134.5t93 92t110.5 50t114 16.5q44 0 53 -27l64 -217q2 -4 2 -12q0 -19 -23 -27l-53 -14q-75 -18 -94 -125l-23 -103q-13 -57 -51.5 -107t-109.5 -71v-6 q157 -50 188 -217l23 -117q6 -29 15.5 -50.5t16.5 -32.5t23 -20t21.5 -10.5t25.5 -7.5l41 -10q31 -10 31 -28q0 -7 -2 -11l-74 -231q-4 -11 -6.5 -16t-13 -10t-27.5 -5q-40 0 -74.5 3.5t-78.5 12.5t-80 28.5t-69.5 49t-56.5 77t-32 108.5l-33 211q-18 120 -139 120h-70v-550 q0 -12 -7 -18.5t-16 -6.5h-342q-21 0 -26.5 8.5t-5.5 26.5z" />
<glyph unicode="&#x41b;" horiz-adv-x="1292" d="M-23 236q0 21 21 28l37 8q32 7 50.5 12t45 18.5t45.5 33.5q17 17 30.5 44.5t23 67.5t16 78.5t10.5 94.5t6.5 98t3 106.5t1 101.5t0 102t-0.5 91v244q0 18 11 29.5t32 11.5h832q41 0 41 -41v-1327q0 -15 -1 -21.5t-8 -11t-22 -4.5h-317q-23 0 -30 7t-7 28v1046h-176v-116 q0 -251 -15 -420q-6 -82 -17 -146t-46.5 -150t-91.5 -143q-69 -69 -177 -105t-178 -36q-31 0 -39 19l-77 245q0 1 -1.5 3.5t-1.5 3.5z" />
<glyph unicode="&#x41c;" horiz-adv-x="1497" d="M92 33l84 1331q2 26 9.5 33.5t33.5 7.5h316q24 0 32 -5t15 -28l125 -401q15 -51 49 -195q12 51 55 193l131 403q8 23 14 28t31 5h303q25 0 33.5 -7.5t9.5 -33.5l74 -1319v-12q0 -19 -8 -26t-33 -7h-297q-28 0 -35.5 8t-7.5 35l-6 465q0 46 6 177.5t12 195.5 q-15 -58 -49 -179.5t-39 -140.5l-65 -239q-6 -24 -13.5 -28.5t-33.5 -4.5h-183q-26 0 -33.5 5t-13.5 30l-59 237q-7 32 -78 320q8 -123 8 -373l-4 -465q0 -28 -7.5 -35.5t-33.5 -7.5h-301q-24 0 -32.5 7t-8.5 26z" />
<glyph unicode="&#x41d;" horiz-adv-x="1282" d="M111 43v1321q0 27 6.5 34t34.5 7h313q27 0 35 -7.5t8 -33.5v-483h266v483q0 27 6.5 34t34.5 7h313q29 0 36 -7t7 -34v-1321q0 -29 -7 -36t-36 -7h-313q-29 0 -35 6.5t-6 36.5v514h-266v-514q0 -28 -8 -35.5t-35 -7.5h-313q-29 0 -35 6.5t-6 36.5z" />
<glyph unicode="&#x41e;" horiz-adv-x="1286" d="M76 702q0 397 170 580q146 158 397 158t397 -158q170 -183 170 -580q0 -396 -170 -579q-146 -158 -397 -158t-397 158q-170 183 -170 579zM477 702q0 -307 90 -407q32 -35 76 -35q43 0 75.5 34t49 81t26.5 113t12.5 114t2.5 100q0 318 -90 408q-35 35 -76 35 q-51 0 -86.5 -45t-51.5 -119.5t-22 -140.5t-6 -138z" />
<glyph unicode="&#x41f;" horiz-adv-x="1251" d="M111 43v1321q0 27 6.5 34t34.5 7h946q29 0 36 -7t7 -34v-1321q0 -29 -7 -36t-36 -7h-314q-29 0 -35 6.5t-6 36.5v1038h-235v-1038q0 -28 -8 -35.5t-35 -7.5h-313q-29 0 -35 6.5t-6 36.5z" />
<glyph unicode="&#x420;" horiz-adv-x="1138" d="M111 43v1321q0 29 6.5 35t36.5 6h403q154 0 244 -21t153 -75q60 -52 94.5 -135.5t34.5 -174.5q0 -214 -140 -344.5t-370 -130.5h-63v-481q0 -28 -8 -35.5t-35 -7.5h-313q-29 0 -36 7t-7 36zM510 823h47q94 0 131 35t37 121q0 76 -39 107.5t-119 31.5h-57v-295z" />
<glyph unicode="&#x421;" d="M76 717q0 191 39 325t131 230q157 168 403 168q99 0 204.5 -35t174.5 -94q25 -19 25 -37q0 -3 -4 -19l-99 -235q-8 -16 -22 -16q-5 0 -17 4q-16 8 -67.5 39t-96.5 49t-88 18q-30 0 -55.5 -10.5t-49 -36t-40.5 -65t-27 -102t-10 -142.5q0 -467 211 -467q44 0 90 15.5 t75 33.5t52.5 33.5t28.5 15.5q9 0 18 -18l101 -234q4 -8 4 -20q0 -38 -73 -75t-164.5 -57t-157.5 -20q-291 0 -438.5 198t-147.5 554z" />
<glyph unicode="&#x422;" horiz-adv-x="1050" d="M25 1108v256q0 27 7 34t36 7h962q23 0 31 -5.5t8 -19.5t-2 -24l-47 -256q-5 -22 -12.5 -28.5t-30.5 -6.5h-248v-1022q0 -30 -6 -36.5t-35 -6.5h-313q-29 0 -36 7t-7 36v1022h-264q-29 0 -36 7t-7 36z" />
<glyph unicode="&#x423;" horiz-adv-x="1165" d="M10 1378q0 22 60 25l292 16q6 0 17 1t14 1q13 0 21.5 -8t15.5 -33l105 -389q26 -99 73 -293h10q17 80 32.5 148.5t23.5 103.5t12 56l76 370q6 27 13 36t24 9l313 -16q43 -4 43 -25q0 -3 -8 -34l-254 -938q-31 -114 -71.5 -196t-81.5 -129t-94.5 -74.5t-100 -35.5 t-107.5 -8q-140 0 -262 55q-55 28 -55 46q0 4 4 16l76 227q4 8 12 8q4 0 32 -13.5t71 -27.5t85 -14q67 0 103 31.5t53 103.5l14 60h-198q-18 0 -25 18l-328 868q-10 30 -10 35z" />
<glyph unicode="&#x424;" horiz-adv-x="1601" d="M61 754q0 276 129 409q131 135 379 135h33v183q0 20 6.5 27.5t28.5 7.5h332q16 0 23 -5.5t7 -21.5v-191h33q248 0 379 -135q129 -133 129 -409t-129 -410q-131 -135 -383 -135h-29v-178q0 -19 -5.5 -25t-24.5 -6h-334q-19 0 -26 7.5t-7 25.5v176h-29q-252 0 -383 135 q-129 134 -129 410zM406 752q0 -142 38 -211.5t140 -69.5h32v565h-26q-66 0 -104 -23.5t-59 -86t-21 -174.5zM985 471h33q48 0 82 17.5t52.5 42.5t28.5 66t12.5 74.5t2.5 80.5q0 49 -2.5 83t-13.5 75t-30 66.5t-54 42.5t-84 17h-27v-565z" />
<glyph unicode="&#x425;" horiz-adv-x="1275" d="M12 33q0 12 13 35l391 675l-346 570q-13 19 -13 30q0 22 37 27l328 55q4 1 11 2t11 2t7 1q7 0 11.5 -5.5t12.5 -23.5l123 -271q33 -73 41 -104q16 56 35 104l112 275q7 17 13.5 23t15.5 6q5 0 25 -4l325 -60q35 -5 35 -22q0 -12 -12 -33l-324 -576l393 -682 q15 -26 15 -32q0 -20 -37 -23l-338 -31q-5 0 -13 -1t-10 -1q-16 0 -28 25l-170 348q-9 21 -35 100q-12 -54 -37 -102l-172 -344q-11 -27 -24 -27q-5 0 -29 4l-332 37q-35 3 -35 23z" />
<glyph unicode="&#x426;" horiz-adv-x="1294" d="M111 27v1347q0 18 7 24.5t25 6.5h334q31 0 31 -25v-1056h246v1050q0 31 28 31h344q25 0 25 -25v-1056h92q41 0 41 -41v-592q0 -25 -31 -25h-276q-18 0 -25.5 6.5t-7.5 24.5v303h-807q-26 0 -26 27z" />
<glyph unicode="&#x427;" horiz-adv-x="1247" d="M82 864v508q0 15 6 23t10.5 9t12.5 1h342q26 0 26 -27v-446q0 -158 133 -158q66 0 127 33v565q0 15 5.5 23t10.5 9t15 1h334q14 0 22 -3.5t9.5 -7.5t1.5 -10v-6v-1358q0 -6 -1.5 -10t-9 -7t-22.5 -3h-336q-29 0 -29 31v499q-109 -53 -252 -53q-196 0 -301 96 q-36 32 -58.5 68t-31.5 77t-11.5 71t-2.5 75z" />
<glyph unicode="&#x428;" horiz-adv-x="1839" d="M111 25v1349q0 31 28 31h336q25 0 25 -25v-1056h225v1052q0 29 27 29h340q9 0 15.5 -6.5t6.5 -18.5v-1056h225v1052q0 29 27 29h338q25 0 25 -25v-1343q0 -37 -37 -37h-1553q-14 0 -21 7.5t-7 17.5z" />
<glyph unicode="&#x429;" horiz-adv-x="1871" d="M111 25v1349q0 31 28 31h336q25 0 25 -25v-1056h225v1052q0 29 27 29h340q9 0 15.5 -6.5t6.5 -18.5v-1056h225v1052q0 29 27 29h338q25 0 25 -25v-1056h92q41 0 41 -41v-588q0 -29 -23 -29h-289q-28 0 -28 29v305h-1383q-14 0 -21 7.5t-7 17.5z" />
<glyph unicode="&#x42a;" horiz-adv-x="1439" d="M0 1098l51 282q4 25 37 25h633q15 0 22.5 -5t9 -11.5t1.5 -18.5v-491h153q243 0 361 -113q110 -108 110 -311q0 -71 -12 -131t-31.5 -104t-50 -78.5t-61 -57.5t-72 -39t-75 -24.5t-77.5 -13.5t-73 -6t-68 -1h-448q-41 0 -41 41v1024h-338q-14 0 -22.5 9.5t-8.5 23.5z M754 297h63q90 0 139.5 34.5t49.5 119.5q0 157 -162 157h-90v-311z" />
<glyph unicode="&#x42b;" horiz-adv-x="1738" d="M111 41v1333q0 31 36 31h322q27 0 27 -29v-497h141q236 0 354 -109q117 -108 117 -307q0 -94 -20 -168t-49.5 -122t-77 -82.5t-89 -51.5t-100.5 -26.5t-95 -11t-89 -1.5h-436q-24 0 -32.5 9.5t-8.5 31.5zM496 297h63q90 0 139.5 34.5t49.5 119.5q0 87 -49 122t-148 35 h-55v-311zM1231 27v1353q0 10 7.5 17.5t16.5 7.5h347q11 0 18.5 -9t7.5 -22v-1339q0 -35 -26 -35h-347q-24 0 -24 27z" />
<glyph unicode="&#x42c;" horiz-adv-x="1181" d="M111 41v1333q0 31 36 31h322q27 0 27 -29v-497h153q243 0 361 -113q110 -108 110 -311q0 -71 -12 -131t-31.5 -104t-50 -78.5t-61 -57.5t-72 -39t-75 -24.5t-77.5 -13.5t-73 -6t-68 -1h-448q-41 0 -41 41zM496 297h63q189 0 189 149q0 162 -162 162h-90v-311z" />
<glyph unicode="&#x42d;" d="M61 129q0 3 5 18l94 201q8 8 14 8q10 0 25 -10l28 -20q88 -64 189 -64q57 0 100 27t67 72t35 95t11 105h-314q-28 0 -28 41v225q0 33 30 33h314q0 28 -3.5 58.5t-16 72.5t-33 74t-59.5 55t-91 23q-51 0 -107 -23.5t-91.5 -47t-36.5 -23.5q-17 0 -21 12l-96 184 q-4 6 -4 19q0 36 68 78t164 70t173 28q228 0 369 -137q60 -59 100 -136.5t56.5 -162.5t22 -148.5t5.5 -140.5q0 -431 -182 -613q-139 -137 -389 -137q-141 0 -244 43q-55 23 -104.5 57t-49.5 64z" />
<glyph unicode="&#x42e;" horiz-adv-x="1841" d="M111 31v1343q0 18 7 24.5t25 6.5h338q27 0 27 -25v-506h143q19 285 166 429q139 137 381 137q241 0 383 -137q184 -178 184 -601q0 -422 -184 -600q-142 -137 -383 -137q-237 0 -379 137q-159 154 -168 457h-143v-534q0 -25 -31 -25h-338q-28 0 -28 31zM1034 705 q0 -443 166 -443q45 0 76 31q88 88 88 412q0 440 -164 440q-36 0 -63.5 -19t-52 -65t-37.5 -136t-13 -220z" />
<glyph unicode="&#x42f;" horiz-adv-x="1247" d="M-2 221q0 12 9 22t22 13l26 6q32 8 52.5 19t32 29t14.5 27t10 34l26 104q15 64 55 121.5t111 85.5v4q-69 19 -118.5 56t-74 83.5t-35.5 91.5t-11 93q0 74 19 135t49 101t74 70.5t87 47t94.5 26t89.5 12.5t80 3h486q14 0 23 -3.5t12.5 -10t4.5 -12.5t1 -15v-1339 q0 -13 -7.5 -19t-33.5 -6h-330q-15 0 -21 8t-6 35v496h-55q-67 0 -100.5 -31.5t-44.5 -93.5l-29 -148q-11 -65 -28.5 -110.5t-55.5 -85.5q-51 -56 -136.5 -80.5t-164.5 -24.5q-32 0 -42 6.5t-15 24.5l-68 211q-2 4 -2 14zM494 973q0 -148 143 -148h102v293h-98 q-21 0 -37 -1.5t-38 -9.5t-36.5 -22.5t-25 -43t-10.5 -68.5z" />
<glyph unicode="&#x430;" horiz-adv-x="1071" d="M68 297q0 84 31.5 148t82.5 103t124 64t146.5 34t159.5 9v60q0 32 -22.5 46.5t-95.5 14.5q-92 0 -246 -63q-6 -4 -17 -4q-13 0 -18 16l-74 203l-4 16q0 10 27 25q140 78 379 78q413 0 413 -353v-372q0 -21 1 -40t2 -34.5t3.5 -32t4 -27t5.5 -24.5l6 -21t6.5 -20t6 -17 t6.5 -16.5t6 -15.5q5 -20 5 -21q0 -9 -15 -14l-219 -64q-18 -6 -39 -6q-19 0 -30 16.5t-32 65.5q-5 11 -7 17q-120 -97 -244 -97q-166 0 -259 87t-93 239zM385 311q0 -51 28.5 -80.5t69.5 -29.5q64 0 129 65v174q-123 0 -175 -33.5t-52 -95.5z" />
<glyph unicode="&#x431;" horiz-adv-x="1150" d="M82 715q0 70 2.5 120t13 115.5t28.5 115t52 106.5t81 102.5t117 91t159 82.5l372 158q12 4 21 4q20 0 30 -19l82 -209q2 -4 2 -14q0 -26 -28 -37l-340 -131q-181 -70 -258 -147q-84 -84 -84 -201v-10h12q99 157 311 157q187 0 297 -112q131 -133 131 -381 q0 -257 -141 -402q-137 -139 -371 -139q-224 0 -350 131q-34 35 -58.5 77t-39.5 95.5t-23.5 97t-12.5 114t-4.5 112t-0.5 123.5zM444 496q0 -136 25 -199q36 -82 113 -82q43 0 71.5 22t42 63t18.5 83t5 98q0 128 -29 193q-32 76 -108 76q-138 0 -138 -254z" />
<glyph unicode="&#x432;" horiz-adv-x="1116" d="M102 29v954q0 18 5 23.5t24 5.5h469q124 0 187 -6.5t110 -32.5q117 -65 117 -215q0 -28 -5.5 -54.5t-20 -61t-47.5 -62.5t-81 -43q55 -13 93.5 -41t57 -63t26 -66.5t7.5 -63.5q0 -64 -14.5 -114.5t-60.5 -92.5q-103 -96 -367 -96h-471q-18 0 -23.5 5t-5.5 24zM455 219 h123q56 0 83 28t27 68q0 50 -34.5 73.5t-80.5 23.5h-118v-193zM455 616h108q101 0 101 93q0 42 -30 63t-65 21h-114v-177z" />
<glyph unicode="&#x433;" horiz-adv-x="882" d="M102 18v971q0 23 23 23h694q23 0 23 -23l-33 -223q-3 -25 -14 -35t-37 -10h-287v-694q0 -27 -22 -27h-328q-19 0 -19 18z" />
<glyph unicode="&#x434;" horiz-adv-x="1177" d="M0 221q0 10 0.5 15t5.5 9.5t14 4.5h89q81 142 100 287q14 98 14 348v98q0 18 5 23.5t24 5.5h760q17 0 22.5 -6t5.5 -23v-733h97q20 0 20 -25v-483q0 -18 -5 -23.5t-24 -5.5h-249q-17 0 -23 6t-6 23v258h-543v-258q0 -18 -4.5 -23.5t-23.5 -5.5h-250q-17 0 -23 6t-6 23 v479zM440 250h260v512h-174v-68q0 -261 -86 -444z" />
<glyph unicode="&#x435;" horiz-adv-x="1093" d="M68 498q0 158 59.5 281.5t174.5 195.5t269 72q238 0 349.5 -149t111.5 -439q0 -19 -7.5 -24t-25.5 -5h-579q9 -105 51.5 -152t120.5 -47q58 0 107.5 11.5t78.5 24.5t78 40q13 8 23 8q13 0 26 -22l92 -172q7 -10 7 -17q0 -10 -21 -22q-173 -117 -401 -117 q-251 0 -382.5 140t-131.5 393zM420 649h266q-6 97 -35.5 134.5t-91.5 37.5q-64 0 -94 -37.5t-45 -134.5z" />
<glyph unicode="&#x436;" horiz-adv-x="1560" d="M20 193q0 28 29 34l29 4q10 1 18.5 3.5t14.5 5t12 7t9.5 7.5t7.5 9l6 9t5 10.5t4 10.5t3.5 11t3.5 11l16 56q40 131 146 157v7q-99 20 -121 118l-13 49q-7 26 -15 42t-22.5 24.5t-24 11t-32.5 6.5l-24 5q-27 4 -27 28q0 8 2 12l49 191q7 25 54 25q129 0 199 -59.5 t91 -153.5l15 -66q10 -56 39 -80t84 -24h38v321q0 7 2 11.5t3 6.5t7 4t7 2t10 1l287 32q12 0 12 -14v-364h39q55 0 84 24t39 80l14 66q21 94 91.5 153.5t199.5 59.5q46 0 53 -25l49 -191q3 -6 3 -12q0 -24 -27 -28l-25 -5q-23 -4 -32.5 -6.5t-24 -11t-22.5 -24.5t-15 -42 l-12 -49q-22 -98 -121 -118v-7q105 -26 145 -157l17 -56q1 -3 3.5 -11t3.5 -11t4 -10.5t5 -10.5l6 -9t7.5 -9t9.5 -7.5t12 -7t14.5 -5t18.5 -3.5l28 -4q29 -6 29 -34l-41 -197q-4 -20 -16.5 -25.5t-38.5 -5.5q-279 0 -332 228l-18 88q-13 56 -39 84t-78 28h-33v-377 q0 -10 -3 -13t-11 -3h-295q-19 0 -19 27v366h-32q-52 0 -78 -28t-39 -84l-18 -88q-53 -228 -332 -228q-26 0 -39 5.5t-17 25.5z" />
<glyph unicode="&#x437;" horiz-adv-x="888" d="M31 104q0 5 4 17l63 143q6 15 21 15q11 0 44 -19t82.5 -38t98.5 -19q23 0 43.5 3.5t44.5 13.5t38.5 32.5t14.5 54.5q0 26 -7.5 44.5t-19 28.5t-32 15t-39.5 6.5t-49 1.5h-78q-29 0 -29 29v162q0 17 6 23t23 6h76q133 0 133 88q0 98 -125 98q-69 0 -147 -43l-41 -23 q-20 -10 -29 -10t-12 8l-64 148q-4 12 -4 14q0 19 23 37q64 57 159.5 82t196.5 25q39 0 84 -7t101 -27.5t100 -52t74 -86.5t30 -126q0 -73 -37 -133.5t-116 -86.5v-6q90 -26 133 -93.5t43 -145.5q0 -76 -30.5 -135t-75.5 -92.5t-104 -55t-108.5 -28.5t-97.5 -7 q-99 0 -192 23.5t-146 55.5t-53 60z" />
<glyph unicode="&#x438;" horiz-adv-x="1198" d="M102 29v964q0 17 29 21l295 33q12 0 12 -15v-395q0 -79 -8 -197h6q39 102 107 217l178 314q14 24 23.5 31t33.5 10l301 35q17 0 17 -25v-1010q0 -12 -17 -12h-301q-11 0 -14.5 4.5t-3.5 22.5v356q0 83 10 190h-8q-35 -93 -117 -241l-168 -312q-12 -20 -33 -20h-313 q-18 0 -23.5 5t-5.5 24z" />
<glyph unicode="&#x439;" horiz-adv-x="1198" d="M102 29v964q0 17 29 21l295 33q12 0 12 -15v-395q0 -79 -8 -197h6q39 102 107 217l178 314q14 24 23.5 31t33.5 10l301 35q17 0 17 -25v-1010q0 -12 -17 -12h-301q-11 0 -14.5 4.5t-3.5 22.5v356q0 83 10 190h-8q-35 -93 -117 -241l-168 -312q-12 -20 -33 -20h-313 q-18 0 -23.5 5t-5.5 24zM252 1417q0 13 4.5 21.5t8.5 11t7 2.5l179 18q3 0 8 1.5t8 1.5q11 0 17 -15.5t11.5 -37.5t16.5 -44t40 -37.5t75 -15.5q47 0 75.5 23.5t37 51.5t17.5 51.5t21 23.5q3 0 8.5 -1.5t8.5 -1.5l178 -18q4 0 8 -2.5t8 -11t4 -21.5q0 -67 -39 -127 q-102 -162 -336 -162q-94 0 -165.5 26t-108 61t-59 79.5t-28 73t-5.5 49.5z" />
<glyph unicode="&#x43a;" horiz-adv-x="1120" d="M102 27v956q0 16 6 20.5t23 6.5l299 30q24 4 27 4q14 0 14 -24v-356h74q49 0 73.5 29.5t36.5 82.5l17 70q21 80 74 131t112.5 68.5t130.5 17.5q44 0 51 -25l47 -192q0 -2 1.5 -5t1.5 -5q0 -11 -6.5 -19.5t-16.5 -9.5l-37 -6q-20 -4 -33.5 -10.5t-22.5 -19t-13 -21 t-11 -27.5l-24 -74q-29 -91 -113 -114v-7q47 -14 80.5 -52t46.5 -95l14 -55q6 -24 13.5 -41.5t13.5 -26.5t16.5 -15t15 -7t17.5 -2.5t17 -2.5l24 -4q31 -5 31 -34q0 -11 -2 -17l-41 -180q-3 -18 -14.5 -24.5t-47.5 -6.5q-105 0 -159 17q-145 45 -181 217l-18 94 q-11 52 -35 76t-72 24h-61v-364q0 -22 -2.5 -25.5t-17.5 -3.5h-318q-12 0 -17.5 1t-9.5 7t-4 19z" />
<glyph unicode="&#x43b;" horiz-adv-x="1183" d="M-12 193q0 12 6 22.5t16 11.5l23 4q66 13 98 39t51 73t25.5 122.5t8 128t-0.5 154t-2 135.5v100q0 18 5 23.5t24 5.5h813q17 0 21.5 -5.5t4.5 -17.5v-12v-961q0 -12 -4 -14t-26 -2h-320q-9 0 -13.5 5t-4.5 22v714h-174l-2 -82q-4 -206 -14 -283q-27 -203 -130 -302 q-47 -45 -113 -71t-107.5 -32t-80.5 -6q-14 0 -23 2.5t-14 9.5t-7 12t-5 17l-53 178q0 1 -1 4t-1 5z" />
<glyph unicode="&#x43c;" horiz-adv-x="1380" d="M82 25l86 956q1 21 9 26t30 5h305q34 0 41 -23l82 -276q33 -110 51 -211h8q5 27 11.5 55t11.5 45.5t13.5 47.5t12.5 46l86 293q7 23 41 23h306q22 0 29.5 -5t8.5 -26l84 -956q0 -25 -26 -25h-279q-15 0 -21.5 1t-12 8t-5.5 22l-10 561h-10q-23 -110 -60 -236l-57 -198 q-5 -17 -12 -22t-29 -5h-174q-22 0 -29 5t-12 22l-61 213q-44 148 -58 221h-8l-8 -561q0 -15 -5.5 -22t-12 -8t-21.5 -1h-278q-27 0 -27 25z" />
<glyph unicode="&#x43d;" horiz-adv-x="1146" d="M102 27v958q0 12 4.5 16.5t16.5 6.5l336 34q12 0 12 -14v-375h205v336q0 19 20 19l338 34q10 0 10 -16v-1008q0 -11 -2 -14.5t-12 -3.5h-332q-14 0 -18 6t-4 21v364h-205v-375q0 -10 -3 -13t-11 -3h-330q-15 0 -20 6t-5 21z" />
<glyph unicode="&#x43e;" horiz-adv-x="1138" d="M68 508q0 244 133 391.5t372 147.5q238 0 368 -147.5t130 -395.5q0 -241 -133.5 -390t-366.5 -149q-242 0 -372.5 146t-130.5 397zM432 504q0 -162 34 -225.5t103 -63.5t103.5 64.5t34.5 226.5t-34.5 226.5t-103.5 64.5t-103 -64t-34 -229z" />
<glyph unicode="&#x43f;" horiz-adv-x="1136" d="M102 27v956q0 17 6 23t23 6h877q26 0 26 -27v-956q0 -5 1 -11.5t1 -7.5q0 -6 -6 -8t-26 -2h-320q-9 0 -13.5 5t-4.5 22v694h-195v-692q0 -5 1 -12t1 -9q0 -6 -5.5 -7t-27.5 -1h-319q-9 0 -14 5t-5 22z" />
<glyph unicode="&#x440;" horiz-adv-x="1144" d="M72 954q0 12 16 15l238 71q24 7 43 7q8 0 15.5 -6.5t15 -21.5t12 -27t12.5 -34q57 48 113 68.5t125 20.5q207 0 311 -144t104 -395q0 -271 -106 -407t-332 -136q-66 0 -158 41v-364q0 -20 -4 -25.5t-18 -7.5l-330 -39q-8 0 -11.5 3.5t-4 9.5t-0.5 22v1110q0 67 -20.5 149 t-20.5 90zM481 215q47 -20 107 -20q47 0 74.5 23.5t43 92t15.5 191.5q0 286 -117 286q-61 0 -123 -49v-524z" />
<glyph unicode="&#x441;" horiz-adv-x="962" d="M68 489q0 255 137.5 406.5t386.5 151.5q179 0 321 -105q21 -15 21 -29q0 -4 -8 -28l-78 -180q-10 -19 -19 -19q-7 0 -24 10q-122 76 -209 76q-69 0 -116.5 -64.5t-47.5 -207.5q0 -138 47 -199t119 -61t176 61q21 12 33 12q15 0 27 -24l77 -152q9 -18 9 -24 q0 -32 -43.5 -61t-104.5 -47t-119.5 -29t-93.5 -11q-239 0 -365 140t-126 384z" />
<glyph unicode="&#x442;" horiz-adv-x="917" d="M20 770v213q0 17 6 23t23 6h836q33 0 33 -21l-31 -221q0 -8 -7.5 -18.5t-23.5 -10.5h-215v-712q0 -18 -5 -23.5t-24 -5.5h-311q-18 0 -23.5 5t-5.5 24v712h-223q-17 0 -23 6t-6 23z" />
<glyph unicode="&#x443;" horiz-adv-x="1116" d="M23 977q0 15 32 18l340 31q13 0 18.5 -5t8.5 -22l125 -505q11 -47 35 -250q2 16 9.5 78t14 103.5t12.5 68.5l113 505q3 17 7.5 22t15.5 5l317 -31q35 -3 35 -18q0 -3 -2.5 -11t-3.5 -10l-256 -874q-7 -23 -21 -74.5t-21.5 -77t-23.5 -72.5t-28.5 -72.5t-34 -63.5 t-42.5 -59t-52.5 -46.5t-66 -38.5t-79.5 -22t-96 -9q-37 0 -115.5 17t-153.5 49.5t-75 67.5q0 10 6 22l98 195q6 14 21 14q1 0 32.5 -17.5t76 -35t77.5 -17.5q47 0 73.5 14.5t39.5 57.5l24 86h-69q-21 0 -26.5 3.5t-12.5 23.5l-346 925q-6 15 -6 25z" />
<glyph unicode="&#x444;" horiz-adv-x="1568" d="M68 514q0 45 2 85t10 96t21.5 102t39 94.5t60 81t86.5 53.5t116 21q107 0 197 -66v414q0 9 0.5 13t4.5 8t13 5l334 35q17 0 17 -20v-455q92 66 198 66q61 0 111.5 -20.5t84.5 -53t60 -79.5t40.5 -93.5t23 -101.5t11.5 -98t3 -87q0 -51 -1.5 -88t-8.5 -98.5t-20.5 -106 t-40.5 -96t-64 -84t-95.5 -54.5t-131.5 -22q-100 0 -170 45v-405q0 -9 -1 -13.5t-5 -8t-13 -3.5h-325q-15 0 -20 6t-5 21v403q-70 -45 -168 -45q-74 0 -132.5 22t-96 54.5t-64.5 84t-40.5 95.5t-21 106.5t-8.5 98.5t-1 88zM416 489q0 -156 16 -204q23 -86 96 -86q34 0 82 24 v522q-40 43 -88 43q-19 0 -35 -8t-27 -25.5t-19 -34t-12.5 -44.5t-7.5 -46t-4 -48.5t-1 -42.5v-37v-13zM958 223q48 -24 80 -24q45 0 67.5 19.5t35 83.5t12.5 190q0 94 -7 154t-22 90.5t-32.5 41t-44.5 10.5q-46 0 -89 -43v-522z" />
<glyph unicode="&#x445;" horiz-adv-x="1150" d="M23 53q0 12 12 27l317 430l-286 405q-13 19 -13 29q0 15 29 21l324 57q8 2 20 2q13 0 25 -18l92 -179q5 -12 16.5 -41t15.5 -38q24 56 39 79l109 179q10 18 22 18q5 0 25 -4l320 -66q28 -6 28 -22q0 -12 -12 -27l-301 -395l319 -457q11 -18 11 -26q0 -20 -27 -23 l-330 -35q-4 0 -10.5 -1t-9.5 -1q-17 0 -25 19l-117 211q-9 16 -16 32.5t-13 32.5t-9 23q-1 -1 -13.5 -34.5t-23.5 -53.5l-123 -211q-11 -17 -23 -17q-10 0 -20 2l-324 60q-28 6 -28 22z" />
<glyph unicode="&#x446;" horiz-adv-x="1161" d="M102 29v960q0 19 19 19l338 34q12 0 12 -14v-758h184v719q0 16 17 19l340 34q12 0 12 -14v-758h117q20 0 20 -24v-504q0 -18 -4.5 -23.5t-23.5 -5.5h-250q-17 0 -23 6t-6 23v258h-723q-17 0 -23 6t-6 23z" />
<glyph unicode="&#x447;" horiz-adv-x="1103" d="M82 612v375q0 7 1.5 11t8 7.5t19.5 4.5l299 30q12 2 28 2q13 0 13 -16v-371q0 -100 94 -100q50 0 88 23v401v8q0 6 1.5 9.5t8 7.5t19.5 6l299 30q12 2 28 2q12 0 12 -22v-991q0 -5 1.5 -11t1.5 -8q0 -10 -33 -10h-320q-9 0 -13.5 5t-4.5 22v317q-108 -43 -238 -43 q-155 0 -235 80q-78 78 -78 231z" />
<glyph unicode="&#x448;" horiz-adv-x="1634" d="M102 29v956q0 21 17 23l332 34q12 0 12 -14v-758h174v715q0 21 16 23l330 34q14 0 14 -18v-754h174v719q0 17 29 21l320 32q12 0 12 -14v-999q0 -18 -5 -23.5t-24 -5.5h-1372q-17 0 -23 6t-6 23z" />
<glyph unicode="&#x449;" horiz-adv-x="1673" d="M102 29v956q0 21 17 23l332 34q12 0 12 -14v-758h174v715q0 21 16 23l330 34q14 0 14 -18v-754h174v719q0 17 29 21l318 32q10 0 12 -5t2 -17v-750h117q15 0 19.5 -5t4.5 -23v-500q0 -18 -4.5 -23.5t-23.5 -5.5h-250q-17 0 -23 6t-6 23v258h-1235q-17 0 -23 6t-6 23z" />
<glyph unicode="&#x44a;" horiz-adv-x="1273" d="M10 762l35 221q4 29 31 29h561q26 0 32.5 -4t6.5 -25v-311h153q218 0 316 -94q88 -83 88 -242q0 -156 -82 -238q-96 -98 -309 -98h-498q-18 0 -23.5 5t-5.5 24v712h-278q-27 0 -27 21zM676 219h94q23 0 44 4.5t43 15.5t35 35t13 58q0 63 -43 92t-94 29h-92v-234z" />
<glyph unicode="&#x44b;" horiz-adv-x="1558" d="M102 25v964q0 16 17 19l323 34h7q10 0 12 -5t2 -17v-348h123q98 0 178 -20t143 -81q54 -50 72 -107t18 -128q0 -158 -84 -242q-41 -41 -101 -63t-103.5 -26.5t-102.5 -4.5h-479q-25 0 -25 25zM463 219h96q35 0 60.5 9.5t37 20.5t18 30t7 28t0.5 25q0 23 -3.5 39t-16 37.5 t-43 33t-78.5 11.5h-78v-234zM1087 29v960q0 10 3.5 13.5t13.5 5.5l340 34q12 0 12 -14v-999q0 -18 -5 -23.5t-24 -5.5h-311q-17 0 -23 6t-6 23z" />
<glyph unicode="&#x44c;" horiz-adv-x="1060" d="M102 29v960q0 16 17 19l323 34h7q10 0 12 -5t2 -17v-348h153q218 0 316 -94q88 -83 88 -242q0 -156 -82 -238q-96 -98 -309 -98h-498q-18 0 -23.5 5t-5.5 24zM463 219h94q23 0 44 4.5t43 15.5t35 35t13 58q0 63 -43 92t-94 29h-92v-234z" />
<glyph unicode="&#x44d;" horiz-adv-x="974" d="M68 106q0 11 6 23l73 145q9 15 21 15q10 0 22 -8q6 -3 25.5 -15.5t28.5 -18t28 -15t33 -13.5t33.5 -8t38.5 -4q70 0 118 48t48 144h-246q-17 0 -23 6t-6 23v166q0 17 6 23t23 6h240q0 76 -43.5 130t-116.5 54q-24 0 -45 -4t-40.5 -13.5t-30.5 -15.5t-30 -20t-24 -17 l-19 -12q-9 -6 -18 -6t-16 10l-76 145q-2 4 -2 15q0 32 55.5 69.5t139 63t157.5 25.5q90 0 163.5 -20.5t122.5 -53.5t85.5 -81t56.5 -95t32 -103.5t15.5 -99.5t3.5 -90q0 -273 -135 -410q-124 -129 -348 -129q-123 0 -239.5 45.5t-116.5 95.5z" />
<glyph unicode="&#x44e;" horiz-adv-x="1632" d="M102 29v956q0 21 17 23l332 34q12 0 12 -14v-373h125q17 159 121 263q129 129 348 129q43 0 83.5 -4.5t93 -18.5t97 -37.5t89 -65t75.5 -96.5t50.5 -137t19.5 -182t-20 -182.5t-51.5 -137.5t-76 -96.5t-89 -64.5t-96 -37.5t-90 -18.5t-77.5 -4q-225 0 -356 133 q-123 126 -123 308h-123v-377q0 -18 -5 -23.5t-24 -5.5h-303q-17 0 -23 6t-6 23zM926 499q-1 -284 137 -284t137 284v7v7q1 284 -137 284t-137 -284v-7v-7z" />
<glyph unicode="&#x44f;" horiz-adv-x="1128" d="M18 195q0 27 31 34l25 4q67 13 84 78l12 39q29 90 117 117v4q-57 17 -96 46.5t-57 65.5t-25 66.5t-7 63.5q0 131 76 207q32 32 73.5 52.5t91 28t79.5 9.5t78 2h497q18 0 23.5 -5t5.5 -24v-969q0 -14 -16 -14h-320q-15 0 -19.5 5.5t-4.5 21.5v333h-64q-47 0 -80 -29 t-43 -81l-18 -76q-14 -54 -41 -93.5t-58.5 -61.5t-74 -34.5t-78 -16t-80.5 -3.5t-51 23l-58 194q-2 4 -2 13zM446 692q0 -32 10 -54.5t22.5 -33t32.5 -16.5t31.5 -7t28.5 -1h95v213h-88q-57 0 -94.5 -23.5t-37.5 -77.5z" />
<glyph unicode="&#x451;" horiz-adv-x="1093" d="M68 498q0 158 59.5 281.5t174.5 195.5t269 72q238 0 349.5 -149t111.5 -439q0 -19 -7.5 -24t-25.5 -5h-579q9 -105 51.5 -152t120.5 -47q58 0 107.5 11.5t78.5 24.5t78 40q13 8 23 8q13 0 26 -22l92 -172q7 -10 7 -17q0 -10 -21 -22q-173 -117 -401 -117 q-251 0 -382.5 140t-131.5 393zM199 1294q0 66 48.5 114t114.5 48q67 0 114.5 -48t47.5 -114q0 -68 -47.5 -117t-114.5 -49q-66 0 -114.5 49.5t-48.5 116.5zM420 649h266q-6 97 -35.5 134.5t-91.5 37.5q-64 0 -94 -37.5t-45 -134.5zM600 1294q0 66 47.5 114t114.5 48 t115.5 -48t48.5 -114q0 -68 -48.5 -117t-115.5 -49t-114.5 49t-47.5 117z" />
<glyph unicode="&#x452;" horiz-adv-x="1212" d="M-41 1153v123q0 29 25 29h157v110q0 23 27 27l291 39q10 2 24 2q15 0 20 -8t5 -31v-139h268q25 0 25 -29v-123q0 -17 -6 -23t-23 -6h-264v-163q109 88 254 88q157 0 237 -80q113 -105 113 -447q0 -321 -70 -542q-46 -147 -131 -269t-166 -184q-15 -12 -26 -12 q-34 0 -86.5 34t-88.5 68.5t-36 40.5q0 9 16 29.5t39 48t55 89t58 140.5q31 90 40 182t9 218v122q0 90 -1.5 131t-9.5 90t-28 67t-53 18q-49 0 -125 -56v-719q0 -12 -5 -15t-18 -3h-319q-10 0 -14 0.5t-7.5 5t-3.5 14.5v1104h-153q-17 0 -23 6t-6 23z" />
<glyph unicode="&#x453;" horiz-adv-x="882" d="M102 18v971q0 23 23 23h694q23 0 23 -23l-33 -223q-3 -25 -14 -35t-37 -10h-287v-694q0 -27 -22 -27h-328q-19 0 -19 18zM137 1313q0 13 29 30l436 267q24 14 31 14q11 0 26 -31l113 -223q10 -20 10 -29q0 -17 -32 -28l-480 -183q-15 -6 -24 -6q-16 0 -31 29l-68 133 q-10 20 -10 27z" />
<glyph unicode="&#x454;" horiz-adv-x="972" d="M68 489q0 284 147 429q131 129 348 129q43 0 100 -10t111.5 -27.5t92.5 -45t38 -57.5q0 -4 -4 -16l-92 -166q-5 -10 -16 -10q-10 0 -21 8l-22 16q-23 17 -35.5 25.5t-46.5 20.5t-70 12q-47 0 -80.5 -17t-50 -45t-23 -55.5t-6.5 -58.5h232q17 0 22.5 -6t5.5 -23v-162 q0 -17 -5.5 -23t-22.5 -6h-238q0 -96 47.5 -141t112.5 -45q48 0 89.5 20t71 40t48.5 20q14 0 18 -12l76 -172q4 -12 4 -15q0 -8 -14 -22q-59 -54 -154.5 -81.5t-187.5 -27.5q-221 0 -338 117q-137 137 -137 407z" />
<glyph unicode="&#x455;" horiz-adv-x="962" d="M57 90q0 12 6 27l60 211q6 18 22 18q10 0 141.5 -53t182.5 -53q43 0 63.5 12.5t20.5 44.5q0 12 -5.5 22t-13.5 17t-25 15t-30 13t-39 14.5t-43 16.5q-126 50 -164 72q-106 63 -131 172q-8 38 -8 84q0 152 117.5 238t298.5 86q87 0 156 -14t101 -27.5t85 -42.5 q16 -8 16 -23q0 -10 -6 -22l-74 -195q-9 -18 -18 -18q-4 0 -16 4q-5 2 -32 13.5t-39 16t-37.5 14t-42 13.5t-37.5 8t-38 4q-90 0 -90 -51q0 -10 2.5 -18.5t9.5 -15.5t13.5 -12t20 -11t23 -10t29 -11t31.5 -12q141 -58 177 -78q107 -59 139 -149q18 -51 18 -115 q0 -162 -110.5 -246t-290.5 -84q-103 0 -208 20.5t-170 50t-65 54.5z" />
<glyph unicode="&#x456;" horiz-adv-x="659" d="M37 748v233q0 20 5 25.5t24 5.5h454q20 0 24.5 -5t4.5 -26v-954q0 -19 -3 -23t-18 -4h-321q-20 0 -25.5 4t-5.5 23v694h-110q-19 0 -24 5t-5 22zM131 1350q0 89 63.5 153t157.5 64q92 0 155.5 -64.5t63.5 -152.5q-2 -90 -64.5 -156t-156.5 -66q-93 0 -156 66t-63 156z " />
<glyph unicode="&#x457;" horiz-adv-x="661" d="M0 1305q0 94 48.5 149t105.5 55q61 0 107 -54.5t46 -149.5t-46.5 -150t-106.5 -55q-57 0 -105.5 55.5t-48.5 149.5zM39 748v233q0 16 5.5 23.5t23.5 7.5h454q19 0 24 -5.5t5 -19.5v-6v-967q0 -14 -16 -14h-332q-15 0 -20 6t-5 21v694h-117q-14 0 -18 6t-4 21zM336 1305 q0 94 48 149t105 55q61 0 107.5 -54.5t46.5 -149.5t-46.5 -150t-107.5 -55q-57 0 -105 55.5t-48 149.5z" />
<glyph unicode="&#x458;" horiz-adv-x="673" d="M-143 -397q0 4 4 20l69 223q3 13 19 13q10 0 14 -2q9 -4 30.5 -12.5t29 -11.5t23.5 -8.5t25.5 -7t23 -3.5t26.5 -2q45 0 57 43t12 174v692h-110q-19 0 -24 4.5t-5 22.5v233q0 21 5 26t24 5h455q21 0 24.5 -4.5t3.5 -26.5v-952q0 -176 -18 -255t-78 -143 q-108 -114 -317 -114q-98 0 -195.5 29.5t-97.5 56.5zM145 1350q0 89 64 153t158 64q92 0 155.5 -64.5t63.5 -152.5q-2 -90 -64.5 -156t-156.5 -66q-93 0 -156.5 66t-63.5 156z" />
<glyph unicode="&#x459;" horiz-adv-x="1681" d="M-10 199q0 23 20 26l29 6q33 8 59 23t43 30.5t29.5 43.5t19 46.5t10.5 55t5 55t3 58.5q1 16 1 24q6 264 6 316v100q0 18 5 23.5t24 5.5h813q15 0 20.5 -5t5.5 -20v-325h154q216 0 315 -95q88 -83 88 -235q0 -153 -81 -234q-96 -98 -310 -98h-497q-18 0 -23.5 5t-5.5 24 v716h-182l-2 -86q1 -31 -0.5 -78t-1.5 -96.5t-9 -106.5t-23 -109t-43.5 -104t-70.5 -91q-114 -109 -297 -109q-14 0 -23 2.5t-14 9.5t-7 12t-5 17zM1083 219h95h5q18 0 29.5 0.5t33 6.5t34 17t23 34t10.5 55q0 110 -137 110h-93v-223z" />
<glyph unicode="&#x45a;" horiz-adv-x="1634" d="M102 27v962q0 12 4.5 16.5t16.5 6.5l336 35q12 0 12 -15v-364h205v319q0 23 16 25l332 35q12 0 12 -15v-364h154q210 0 315 -101q88 -83 88 -235t-82 -234q-96 -98 -309 -98h-497q-18 0 -23.5 5t-5.5 24v348h-205v-361q0 -10 -3 -13t-11 -3h-330q-15 0 -20 6t-5 21z M1036 219h94h5q18 0 29.5 0.5t33 6.5t34.5 17t23.5 34t10.5 55q0 31 -12 54t-28 34.5t-37.5 18.5t-35 8.5t-25.5 1.5h-92v-230z" />
<glyph unicode="&#x45b;" horiz-adv-x="1179" d="M-41 1153v123q0 29 25 29h157v110q0 23 27 27l291 39q10 2 24 2q15 0 20 -8t5 -31v-139h268q25 0 25 -29v-123q0 -17 -6 -23t-23 -6h-264v-166q111 89 252 89q61 0 110 -12.5t81.5 -32.5t57 -49t37.5 -57.5t21 -62.5t10 -59t2 -53v-701q0 -11 -3.5 -15.5t-14.5 -4.5h-330 q-11 0 -14.5 2.5t-3.5 11.5v678q0 23 -4.5 43t-23 39t-48.5 19q-63 0 -129 -56v-719q0 -12 -5 -15t-18 -3h-319q-10 0 -14 0.5t-7.5 5t-3.5 14.5v1104h-153q-17 0 -23 6t-6 23z" />
<glyph unicode="&#x45c;" horiz-adv-x="1120" d="M102 27v956q0 16 6 20.5t23 6.5l299 30q24 4 27 4q14 0 14 -24v-356h74q49 0 73.5 29.5t36.5 82.5l17 70q21 80 74 131t112.5 68.5t130.5 17.5q44 0 51 -25l47 -192q0 -2 1.5 -5t1.5 -5q0 -11 -6.5 -19.5t-16.5 -9.5l-37 -6q-20 -4 -33.5 -10.5t-22.5 -19t-13 -21 t-11 -27.5l-24 -74q-29 -91 -113 -114v-7q47 -14 80.5 -52t46.5 -95l14 -55q6 -24 13.5 -41.5t13.5 -26.5t16.5 -15t15 -7t17.5 -2.5t17 -2.5l24 -4q31 -5 31 -34q0 -11 -2 -17l-41 -180q-3 -18 -14.5 -24.5t-47.5 -6.5q-105 0 -159 17q-145 45 -181 217l-18 94 q-11 52 -35 76t-72 24h-61v-364q0 -22 -2.5 -25.5t-17.5 -3.5h-318q-12 0 -17.5 1t-9.5 7t-4 19zM281 1313q0 13 28 30l436 267q25 14 31 14q12 0 27 -31l112 -223q11 -22 11 -29q0 -17 -33 -28l-479 -183q-15 -6 -25 -6q-17 0 -31 29l-67 133q-10 20 -10 27z" />
<glyph unicode="&#x45e;" horiz-adv-x="1116" d="M23 977q0 15 32 18l340 31q13 0 18.5 -5t8.5 -22l125 -505q11 -47 35 -250q2 16 9.5 78t14 103.5t12.5 68.5l113 505q3 17 7.5 22t15.5 5l317 -31q35 -3 35 -18q0 -3 -2.5 -11t-3.5 -10l-256 -874q-7 -23 -21 -74.5t-21.5 -77t-23.5 -72.5t-28.5 -72.5t-34 -63.5 t-42.5 -59t-52.5 -46.5t-66 -38.5t-79.5 -22t-96 -9q-37 0 -115.5 17t-153.5 49.5t-75 67.5q0 10 6 22l98 195q6 14 21 14q1 0 32.5 -17.5t76 -35t77.5 -17.5q47 0 73.5 14.5t39.5 57.5l24 86h-69q-21 0 -26.5 3.5t-12.5 23.5l-346 925q-6 15 -6 25zM223 1434q0 29 25 32 l237 29q12 0 18.5 -19t9.5 -42.5t17 -42.5t39 -19q26 0 39.5 19t15.5 42.5t8 42.5t19 19l238 -31q22 -3 22 -26q0 -54 -20 -111t-58.5 -109.5t-106.5 -86t-153 -33.5q-83 0 -152 32.5t-111 83.5t-64.5 108.5t-22.5 111.5z" />
<glyph unicode="&#x45f;" horiz-adv-x="1136" d="M102 29v956q0 21 17 23l340 34q12 0 12 -14v-758h195v715q0 21 16 23l340 34q12 0 12 -16v-999q0 -27 -26 -27h-275v-299q0 -18 -4.5 -23.5t-23.5 -5.5h-271q-17 0 -22.5 6t-5.5 23v299h-275q-17 0 -23 6t-6 23z" />
<glyph unicode="&#x490;" horiz-adv-x="1026" d="M111 41v1323q0 24 9.5 32.5t31.5 8.5h505v301q0 33 29 33h293q16 0 21.5 -7t5.5 -22v-582q0 -43 -43 -43h-455v-1044q0 -24 -9.5 -32.5t-31.5 -8.5h-315q-41 0 -41 41z" />
<glyph unicode="&#x491;" horiz-adv-x="882" d="M102 14v13v954q0 20 4.5 25.5t14.5 5.5h424v260q0 26 22 26h256q19 0 24 -5.5t5 -18.5v-524q0 -29 -35 -29h-346v-701q0 -20 -31 -20h-307q-20 0 -25.5 3t-5.5 11z" />
<glyph unicode="&#x2000;" horiz-adv-x="1001" />
<glyph unicode="&#x2001;" horiz-adv-x="2003" />
<glyph unicode="&#x2002;" horiz-adv-x="1001" />
<glyph unicode="&#x2003;" horiz-adv-x="2003" />
<glyph unicode="&#x2004;" horiz-adv-x="667" />
<glyph unicode="&#x2005;" horiz-adv-x="500" />
<glyph unicode="&#x2006;" horiz-adv-x="333" />
<glyph unicode="&#x2007;" horiz-adv-x="333" />
<glyph unicode="&#x2008;" horiz-adv-x="250" />
<glyph unicode="&#x2009;" horiz-adv-x="400" />
<glyph unicode="&#x200a;" horiz-adv-x="111" />
<glyph unicode="&#x2010;" horiz-adv-x="894" d="M80 401v246q0 27 6.5 34t34.5 7h651q29 0 36 -7t7 -34v-246q0 -29 -6.5 -35t-36.5 -6h-651q-29 0 -35 6t-6 35z" />
<glyph unicode="&#x2011;" horiz-adv-x="894" d="M80 401v246q0 27 6.5 34t34.5 7h651q29 0 36 -7t7 -34v-246q0 -29 -6.5 -35t-36.5 -6h-651q-29 0 -35 6t-6 35z" />
<glyph unicode="&#x2012;" horiz-adv-x="894" d="M80 401v246q0 27 6.5 34t34.5 7h651q29 0 36 -7t7 -34v-246q0 -29 -6.5 -35t-36.5 -6h-651q-29 0 -35 6t-6 35z" />
<glyph unicode="&#x2013;" horiz-adv-x="1200" d="M80 410v227q0 27 7.5 35t35.5 8h956q28 0 34.5 -7.5t6.5 -35.5v-227q0 -30 -6 -36.5t-35 -6.5h-956q-29 0 -36 7t-7 36z" />
<glyph unicode="&#x2014;" horiz-adv-x="1855" d="M80 410v229q0 27 7 34t36 7h1612q28 0 34.5 -7t6.5 -34v-229q0 -30 -6 -36.5t-35 -6.5h-1612q-29 0 -36 7t-7 36z" />
<glyph unicode="&#x2018;" horiz-adv-x="665" d="M51 961q0 10 10 30l224 459q13 27 26 27q8 0 29 -7l199 -43q19 -5 25.5 -9t6.5 -13q0 -3 -2.5 -13.5t-3.5 -15.5l-102 -403q-8 -33 -45 -33h-324q-43 0 -43 21z" />
<glyph unicode="&#x2019;" horiz-adv-x="632" d="M47 995q0 7 4 27l105 401q8 35 43 35h325q41 0 41 -22q0 -11 -10 -31q-154 -310 -223 -457q-10 -24 -27 -24q-5 0 -29 4l-196 41q-20 4 -26.5 9.5t-6.5 16.5z" />
<glyph unicode="&#x201c;" horiz-adv-x="1083" d="M51 961q0 10 10 30l224 459q13 27 26 27q8 0 29 -7l199 -43q19 -5 25.5 -9t6.5 -13q0 -3 -2.5 -13.5t-3.5 -15.5l-102 -403q-8 -33 -45 -33h-324q-43 0 -43 21zM537 961q0 10 10 30l223 459q14 27 27 27q7 0 28 -7l197 -43q20 -4 26.5 -9.5t6.5 -14.5q0 -7 -4 -27 l-105 -403q-4 -18 -14 -25.5t-29 -7.5h-325q-41 0 -41 21z" />
<glyph unicode="&#x201d;" horiz-adv-x="1087" d="M47 995q0 7 4 27l105 401q8 35 43 35h325q41 0 41 -22q0 -11 -10 -31q-154 -310 -223 -457q-10 -24 -27 -24q-5 0 -29 4l-196 41q-20 4 -26.5 9.5t-6.5 16.5zM530 993q0 4 3 14t4 15l102 401q8 35 45 35h324q43 0 43 -22q0 -9 -11 -31l-223 -457q-12 -24 -26 -24 q-5 0 -29 4l-199 41q-33 8 -33 24z" />
<glyph unicode="&#x201e;" horiz-adv-x="1087" d="M47 -207q0 7 4 27l105 401q4 18 14 25.5t29 7.5h325q41 0 41 -21q0 -10 -10 -30l-223 -457q-14 -29 -29 -29q-3 0 -12 3t-15 4l-196 43q-20 4 -26.5 9.5t-6.5 16.5zM530 -209q0 4 3 14t4 15l102 401q8 33 45 33h324q43 0 43 -21q0 -8 -11 -30l-223 -457q-15 -29 -29 -29 q-3 0 -11.5 3t-14.5 4l-199 43q-33 8 -33 24z" />
<glyph unicode="&#x2026;" horiz-adv-x="1923" d="M74 205q0 107 74.5 181.5t181.5 74.5t182.5 -74.5t75.5 -181.5t-75.5 -182.5t-182.5 -75.5t-181.5 75.5t-74.5 182.5zM705 205q0 107 75.5 181.5t182.5 74.5t181.5 -74.5t74.5 -181.5t-74.5 -182.5t-181.5 -75.5t-182.5 75.5t-75.5 182.5zM1337 205q0 107 74.5 181.5 t181.5 74.5t182.5 -74.5t75.5 -181.5t-75.5 -182.5t-182.5 -75.5t-181.5 75.5t-74.5 182.5z" />
<glyph unicode="&#x202f;" horiz-adv-x="400" />
<glyph unicode="&#x205f;" horiz-adv-x="500" />
<glyph unicode="&#x20ac;" horiz-adv-x="1150" d="M-2 504q0 6 2 10l39 107q0 1 2 6t2.5 6l2.5 5t3 4.5t3.5 3.5t4.5 3.5t5 1.5t7 1.5t9 0.5h65v82h-116q-29 0 -29 23q0 8 2 12l39 107q0 1 2 6t2.5 6l2.5 5t3 4.5t3.5 3.5t4.5 3.5t5 1.5t7 1.5t9 0.5h80q10 105 50 199t107.5 169t171.5 119t230 44q101 0 203.5 -35 t173.5 -94l12 -11q12 -12 12 -26q0 -7 -4 -19l-98 -235q-8 -19 -21 -19q-8 0 -18 7q-4 2 -33 21t-58.5 36.5t-75 33t-85.5 15.5q-72 0 -115.5 -60t-50.5 -145h361q41 0 41 -24l-5 -15l-38 -106q0 -1 -1 -4.5t-1.5 -4.5t-1.5 -4.5t-2 -4.5t-2.5 -3.5t-3.5 -3.5t-4.5 -2 t-5.5 -1.5t-7 -0.5h-340v-82h280q39 0 39 -22q0 -6 -2 -10l-41 -113q-5 -15 -13.5 -22t-27.5 -7h-227q0 -96 51 -142t117 -46q98 0 215 76l18 12q12 8 21 8q10 0 18 -16l101 -234q4 -16 4 -20q0 -21 -21 -37l-16 -12q-63 -47 -162 -75t-215 -28q-242 0 -381 141 q-65 67 -106.5 168t-44.5 205h-127q-31 0 -31 25z" />
<glyph unicode="&#x2122;" horiz-adv-x="1523" d="M27 1227v153q0 15 4.5 20t21.5 5h578q15 0 20.5 -2.5t5.5 -11.5q0 -2 -1 -7t-1 -8l-30 -153q-3 -14 -7.5 -18.5t-17.5 -4.5h-147v-612q0 -17 -4.5 -21t-22.5 -4h-188q-17 0 -21 4t-4 21v612h-160q-17 0 -21.5 5t-4.5 22zM674 580l49 800q2 15 7 20t20 5h188q14 0 19.5 -4 t9.5 -17l75 -239q9 -30 29 -117q1 6 35 117l78 239q6 18 12 20q5 1 14 1h185q14 0 18 -4.5t6 -20.5l45 -792v-6q0 -11 -5.5 -15t-20.5 -4h-176q-17 0 -23 5t-6 20l-4 278q0 33 14 226q-17 -66 -55 -195l-39 -141q-3 -10 -5.5 -13.5t-7 -5.5t-14.5 -2h-112q-15 0 -19.5 3 t-7.5 18l-35 141q-4 14 -21.5 89.5t-25.5 105.5q6 -83 6 -226l-4 -278q0 -17 -4.5 -21t-19.5 -4h-181q-14 0 -19 3.5t-5 13.5z" />
<glyph unicode="&#x25fc;" horiz-adv-x="1024" d="M0 0v1024h1024v-1024h-1024z" />
</font>
</defs>
</svg>
