<?xml version="1.0" standalone="no"?>
<!DOCTYPE svg PUBLIC "-//W3C//DTD SVG 1.1//EN" "http://www.w3.org/Graphics/SVG/1.1/DTD/svg11.dtd" >
<svg>
<metadata>
Created by FontForge 20090914 at Tue Jun 11 22:17:38 2013
 By www-data
Copyright (C) 1993; Type Market Ltd. Moscow, 119136, Box 20; phone:(095)1427712; Created by A.Kustov
</metadata>
<defs>
<font id="HeliosLight" horiz-adv-x="556" >
  <font-face 
    font-family="HeliosLight"
    font-weight="400"
    font-stretch="normal"
    units-per-em="1000"
    panose-1="2 0 5 3 4 0 0 2 0 4"
    ascent="800"
    descent="-200"
    x-height="518"
    cap-height="720"
    bbox="-46 -212.002 1220 954"
    underline-thickness="58"
    underline-position="-32"
    unicode-range="U+0020-U+2122"
  />
<missing-glyph horiz-adv-x="500" 
 />
    <glyph glyph-name=".notdef" horiz-adv-x="500" 
 />
    <glyph glyph-name="space" unicode=" " horiz-adv-x="278" 
 />
    <glyph glyph-name="space" unicode="&#xa0;" horiz-adv-x="278" 
 />
    <glyph glyph-name="exclam" unicode="!" horiz-adv-x="333" 
d="M130 496v224h73v-224l-14 -315h-45zM130 0v88h73v-88h-73z" />
    <glyph glyph-name="quotedbl" unicode="&#x22;" horiz-adv-x="278" 
d="M57 720h52v-226h-52v226zM168 720h52v-226h-52v226z" />
    <glyph glyph-name="numbersign" unicode="#" 
d="M504 228h-111l-32 -228h-59l31 228h-137l-34 -228h-59l34 228h-110v59h119l21 140h-112v59h120l32 212h60l-32 -212h136l31 212h59l-31 -212h100v-59h-108l-20 -140h102v-59zM227 427l-22 -140h138l20 140h-136z" />
    <glyph glyph-name="dollar" unicode="$" 
d="M255 651c-18.667 0 -36.167 -2.99902 -52.5 -8.99902s-30.666 -14.5 -42.999 -25.5s-22 -24.167 -29 -39.5s-10.5 -32.333 -10.5 -51c0 -22 3.5 -40.333 10.5 -55s16.667 -26.834 29 -36.501s26.666 -17.5 42.999 -23.5s33.833 -11.667 52.5 -17v257zM302 35.001
c20.667 0 40.166 3.66699 58.499 11s34.5 17.333 48.5 30s25 27.834 33 45.501s12 37.167 12 58.5c0 24.667 -4 45.167 -12 61.5s-18.833 29.666 -32.5 39.999s-29.667 18.5 -48 24.5s-38.166 11.333 -59.499 16v-287zM301.999 -94.999l-47.0029 -0.000976562v76
c-28 0 -55 5.16699 -81 15.5s-49 24.166 -69 41.499s-35.833 37.666 -47.5 60.999s-17.5 48 -17.5 74v30h62c0 -22.667 3.66699 -43.834 11 -63.501s17.833 -37 31.5 -52s29.834 -27.167 48.501 -36.5s39.334 -14.666 62.001 -15.999v297
c-27.333 6.66699 -53.166 14.5 -77.499 23.5s-45.5 20.667 -63.5 35s-32.167 32.166 -42.5 53.499s-15.5 47.666 -15.5 78.999c0 28 5.33301 53.167 16 75.5s25 41.333 43 57s39 27.834 63 36.501s49.667 13 77 13v61h47v-61c27.333 0 52.666 -3.83301 75.999 -11.5
s43.666 -19 60.999 -34s31 -33.5 41 -55.5s15.667 -47 17 -75h-65c0 18.667 -3.33301 35.5 -10 50.5s-16 27.833 -28 38.5s-25.833 18.834 -41.5 24.501s-32.5 8.5 -50.5 8.5v-266c32.667 -8 62.334 -16.667 89.001 -26s49.334 -21.666 68.001 -36.999
s33.167 -35.166 43.5 -59.499s15.5 -55.5 15.5 -93.5c0 -29.333 -6.33301 -55.666 -19 -78.999s-29.167 -43 -49.5 -59s-43.5 -28.333 -69.5 -37s-52 -13 -78 -13v-76z" />
    <glyph glyph-name="ampersand" unicode="&#x26;" horiz-adv-x="667" 
d="M249 375c-20 -9.33301 -38.501 -20.5029 -55.501 -33.5029s-31.667 -27.5 -44 -43.5s-22.166 -33.167 -29.499 -51.5s-11 -37.166 -11 -56.499c0 -24 4.16699 -45.5 12.5 -64.5s19.666 -35.167 33.999 -48.5s31.333 -23.666 51 -30.999s41.167 -11 64.5 -11
c38.667 0 72.834 8.83301 102.501 26.5s56.5 40.834 80.5 69.501zM292.999 665.997c-12.667 0 -24.668 -1.99805 -36.001 -5.99805s-21.5 -9.66699 -30.5 -17s-16.167 -16.333 -21.5 -27s-8 -22.667 -8 -36c0 -10.667 2.66699 -22.334 8 -35.001s11.833 -25 19.5 -37
s15.834 -23.5 24.501 -34.5l23 -28.5c38 21.333 66.333 42.166 85 62.499s28 43.166 28 68.499c0 11.333 -2 22.333 -6 33s-10 20.334 -18 29.001s-17.667 15.5 -29 20.5s-24.333 7.5 -39 7.5zM576.998 325.999c-1.33301 -32.667 -5.50391 -65.1719 -12.5039 -97.5049
s-19.5 -62.5 -37.5 -90.5l117 -138h-81l-70 85c-31.333 -37.333 -65 -64 -101 -80s-78 -24 -126 -24c-31.333 0 -60.666 5.16699 -87.999 15.5s-51.166 24.833 -71.499 43.5s-36.333 41.167 -48 67.5s-17.5 55.5 -17.5 87.5c0 26.667 4.66699 51.334 14 74.001
s21.833 43.334 37.5 62.001s33.834 35.167 54.501 49.5s42.667 26.833 66 37.5c-19.333 22.667 -37 47.167 -53 73.5s-24 55.5 -24 87.5c0 22.667 4.33301 42.834 13 60.501s20.334 32.5 35.001 44.5s31.834 21 51.501 27s40.5 9 62.5 9s42.333 -3.66699 61 -11
s34.667 -17.333 48 -30s23.666 -27.5 30.999 -44.5s11 -34.833 11 -53.5c0 -21.333 -3.16699 -40.166 -9.5 -56.499s-15.5 -31.5 -27.5 -45.5s-26.833 -27.333 -44.5 -40s-37.834 -25.667 -60.501 -39l181 -214c12.667 21.333 20.834 43.833 24.501 67.5
s5.5 47.834 5.5 72.501h59z" />
    <glyph glyph-name="quotesingle" unicode="'" horiz-adv-x="222" 
d="M85 720h52v-226h-52v226z" />
    <glyph glyph-name="parenleft" unicode="(" horiz-adv-x="333" 
d="M277 739c-48 -69.333 -85.6689 -143.331 -113.002 -221.998s-41 -160.334 -41 -245.001c0 -83.333 14.167 -164.166 42.5 -242.499s65.5 -151.833 111.5 -220.5h-51c-27.333 38 -51.666 74.833 -72.999 110.5s-39.333 72 -54 109s-25.667 75.667 -33 116
s-11 84.166 -11 131.499c0 46 3.83301 89.167 11.5 129.5s18.834 79.166 33.501 116.499s32.5 73.833 53.5 109.5s45.167 71.5 72.5 107.5h51z" />
    <glyph glyph-name="parenright" unicode=")" horiz-adv-x="333" 
d="M107 739c27.333 -38 51.6689 -74.835 73.002 -110.502s39.166 -72 53.499 -109s25.333 -75.667 33 -116s11.5 -84.166 11.5 -131.499c0 -46 -3.83301 -89.167 -11.5 -129.5s-18.834 -79.166 -33.501 -116.499s-32.667 -73.833 -54 -109.5s-45.333 -71.5 -72 -107.5h-51
c48 69.333 85.667 143.166 113 221.499s41 159.833 41 244.5c0 83.333 -14.167 164.333 -42.5 243s-65.5 152.334 -111.5 221.001h51z" />
    <glyph glyph-name="asterisk" unicode="*" horiz-adv-x="389" 
d="M173 603v117h42v-117l114 42l15 -44l-114 -37l75 -106l-39 -24l-74 108l-78 -106l-35 27l77 101l-112 40l18 42z" />
    <glyph glyph-name="plus" unicode="+" horiz-adv-x="660" 
d="M300 500h60v-220h220v-60h-220v-220h-60v220h-220v60h220v220z" />
    <glyph glyph-name="comma" unicode="," horiz-adv-x="278" 
d="M175 88v-117.998c0 -29.333 -6.83301 -52.833 -20.5 -70.5s-31.167 -29.834 -52.5 -36.501v37c8 5.33301 15.667 12.666 23 21.999s11 24 11 44v34h-34v88h73z" />
    <glyph glyph-name="hyphen" unicode="-" horiz-adv-x="333" 
d="M293 280v-60h-253v60h253z" />
    <glyph glyph-name="period" unicode="." horiz-adv-x="278" 
d="M102 0v88h73v-88h-73z" />
    <glyph glyph-name="slash" unicode="../default.htm" horiz-adv-x="278" 
d="M53 -90h-56l235 829h56z" />
    <glyph glyph-name="zero" unicode="0" 
d="M452 347c0 38 -2.16699 75.166 -6.5 111.499s-12.833 68.833 -25.5 97.5s-30.5 51.667 -53.5 69s-53.167 26 -90.5 26c-35.333 0 -64.166 -8.83301 -86.499 -26.5s-39.833 -41.167 -52.5 -70.5s-21.5 -62.666 -26.5 -99.999s-7.5 -75.333 -7.5 -114
c0 -45.333 2.83301 -86.5 8.5 -123.5s15.167 -68.5 28.5 -94.5s31.166 -46.167 53.499 -60.5s50.5 -21.5 84.5 -21.5c38 0 68.5 9.33301 91.5 28s40.5 42.667 52.5 72s20 62.333 24 99s6 72.667 6 108zM278 704.999c34.667 0 64.6709 -5.16895 90.0039 -15.502
s46.833 -24.5 64.5 -42.5s32 -39 43 -63s19.5 -49.5 25.5 -76.5s10 -54.833 12 -83.5s3 -56.667 3 -84c0 -46.667 -3.33301 -91.334 -10 -134.001s-18.834 -80.334 -36.501 -113.001s-41.834 -58.667 -72.501 -78s-70.334 -29 -119.001 -29s-88.5 9.66699 -119.5 29
s-55.333 45.5 -73 78.5s-29.834 71.333 -36.501 115s-10 89.834 -10 138.501c0 44.667 3 88.334 9 131.001s17.5 80.834 34.5 114.501s41.167 60.834 72.5 81.501s72.333 31 123 31z" />
    <glyph glyph-name="one" unicode="1" 
d="M366 705l-0.000976562 -704.999h-64v524h-182v42c26.667 2 50.834 4.66699 72.501 8s40.667 9.66602 57 18.999s30 22.833 41 40.5s19.167 41.5 24.5 71.5h51z" />
    <glyph glyph-name="two" unicode="2" 
d="M69 474c0 34.667 5.33594 66.1709 16.0029 94.5039s26 52.666 46 72.999s44.167 36 72.5 47s59.833 16.5 94.5 16.5c35.333 0 66.5 -5.16699 93.5 -15.5s49.667 -24.166 68 -41.499s32.166 -38 41.499 -62s14 -49.333 14 -76c0 -31.333 -5.16699 -59 -15.5 -83
s-24 -45.333 -41 -64s-36.333 -35.334 -58 -50.001s-43.834 -28.5 -66.501 -41.5l-67 -37.5c-22 -12 -41.667 -24.667 -59 -38c-11.333 -8.66699 -22.333 -17.834 -33 -27.501s-20.334 -20.167 -29.001 -31.5s-15.667 -23.833 -21 -37.5s-8.33301 -28.834 -9 -45.501h393
v-54h-461c0 34 3.5 64.667 10.5 92s21.833 54 44.5 80c24.667 28 50.167 52 76.5 72s52.166 37.833 77.499 53.5l72 43c22.667 13 42.667 27.167 60 42.5s31 32.666 41 51.999s15 43 15 71c0 22.667 -4 43 -12 61s-19 33.333 -33 46s-30.333 22.167 -49 28.5
s-39 9.5 -61 9.5c-23.333 0 -44.333 -4.83301 -63 -14.5s-34.667 -22.5 -48 -38.5s-23.666 -34.667 -30.999 -56s-11 -44 -11 -68h-68z" />
    <glyph glyph-name="three" unicode="3" 
d="M58 500c0 20.667 3.16797 42.8369 9.50098 66.5039s18 45.834 35 66.501s40.333 37.834 70 51.501s67.5 20.5 113.5 20.5c28 0 54.167 -3.5 78.5 -10.5s45.5 -17.667 63.5 -32s32.333 -32.5 43 -54.5s16 -47.667 16 -77c0 -36.667 -8.16699 -68.334 -24.5 -95.001
s-41.5 -47.334 -75.5 -62.001c25.333 -8 46.166 -18.5 62.499 -31.5s29.166 -27.333 38.499 -43s15.666 -32.167 18.999 -49.5s5 -34 5 -50c0 -29.333 -5 -56.833 -15 -82.5s-24.667 -48.334 -44 -68.001s-43.166 -35.167 -71.499 -46.5s-60.5 -17 -96.5 -17
c-40.667 0 -76 3.66699 -106 11s-55 19.5 -75 36.5s-35.667 39.333 -47 67s-19 62.167 -23 103.5h64c0 -54 16.167 -94.833 48.5 -122.5s74.5 -41.5 126.5 -41.5c25.333 0 48.666 4.33301 69.999 13s39.833 20.167 55.5 34.5s27.834 31.166 36.501 50.499
s13 39.666 13 60.999c0 28.667 -6 52 -18 70s-28.333 32.333 -49 43s-44.834 18 -72.501 22s-56.834 6 -87.501 6v52c30 0 57.333 2 82 6s45.834 11 63.501 21s31.5 23.667 41.5 41s15 39.666 15 66.999c0 22 -4 40.833 -12 56.5s-18.833 28.5 -32.5 38.5
s-29.667 17.333 -48 22s-37.5 7 -57.5 7c-22.667 0 -43.167 -3.66699 -61.5 -11s-34.166 -17.833 -47.499 -31.5s-23.666 -29.667 -30.999 -48s-11 -38.5 -11 -60.5h-64z" />
    <glyph glyph-name="four" unicode="4" 
d="M422 698v-470h98v-54h-98v-174h-64v174h-322v55l328 469h58zM99 228h259v374z" />
    <glyph glyph-name="five" unicode="5" 
d="M468 698l-0.000976562 -54h-296l-44 -237c14 8.66699 26.833 16 38.5 22s23.5 10.833 35.5 14.5s24.5 6.16699 37.5 7.5s27.5 2 43.5 2c32 0 61.667 -5.33301 89 -16s51 -26 71 -46s35.5 -44.5 46.5 -73.5s16.5 -61.5 16.5 -97.5c0 -37.333 -6.16699 -70.5 -18.5 -99.5
s-28.833 -53.5 -49.5 -73.5s-44.5 -35.167 -71.5 -45.5s-54.833 -15.5 -83.5 -15.5c-33.333 0 -64.5 3.33301 -93.5 10s-54.5 17.834 -76.5 33.501s-39.833 36 -53.5 61s-21.834 55.833 -24.501 92.5h64c6.66699 -48 25.834 -83.833 57.501 -107.5s70.5 -35.5 116.5 -35.5
c26 0 49.5 4.66699 70.5 14s38.833 22.166 53.5 38.499s25.834 35.333 33.501 57s11.5 45.167 11.5 70.5c0 26 -4.16699 50 -12.5 72s-20 41 -35 57s-33.333 28.333 -55 37s-45.834 13 -72.501 13c-32 0 -60.667 -5.83301 -86 -17.5s-47.666 -30.167 -66.999 -55.5l-53 7
l57 365h350z" />
    <glyph glyph-name="six" unicode="6" 
d="M437 532c-7.33301 36 -21.999 64.834 -43.999 86.501s-52 32.5 -90 32.5c-43.333 0 -77.5 -10.333 -102.5 -31s-44.167 -46.834 -57.5 -78.501s-22.333 -66.167 -27 -103.5s-8.33398 -72.666 -11.001 -105.999l31.5 40c11 13.333 23.5 25.166 37.5 35.499
s30.333 18.666 49 24.999s41 9.5 67 9.5c71.333 0 126.5 -20.167 165.5 -60.5s58.5 -95.833 58.5 -166.5c0 -71.333 -19.667 -127.333 -59 -168s-95 -61 -167 -61c-35.333 0 -68 5.83301 -98 17.5s-56 30.834 -78 57.501s-39.333 61.5 -52 104.5s-19 95.5 -19 157.5
c0 42 3.66699 85.5 11 130.5s20.5 86.167 39.5 123.5s45 68 78 92s75.5 36 127.5 36c56 0 102.667 -14.667 140 -44s59.333 -72.333 66 -129h-66zM288.001 388.001c-24.667 0 -46.834 -4.66699 -66.501 -14s-36.334 -22 -50.001 -38s-24.167 -34.5 -31.5 -55.5
s-11 -43.5 -11 -67.5c0 -20 2.83301 -40.167 8.5 -60.5s15 -38.833 28 -55.5s29.5 -30.334 49.5 -41.001s44.667 -16 74 -16c30 0 55.167 5.16699 75.5 15.5s36.833 24 49.5 41s21.834 36 27.501 57s8.5 42.167 8.5 63.5c0 54.667 -13.167 96.834 -39.5 126.501
s-67.166 44.5 -122.499 44.5z" />
    <glyph glyph-name="seven" unicode="7" 
d="M59 698h449v-60c-50.667 -57.333 -93.667 -116.166 -129 -176.499s-64.333 -119 -87 -176s-39.5 -110.167 -50.5 -159.5s-17.5 -91.333 -19.5 -126h-70c3.33301 50.667 13.5 104.5 30.5 161.5s38.167 113.5 63.5 169.5s54 110.167 86 162.5s65 99.166 99 140.499h-372v64
z" />
    <glyph glyph-name="eight" unicode="8" 
d="M279 345c-24.667 0 -47.334 -2.99707 -68.001 -8.99707s-38.667 -15.167 -54 -27.5s-27.333 -28 -36 -47s-13 -41.5 -13 -67.5c0 -22 4.16699 -42.333 12.5 -61s20 -34.834 35 -48.501s33.333 -24.5 55 -32.5s45.834 -12 72.501 -12c23.333 0 45 3.83301 65 11.5
s37.5 18.5 52.5 32.5s26.667 30.667 35 50s12.5 40.666 12.5 63.999c0 24.667 -4.33301 46.167 -13 64.5s-20.667 33.666 -36 45.999s-33.333 21.5 -54 27.5s-42.667 9 -66 9zM276 651.003c-20 0 -38.667 -2.66504 -56 -7.99805s-32.5 -13.333 -45.5 -24
s-23.167 -24 -30.5 -40s-11 -34.333 -11 -55c0 -22 4.16699 -40.833 12.5 -56.5s19.5 -28.5 33.5 -38.5s30 -17.5 48 -22.5s36.667 -7.5 56 -7.5s37.333 2.5 54 7.5s31 13.167 43 24.5s21.5 25.666 28.5 42.999s10.5 38.666 10.5 63.999c0 36 -11.667 63.833 -35 83.5
s-59.333 29.5 -108 29.5zM167 379.005c-17.333 10.667 -32.165 20.835 -44.498 30.502s-22.5 20.167 -30.5 31.5s-13.833 24.166 -17.5 38.499s-5.5 32.166 -5.5 53.499c0 24 5.33301 46.5 16 67.5s25.167 39.333 43.5 55s39.666 27.834 63.999 36.501s50.166 13 77.499 13
c26.667 0 52.834 -3.33301 78.501 -10s48.5 -17 68.5 -31s36 -31.833 48 -53.5s18 -47.5 18 -77.5c0 -36.667 -7.5 -68 -22.5 -94s-39.5 -47.333 -73.5 -64c38.667 -14 69.167 -36.333 91.5 -67s33.5 -66.667 33.5 -108c0 -34.667 -5.83301 -65.334 -17.5 -92.001
s-28.334 -49 -50.001 -67s-47.834 -31.667 -78.501 -41s-64.667 -14 -102 -14c-25.333 0 -51.166 4.33301 -77.499 13s-50 21.667 -71 39s-38.167 39 -51.5 65s-20 56.333 -20 91c0 42 10.5 79.5 31.5 112.5s51.5 57.167 91.5 72.5z" />
    <glyph glyph-name="nine" unicode="9" 
d="M118 155c7.33301 -38 22.167 -66.666 44.5 -85.999s53.166 -29 92.499 -29c42 0 75.5 10.333 100.5 31s44.333 46.667 58 78s23 65.166 28 101.499s8.16699 70.5 9.5 102.5l-2 2c-21.333 -36 -47.833 -63.333 -79.5 -82s-68.5 -28 -110.5 -28
c-33.333 0 -63.333 5.33301 -90 16s-49.5 26 -68.5 46s-33.667 44 -44 72s-15.5 59 -15.5 93c0 33.333 4.66699 64.166 14 92.499s23.333 53 42 74s42.167 37.333 70.5 49s61.833 17.5 100.5 17.5c47.333 0 86.833 -9.33301 118.5 -28s57 -44 76 -76s32.5 -69.667 40.5 -113
s12 -89.666 12 -138.999c0 -60 -6.33301 -112.5 -19 -157.5s-30.5 -82.833 -53.5 -113.5s-50.167 -53.667 -81.5 -69s-65.666 -23 -102.999 -23c-27.333 0 -53 3.33301 -77 10s-45 17 -63 31s-32.667 31.667 -44 53s-18.333 46.333 -21 75h65zM268.001 651.001
c-54 0 -94.6689 -16.333 -122.002 -49s-41 -76.667 -41 -132c0 -54 14.167 -96 42.5 -126s68.5 -45 120.5 -45c24.667 0 46.834 4.66699 66.501 14s36.334 22 50.001 38s24 34.5 31 55.5s10.5 43.5 10.5 67.5c0 52 -13.833 94.5 -41.5 127.5s-66.5 49.5 -116.5 49.5z" />
    <glyph glyph-name="colon" unicode=":" horiz-adv-x="278" 
d="M102 0v88h73v-88h-73zM102 404v88h73v-88h-73z" />
    <glyph glyph-name="semicolon" unicode=";" horiz-adv-x="278" 
d="M175 88v-117.998c0 -29.333 -6.83301 -52.833 -20.5 -70.5s-31.167 -29.834 -52.5 -36.501v37c8 5.33301 15.667 12.666 23 21.999s11 24 11 44v34h-34v88h73zM102 404.002v88h73v-88h-73z" />
    <glyph glyph-name="less" unicode="&#x3c;" horiz-adv-x="660" 
d="M580 58v-64l-500 235v53l500 223v-64l-421 -186z" />
    <glyph glyph-name="equal" unicode="=" horiz-adv-x="660" 
d="M580 318h-500v60h500v-60zM580 124h-500v60h500v-60z" />
    <glyph glyph-name="greater" unicode="&#x3e;" horiz-adv-x="660" 
d="M580 229l-500 -235v64l421 197l-421 186v64l500 -223v-53z" />
    <glyph glyph-name="question" unicode="?" horiz-adv-x="500" 
d="M225 182c0 18 0.500977 35.3301 1.50098 51.9971s3.16699 32.667 6.5 48s8.66602 30 15.999 44s17.666 28 30.999 42c14.667 15.333 30 30.333 46 45s30.667 29.5 44 44.5s24.5 30.5 33.5 46.5s13.5 33.333 13.5 52c0 18 -3.5 34.833 -10.5 50.5
s-17.167 29.334 -30.5 41.001s-29.666 20.834 -48.999 27.501s-41.333 10 -66 10s-46.5 -4.33301 -65.5 -13s-35 -20.5 -48 -35.5s-22.833 -32.833 -29.5 -53.5s-10 -43 -10 -67h-61c0 33.333 5.16699 63.666 15.5 90.999s25 50.833 44 70.5s41.667 34.834 68 45.501
s55.833 16 88.5 16c34 0 64.5 -4.5 91.5 -13.5s49.833 -21.667 68.5 -38s33 -36.166 43 -59.499s15 -49 15 -77c0 -29.333 -6.33301 -54.5 -19 -75.5s-28 -40.833 -46 -59.5s-37.167 -37 -57.5 -55s-38.5 -38 -54.5 -60c-4 -6 -7.5 -13.667 -10.5 -23
s-5.16699 -19.5 -6.5 -30.5s-2.33301 -22.167 -3 -33.5s-1 -22 -1 -32h-58zM219.001 -0.00292969v88h73v-88h-73z" />
    <glyph glyph-name="at" unicode="@" horiz-adv-x="800" 
d="M743 167c-16 -29.333 -35.6719 -55.5146 -59.0049 -78.5146s-49.166 -42.5 -77.499 -58.5s-58.5 -28.167 -90.5 -36.5s-64.333 -12.5 -97 -12.5c-53.333 0 -103.166 10 -149.499 30s-86.5 47.333 -120.5 82s-60.667 75.167 -80 121.5s-29 95.833 -29 148.5
c0 52 10 100.833 30 146.5s47.167 85.5 81.5 119.5s74.166 60.833 119.499 80.5s93.333 29.5 144 29.5c48 0 93 -7.83301 135 -23.5s78.5 -37.5 109.5 -65.5s55.5 -61.333 73.5 -100s27 -81 27 -127c0 -39.333 -7.16699 -76.666 -21.5 -111.999
s-32.666 -66.166 -54.999 -92.499s-47.333 -47.166 -75 -62.499s-54.834 -23 -81.501 -23c-17.333 0 -34.5 3.83301 -51.5 11.5s-28.5 20.5 -34.5 38.5c-15.333 -15.333 -33.666 -27.5 -54.999 -36.5s-42.666 -13.5 -63.999 -13.5s-40.666 4 -57.999 12s-32 18.833 -44 32.5
s-21.167 29.5 -27.5 47.5s-9.5 37.333 -9.5 58c0 33.333 6 67.833 18 103.5s28.833 68.334 50.5 98.001s47.667 54 78 73s64.166 28.5 101.499 28.5c23.333 0 45.333 -5.66699 66 -17s36 -27.666 46 -48.999l15 46h67l-46 -137l-31.5 -95
c-8.33301 -25.333 -14.833 -45.666 -19.5 -60.999s-8.16699 -27.166 -10.5 -35.499s-3.83301 -14.333 -4.5 -18s-1 -6.5 -1 -8.5c0 -8.66699 2 -15.5 6 -20.5s11.667 -7.5 23 -7.5c20.667 0 40.667 7.66699 60 23s36.333 34.833 51 58.5s26.334 49.834 35.001 78.501
s13 56.334 13 83.001c0 40.667 -7.66699 77.334 -23 110.001s-36 60.334 -62 83.001s-56 40 -90 52s-70 18 -108 18c-46 0 -88.5 -8.83301 -127.5 -26.5s-72.5 -41.667 -100.5 -72s-49.833 -65.666 -65.5 -105.999s-23.5 -83.166 -23.5 -128.499
s8.16699 -87.666 24.5 -126.999s38.833 -73.666 67.5 -102.999s62.334 -52.5 101.001 -69.5s80.667 -25.5 126 -25.5c26 0 51.5 3 76.5 9s49 14.833 72 26.5s44.333 26 64 43s37.167 36.167 52.5 57.5h59zM336.995 195.985c22.667 0 44.002 9.16504 64.002 27.498
s37.5 40.833 52.5 67.5s26.833 54.834 35.5 84.501s13 55.834 13 78.501c0 19.333 -6.33301 36.333 -19 51s-29.334 22 -50.001 22c-26.667 0 -50.667 -8.16699 -72 -24.5s-39.5 -36.666 -54.5 -60.999s-26.667 -50.333 -35 -78s-12.5 -52.834 -12.5 -75.501
c0 -24 6.66699 -45.333 20 -64s32.666 -28 57.999 -28z" />
    <glyph glyph-name="A" unicode="A" horiz-adv-x="651" 
d="M365 720l276 -720h-70l-83 226h-328l-85 -226h-70l283 720h77zM183 284h282l-141 378z" />
    <glyph glyph-name="B" unicode="B" horiz-adv-x="663" 
d="M149 58l173 0.000976562c37.333 0 69.833 1.66699 97.5 5s50.5 10.166 68.5 20.499s31.5 25 40.5 44s13.5 44.167 13.5 75.5c0 30 -5 54.167 -15 72.5s-24.333 32.5 -43 42.5s-41 16.833 -67 20.5s-55 5.5 -87 5.5h-181v-286zM149 402.001l172 -0.00195312
c35.333 0 65 3 89 9s43.333 14.833 58 26.5s25.167 26 31.5 43s9.5 36.5 9.5 58.5c0 22.667 -3.66699 41.834 -11 57.501s-19 28.334 -35 38.001s-36.833 16.667 -62.5 21s-57.167 6.5 -94.5 6.5h-157v-260zM81 719.999l260.004 -0.00195312c42 0 78 -4.33301 108 -13
s54.5 -21 73.5 -37s32.833 -35.167 41.5 -57.5s13 -46.833 13 -73.5c0 -25.333 -3.33301 -47.166 -10 -65.499s-15.334 -33.666 -26.001 -45.999s-22.834 -22 -36.501 -29s-27.834 -11.833 -42.501 -14.5v-2c50 -7.33301 87.167 -27 111.5 -59s36.5 -72 36.5 -120
c0 -37.333 -5.83301 -69 -17.5 -95s-27.834 -47 -48.501 -63s-45.5 -27.5 -74.5 -34.5s-60.5 -10.5 -94.5 -10.5h-294v720z" />
    <glyph glyph-name="C" unicode="C" horiz-adv-x="727" 
d="M597 511c-14 61.333 -40.0029 104.995 -78.0029 130.995s-87.667 39 -149 39c-43.333 0 -80.666 -8.66699 -111.999 -26s-57.166 -40.666 -77.499 -69.999s-35.333 -63.166 -45 -101.499s-14.5 -78.833 -14.5 -121.5c0 -40 4.16699 -79.333 12.5 -118
s22.166 -73.167 41.499 -103.5s45.333 -54.833 78 -73.5s73.667 -28 123 -28c30.667 0 58.667 5 84 15s47.5 23.833 66.5 41.5s35 38.5 48 62.5s22.833 50.333 29.5 79h71c-8 -34.667 -19.667 -67.5 -35 -98.5s-35.5 -58.167 -60.5 -81.5s-55.333 -41.833 -91 -55.5
s-77.5 -20.5 -125.5 -20.5c-55.333 0 -102.666 10.167 -141.999 30.5s-71.5 47.833 -96.5 82.5s-43.167 74.834 -54.5 120.501s-17 94.167 -17 145.5c0 68.667 8.5 127 25.5 175s40.5 87.167 70.5 117.5s65.333 52.333 106 66s85 20.5 133 20.5
c36.667 0 70.834 -4.83301 102.501 -14.5s59.667 -24.167 84 -43.5s44.333 -43.166 60 -71.499s26.5 -61.166 32.5 -98.499h-70z" />
    <glyph glyph-name="D" unicode="D" horiz-adv-x="722" 
d="M81 720h246c20 0 39.667 -0.5 59 -1.5s38.333 -3.33301 57 -7s36.834 -9.16699 54.501 -16.5s34.834 -17 51.501 -29c24 -17.333 43.667 -38.5 59 -63.5s27.5 -51.333 36.5 -79s15.333 -55.667 19 -84s5.5 -54.5 5.5 -78.5s-1.5 -48.333 -4.5 -73
s-7.83301 -48.834 -14.5 -72.501s-15.5 -46.334 -26.5 -68.001s-24.833 -41.5 -41.5 -59.5c-16.667 -18.667 -34.834 -33.667 -54.501 -45s-40.334 -20.166 -62.001 -26.499s-44.167 -10.666 -67.5 -12.999s-47 -3.5 -71 -3.5h-246v720zM149 58l162.998 0.000976562
c30.667 0 59.5 1.83301 86.5 5.5s54.5 12.834 82.5 27.501c24 12 43.667 28.333 59 49s27.5 43.167 36.5 67.5s15.333 49.833 19 76.5s5.5 52.334 5.5 77.001c0 26 -1.66699 52.5 -5 79.5s-9.66602 52.667 -18.999 77s-22 46.666 -38 66.999s-36.667 37.166 -62 50.499
c-21.333 11.333 -46.666 18.666 -75.999 21.999s-59 5 -89 5h-163v-604z" />
    <glyph glyph-name="E" unicode="E" horiz-adv-x="611" 
d="M560 720v-58h-411v-251h371v-58h-371v-295h421v-58h-489v720h479z" />
    <glyph glyph-name="F" unicode="F" horiz-adv-x="563" 
d="M545 720v-58h-396v-251h360v-58h-360v-353h-68v720h464z" />
    <glyph glyph-name="G" unicode="G" horiz-adv-x="776" 
d="M617 511c-6 26.667 -16.166 50.665 -30.499 71.998s-31.5 39.166 -51.5 53.499s-42.333 25.333 -67 33s-50.334 11.5 -77.001 11.5c-47.333 0 -88 -8.33301 -122 -25s-62 -40.167 -84 -70.5s-38.167 -66.666 -48.5 -108.999s-15.5 -88.833 -15.5 -139.5
c0 -40 5.83301 -78 17.5 -114s28.667 -67.667 51 -95s49.666 -49 81.999 -65s69.166 -24 110.499 -24c34.667 0 67.167 5.66699 97.5 17s56.666 28.5 78.999 51.5s39.833 51.667 52.5 86s19 74.5 19 120.5h-243v58h308v-372h-58v123
c-12.667 -21.333 -27.167 -40.833 -43.5 -58.5s-35.166 -32.667 -56.499 -45s-46 -21.833 -74 -28.5s-59.667 -10 -95 -10c-45.333 0 -87.333 8 -126 24s-72 39.833 -100 71.5s-49.833 71.5 -65.5 119.5s-23.5 104 -23.5 168c0 52.667 6.66699 101.834 20 147.501
s33.833 85.334 61.5 119.001s62.334 60.167 104.001 79.5s90.834 29 147.501 29c38 0 73.5 -4.66699 106.5 -14s62.667 -23.5 89 -42.5s48.5 -42.667 66.5 -71s31 -61.833 39 -100.5h-70z" />
    <glyph glyph-name="H" unicode="H" horiz-adv-x="724" 
d="M149 411h426v309h68v-720h-68v353h-426v-353h-68v720h68v-309z" />
    <glyph glyph-name="I" unicode="I" horiz-adv-x="230" 
d="M149 0h-68v720h68v-720z" />
    <glyph glyph-name="J" unicode="J" horiz-adv-x="500" 
d="M419 720l0.00292969 -523.002c0 -70 -16.333 -123.5 -49 -160.5s-84 -55.5 -154 -55.5c-40.667 0 -73.334 6.83301 -98.001 20.5s-43.834 32 -57.501 55s-22.834 49.333 -27.501 79s-7 60.5 -7 92.5h68c0 -22 0.833008 -44.167 2.5 -66.5s6.66699 -42.166 15 -59.499
s21.333 -31.5 39 -42.5s42.167 -16.5 73.5 -16.5c46.667 0 79.5 13.333 98.5 40s28.5 65.334 28.5 116.001v521h68z" />
    <glyph glyph-name="K" unicode="K" horiz-adv-x="663" 
d="M149 357l357 363h89l-284 -287l334 -433h-83l-300 391l-113 -113v-278h-68v720h68v-363z" />
    <glyph glyph-name="L" unicode="L" 
d="M149 58h386v-58h-454v720h68v-662z" />
    <glyph glyph-name="M" unicode="M" horiz-adv-x="839" 
d="M185 720l236 -635h2l232 635h103v-720h-68v642h-2l-236 -642h-64l-237 642h-2v-642h-68v720h104z" />
    <glyph glyph-name="N" unicode="N" horiz-adv-x="725" 
d="M158 720l416 -629h2v629h68v-720h-79l-414 628h-2v-628h-68v720h77z" />
    <glyph glyph-name="O" unicode="O" horiz-adv-x="777" 
d="M53 359c0 52 7.16895 101.167 21.502 147.5s35.5 86.666 63.5 120.999s62.667 61.5 104 81.5s89 30 143 30c56 0 105.167 -9.83301 147.5 -29.5s77.666 -46.667 105.999 -81s49.666 -74.666 63.999 -120.999s21.5 -95.833 21.5 -148.5
c0 -52 -7.16699 -100.833 -21.5 -146.5s-35.5 -85.667 -63.5 -120s-63 -61.5 -105 -81.5s-90.667 -30 -146 -30s-104 10 -146 30s-77 47.167 -105 81.5s-49 74.333 -63 120s-21 94.5 -21 146.5zM389.002 39c46.667 0 86.8291 8.83398 120.496 26.501
s61.334 41.167 83.001 70.5s37.667 63.333 48 102s15.5 79 15.5 121c0 50 -6.16699 94.833 -18.5 134.5s-30.166 73.5 -53.499 101.5s-51.666 49.333 -84.999 64s-70.666 22 -111.999 22c-46 0 -85.833 -9 -119.5 -27s-61.334 -41.833 -83.001 -71.5
s-37.667 -63.834 -48 -102.501s-15.5 -79 -15.5 -121c0 -42.667 5.16699 -83.334 15.5 -122.001s26.333 -72.667 48 -102s49.334 -52.666 83.001 -69.999s74.167 -26 121.5 -26z" />
    <glyph glyph-name="P" unicode="P" horiz-adv-x="632" 
d="M149 0l-68 0.000976562v720h258c46.667 0 85.5 -5.33301 116.5 -16s55.667 -25.334 74 -44.001s31.166 -40.167 38.499 -64.5s11 -49.833 11 -76.5c0 -40 -7.33301 -73 -22 -99s-34 -46.5 -58 -61.5s-51.667 -25.5 -83 -31.5s-63.666 -9 -96.999 -9h-170v-318z
M149 376.001l150 0.000976562c32 0 61 1.83301 87 5.5s48.333 10.5 67 20.5s33 24.167 43 42.5s15 42.5 15 72.5c0 31.333 -4.5 56.5 -13.5 75.5s-22.5 33.667 -40.5 44s-40.833 17.166 -68.5 20.499s-60.167 5 -97.5 5h-142v-286z" />
    <glyph glyph-name="Q" unicode="Q" horiz-adv-x="777" 
d="M712 -6l-38.001 -46.001l-106 82c-24.667 -15.333 -51.834 -27.333 -81.501 -36s-62.5 -13 -98.5 -13c-55.333 0 -104 10 -146 30s-77 47.167 -105 81.5s-49 74.333 -63 120s-21 94.5 -21 146.5c0 50 6.83301 97.833 20.5 143.5s34.167 86 61.5 121s61.833 63 103.5 84
s90.5 31.5 146.5 31.5c50.667 0 96.834 -8.33301 138.501 -25s77.334 -41 107.001 -73s52.667 -71.667 69 -119s24.5 -101.666 24.5 -162.999c0 -58.667 -9 -113 -27 -163s-45 -92.667 -81 -128zM565.999 106.999c30.667 29.333 53.334 66.167 68.001 110.5
s22 91.5 22 141.5c0 54 -6.83301 101 -20.5 141s-32.5 73.5 -56.5 100.5s-52.333 47.167 -85 60.5s-68.334 20 -107.001 20c-46 0 -85.833 -9 -119.5 -27s-61.334 -42 -83.001 -72s-37.667 -64.333 -48 -103s-15.5 -78.667 -15.5 -120
c0 -42.667 5.16699 -83.334 15.5 -122.001s26.333 -72.667 48 -102s49.334 -52.666 83.001 -69.999s74.167 -26 121.5 -26c25.333 0 48.333 2.83301 69 8.5s39.667 13.5 57 23.5l-82 63l36 47z" />
    <glyph glyph-name="R" unicode="R" horiz-adv-x="680" 
d="M149 385h212c25.333 0 48.833 2.66699 70.5 8s40.5 13.833 56.5 25.5s28.667 26.5 38 44.5s14 39.667 14 65c0 26.667 -4.83301 48.667 -14.5 66s-22.667 31 -39 41s-35 17 -56 21s-42.833 6 -65.5 6h-216v-277zM149 0l-68.001 0.000976562v720h282
c79.333 0 140 -14.833 182 -44.5s63 -77.834 63 -144.501c0 -45.333 -9.16699 -81.333 -27.5 -108s-48.166 -49.334 -89.499 -68.001c20.667 -7.33301 37.167 -18 49.5 -32s21.666 -29.833 27.999 -47.5s10.333 -36.667 12 -57s2.5 -39.833 2.5 -58.5
c0 -45.333 2.83301 -81.166 8.5 -107.499s12.834 -41.5 21.501 -45.5v-7h-75c-4 6.66699 -7.33301 15.667 -10 27s-5 24 -7 38s-3.5 28.5 -4.5 43.5s-1.5 29.5 -1.5 43.5c0 38.667 -3.33301 69.667 -10 93s-16.5 41 -29.5 53s-29 19.833 -48 23.5s-40.5 5.5 -64.5 5.5h-214
v-327z" />
    <glyph glyph-name="S" unicode="S" horiz-adv-x="627" 
d="M109 215c2.66699 -32 9.83105 -59.1699 21.498 -81.5029s26.667 -40.5 45 -54.5s39.5 -24.167 63.5 -30.5s49.667 -9.5 77 -9.5c32 0 59.667 4 83 12s42.333 18.833 57 32.5s25.5 29.5 32.5 47.5s10.5 37 10.5 57c0 28 -6.33301 50.667 -19 68s-29.167 31.5 -49.5 42.5
s-43.666 19.833 -69.999 26.5s-53.333 13.167 -81 19.5s-54.667 13.833 -81 22.5s-49.666 20.334 -69.999 35.001s-36.833 33.5 -49.5 56.5s-19 52.167 -19 87.5c0 24.667 5.16699 48.667 15.5 72s25.666 44 45.999 62s45.833 32.333 76.5 43s66 16 106 16
c40.667 0 76.167 -5.66699 106.5 -17s55.5 -26.833 75.5 -46.5s35 -42.5 45 -68.5s15 -53.667 15 -83h-65c0 27.333 -4.83301 51 -14.5 71s-22.834 36.333 -39.501 49s-35.667 22 -57 28s-43.333 9 -66 9c-31.333 0 -58.166 -4 -80.499 -12s-40.833 -18.5 -55.5 -31.5
s-25.334 -27.833 -32.001 -44.5s-10 -33.334 -10 -50.001c0 -27.333 6.33301 -49.166 19 -65.499s29.334 -29.666 50.001 -39.999s44.167 -18.666 70.5 -24.999s53.333 -12.5 81 -18.5s54.667 -13.167 81 -21.5s49.833 -20 70.5 -35s37.334 -34.167 50.001 -57.5
s19 -53 19 -89c0 -66.667 -23 -118.334 -69 -155.001s-110.667 -55 -194 -55c-37.333 0 -72 4.83301 -104 14.5s-59.667 24.334 -83 44.001s-41.5 44 -54.5 73s-19.5 63.167 -19.5 102.5h66z" />
    <glyph glyph-name="T" unicode="T" 
d="M312 0h-68v662h-228v58h524v-58h-228v-662z" />
    <glyph glyph-name="U" unicode="U" horiz-adv-x="720" 
d="M149 720l-0.000976562 -429.001c0 -89.333 16.667 -153.666 50 -192.999s87 -59 161 -59c38.667 0 71.5 5.16699 98.5 15.5s48.833 26 65.5 47s28.667 47.167 36 78.5s11 68.333 11 111v429h68v-449c0 -94 -23.167 -165.833 -69.5 -215.5s-116.166 -74.5 -209.499 -74.5
c-94 0 -164 25.333 -210 76s-69 122 -69 214v449h68z" />
    <glyph glyph-name="V" unicode="V" horiz-adv-x="611" 
d="M89 720l217 -640l216 640h71l-250 -720h-75l-250 720h71z" />
    <glyph glyph-name="W" unicode="W" horiz-adv-x="889" 
d="M82 720l155 -624h2l167 624h76l164 -624h2l157 624h70l-189 -720h-75l-167 636h-2l-167 -636h-75l-186 720h68z" />
    <glyph glyph-name="X" unicode="X" horiz-adv-x="611" 
d="M107 720l197 -303l198 303h79l-236 -350l247 -370h-78l-210 318l-209 -318h-77l248 370l-238 350h79z" />
    <glyph glyph-name="Y" unicode="Y" horiz-adv-x="611" 
d="M90 720l212 -347l217 347h79l-261 -406v-314h-68v309l-257 411h78z" />
    <glyph glyph-name="Z" unicode="Z" horiz-adv-x="611" 
d="M576 720v-57l-461 -605h464v-58h-548v57l461 605h-422v58h506z" />
    <glyph glyph-name="bracketleft" unicode="[" horiz-adv-x="333" 
d="M282 739v-50h-127v-830h127v-50h-191v930h191z" />
    <glyph glyph-name="backslash" unicode="\" horiz-adv-x="278" 
d="M-46 739h60l310 -739h-60z" />
    <glyph glyph-name="bracketright" unicode="]" horiz-adv-x="333" 
d="M242 739v-930h-191v50h127v830h-127v50h191z" />
    <glyph glyph-name="asciicircum" unicode="^" horiz-adv-x="660" 
d="M73 245l230 453h52l231 -453h-57l-201 392l-197 -392h-58z" />
    <glyph glyph-name="underscore" unicode="_" horiz-adv-x="500" 
d="M0 -119v58h500v-58h-500z" />
    <glyph glyph-name="grave" unicode="`" horiz-adv-x="333" 
d="M45 713h78l111 -139h-51z" />
    <glyph glyph-name="a" unicode="a" horiz-adv-x="558" 
d="M413 272c-13.333 -7.33301 -33.1689 -13.332 -59.502 -17.999s-58.166 -8.33398 -95.499 -11.001c-46 -3.33301 -81.833 -13.666 -107.5 -30.999s-38.5 -43.666 -38.5 -78.999c0 -16 3.16699 -29.833 9.5 -41.5s14.666 -21.334 24.999 -29.001s22.333 -13.334 36 -17.001
s27.5 -5.5 41.5 -5.5c24 0 47.333 3 70 9s42.834 15.167 60.501 27.5s31.834 28 42.501 47s16 41.5 16 67.5v81zM71.9971 361.001c2 30.667 8.99902 56.8311 20.999 78.498s27.5 39.334 46.5 53.001s41 23.667 66 30s51.5 9.5 79.5 9.5c26 0 50.5 -2.83301 73.5 -8.5
s43 -14.667 60 -27s30.333 -28.833 40 -49.5s14.5 -46 14.5 -76v-282c0 -16.667 1.83301 -29 5.5 -37s10.834 -12 21.501 -12c4 0 9.16699 0.833008 15.5 2.5s13.166 3.83398 20.499 6.50098v-47c-7.33301 -2.66699 -15.666 -5 -24.999 -7s-16.666 -3 -21.999 -3
c-24.667 0 -42.667 5.33301 -54 16s-18.666 32 -21.999 64h-2c-23.333 -28 -51.333 -49.333 -84 -64s-68 -22 -106 -22c-22.667 0 -44.5 3 -65.5 9s-39.5 15.333 -55.5 28s-28.667 28.167 -38 46.5s-14 40.166 -14 65.499c0 88 60.333 140 181 156l115 15
c25.333 3.33301 43.166 9.5 53.499 18.5s15.5 25.167 15.5 48.5c0 30.667 -9.83301 55.834 -29.5 75.501s-52.834 29.5 -99.501 29.5c-20.667 0 -39.667 -1.83301 -57 -5.5s-32.5 -10 -45.5 -19s-23.667 -21 -32 -36s-13.833 -33.833 -16.5 -56.5h-61z" />
    <glyph glyph-name="b" unicode="b" horiz-adv-x="596" 
d="M307 478c-52 0 -94.168 -19.334 -126.501 -58.001s-48.5 -94.667 -48.5 -168c0 -28 3.83301 -54.833 11.5 -80.5s18.834 -48.167 33.501 -67.5s33 -34.833 55 -46.5s47 -17.5 75 -17.5c25.333 0 48.833 5.33301 70.5 16s40.334 25.5 56.001 44.5s28 41.333 37 67
s13.5 53.167 13.5 82.5c0 31.333 -3.33301 60.833 -10 88.5s-17.334 51.834 -32.001 72.501s-33.167 37 -55.5 49s-48.833 18 -79.5 18zM131.999 -0.000976562l-60.001 -0.00195312v720h60v-285c19.333 32 45.833 56.167 79.5 72.5s68.834 24.5 105.501 24.5
c39.333 0 73.5 -7.5 102.5 -22.5s53 -35 72 -60s33.167 -54.167 42.5 -87.5s14 -68 14 -104c0 -38 -4.33301 -73.667 -13 -107s-22.5 -62.166 -41.5 -86.499s-43.167 -43.5 -72.5 -57.5s-65 -21 -107 -21c-16.667 0 -33.667 2.33301 -51 7s-34.166 11.334 -50.499 20.001
s-31.333 19.5 -45 32.5s-24.834 28.167 -33.501 45.5h-2v-91z" />
    <glyph glyph-name="c" unicode="c" horiz-adv-x="557" 
d="M440 355c-10.667 38.667 -29.0029 68.8359 -55.0029 90.5029s-59 32.5 -99 32.5c-30.667 0 -57 -6.33301 -79 -19s-40 -29.5 -54 -50.5s-24.333 -44.667 -31 -71s-10 -52.833 -10 -79.5c0 -27.333 3.16699 -54 9.5 -80s16.5 -49.333 30.5 -70s32 -37.167 54 -49.5
s48.667 -18.5 80 -18.5c44.667 0 80.5 12.333 107.5 37s44.167 58.667 51.5 102h64c-5.33301 -28.667 -13.833 -54.834 -25.5 -78.501s-26.667 -44 -45 -61s-40.166 -30.167 -65.499 -39.5s-54.333 -14 -87 -14c-41.333 0 -77 7 -107 21s-54.667 33.167 -74 57.5
s-33.666 53.166 -42.999 86.499s-14 69 -14 107c0 36 5.16699 70.5 15.5 103.5s25.5 62.167 45.5 87.5s44.833 45.5 74.5 60.5s63.834 22.5 102.501 22.5c60 0 108.5 -14.333 145.5 -43s60.167 -73.334 69.5 -134.001h-61z" />
    <glyph glyph-name="d" unicode="d" horiz-adv-x="596" 
d="M287 478c-52 0 -94.168 -19.334 -126.501 -58.001s-48.5 -94.667 -48.5 -168c0 -28 3.83301 -54.833 11.5 -80.5s18.834 -48.167 33.501 -67.5s33 -34.833 55 -46.5s47 -17.5 75 -17.5c25.333 0 48.833 5.33301 70.5 16s40.334 25.5 56.001 44.5s28 41.333 37 67
s13.5 53.167 13.5 82.5c0 31.333 -3.33301 60.833 -10 88.5s-17.334 51.834 -32.001 72.501s-33.167 37 -55.5 49s-48.833 18 -79.5 18zM463.999 719.999l59.999 0.00195312v-720h-60v91h-2c-8.66699 -17.333 -19.834 -32.5 -33.501 -45.5s-28.667 -23.833 -45 -32.5
s-33.166 -15.334 -50.499 -20.001s-34.333 -7 -51 -7c-42 0 -77.667 7 -107 21s-53.5 33.167 -72.5 57.5s-32.833 53.166 -41.5 86.499s-13 69 -13 107c0 36 4.66699 70.667 14 104s23.5 62.5 42.5 87.5s43 45 72 60s63.167 22.5 102.5 22.5
c36.667 0 71.834 -8.16699 105.501 -24.5s60.167 -40.5 79.5 -72.5v285z" />
    <glyph glyph-name="e" unicode="e" horiz-adv-x="562" 
d="M450 295c0 25.333 -3.49805 49.168 -10.498 71.501s-17.333 41.666 -31 57.999s-30.834 29.333 -51.501 39s-44.334 14.5 -71.001 14.5s-50.167 -5 -70.5 -15s-37.666 -23.333 -51.999 -40s-25.833 -36 -34.5 -58s-14.334 -45.333 -17.001 -70h338zM112.002 245.002
c0 -28 3.66797 -54.3311 11.001 -78.998s18.333 -46.334 33 -65.001s32.834 -33.5 54.501 -44.5s46.834 -16.5 75.501 -16.5c39.333 0 73 10.333 101 31s46.667 50 56 88h67c-7.33301 -24.667 -17 -47.5 -29 -68.5s-27 -39.333 -45 -55s-39.333 -27.834 -64 -36.501
s-53.334 -13 -86.001 -13c-41.333 0 -77 7 -107 21s-54.667 33.167 -74 57.5s-33.666 53 -42.999 86s-14 68.5 -14 106.5s5.5 73.667 16.5 107s26.667 62.5 47 87.5s45.166 44.667 74.499 59s62.666 21.5 99.999 21.5c71.333 0 127.166 -24.333 167.499 -73
s60.5 -120 60.5 -214h-402z" />
    <glyph glyph-name="f" unicode="f" horiz-adv-x="278" 
d="M20 468v50.002h77v82c0 41.333 8.33301 73.666 25 96.999s45 35 85 35c9.33301 0 18 -0.333008 26 -1s16 -2.33398 24 -5.00098v-51c-13.333 3.33301 -25.333 5 -36 5c-15.333 0 -27.333 -2.83301 -36 -8.5s-15 -13.167 -19 -22.5s-6.5 -19.833 -7.5 -31.5
s-1.5 -23.5 -1.5 -35.5v-64h100v-50h-100v-468h-60v468h-77z" />
    <glyph glyph-name="g" unicode="g" horiz-adv-x="596" 
d="M287 478c-52 0 -94.168 -19.334 -126.501 -58.001s-48.5 -94.667 -48.5 -168c0 -28 3.83301 -54.833 11.5 -80.5s18.834 -48.167 33.501 -67.5s33 -34.833 55 -46.5s47 -17.5 75 -17.5c25.333 0 48.833 5.33301 70.5 16s40.334 25.5 56.001 44.5s28 41.333 37 67
s13.5 53.167 13.5 82.5c0 31.333 -3.33301 60.833 -10 88.5s-17.334 51.834 -32.001 72.501s-33.167 37 -55.5 49s-48.833 18 -79.5 18zM523.999 517.999l-0.00292969 -468c0 -34.667 -3.5 -67.834 -10.5 -99.501s-19.5 -59.5 -37.5 -83.5s-42.667 -43.167 -74 -57.5
s-71.666 -21.5 -120.999 -21.5c-38 0 -70.667 4.83301 -98 14.5s-49.666 21.834 -66.999 36.501s-30.5 30.834 -39.5 48.501s-13.833 34.167 -14.5 49.5h64c4.66699 -19.333 12 -35.166 22 -47.499s21.833 -22 35.5 -29s28.834 -11.833 45.501 -14.5s34 -4 52 -4
c40.667 0 73.167 7 97.5 21s42.833 32.333 55.5 55s20.834 48.5 24.501 77.5s5.5 58.167 5.5 87.5c-19.333 -32 -45.833 -56.167 -79.5 -72.5s-68.834 -24.5 -105.501 -24.5c-39.333 0 -73.5 7.5 -102.5 22.5s-53 35 -72 60s-33.167 54.167 -42.5 87.5s-14 68 -14 104
c0 38 4.33301 73.667 13 107s22.5 62.166 41.5 86.499s43.167 43.5 72.5 57.5s65 21 107 21c16.667 0 33.667 -2.33301 51 -7s34.166 -11.334 50.499 -20.001s31.333 -19.667 45 -33s24.834 -28.333 33.501 -45h2v91h60z" />
    <glyph glyph-name="h" unicode="h" horiz-adv-x="555" 
d="M132 446c24 25.333 48.833 46 74.5 62s56.5 24 92.5 24c56.667 0 101.5 -15.667 134.5 -47s49.5 -80 49.5 -146v-339h-60v338c0 46.667 -10.333 81.667 -31 105s-55 35 -103 35c-28 0 -52 -5.5 -72 -16.5s-36.167 -25.5 -48.5 -43.5s-21.5 -38.667 -27.5 -62
s-9 -47.333 -9 -72v-284h-60v720h60v-274z" />
    <glyph glyph-name="i" unicode="i" horiz-adv-x="204" 
d="M132 0h-60v518h60v-518zM72 631v89h60v-89h-60z" />
    <glyph glyph-name="j" unicode="j" horiz-adv-x="220" 
d="M148 518v-586.997c0 -22 -1 -41.333 -3 -58s-6.5 -30.834 -13.5 -42.501s-17.333 -20.334 -31 -26.001s-32.5 -8.5 -56.5 -8.5c-14.667 0 -27.667 1.33301 -39 4v53c3.33301 -0.666992 8 -1.16699 14 -1.5s9.66699 -0.5 11 -0.5c23.333 0 38.833 6.16699 46.5 18.5
s11.5 30.166 11.5 53.499v595h60zM88 631.003v89h60v-89h-60z" />
    <glyph glyph-name="k" unicode="k" horiz-adv-x="504" 
d="M132 272l254 246h82l-194 -187l217 -331h-67l-194 289l-98 -93v-196h-60v720h60v-448z" />
    <glyph glyph-name="l" unicode="l" horiz-adv-x="204" 
d="M132 0h-60v720h60v-720z" />
    <glyph glyph-name="m" unicode="m" horiz-adv-x="848" 
d="M132 440l2.00293 0.000976562c15.333 30 37.333 52.833 66 68.5s60 23.5 94 23.5c24 0 44.333 -2.66699 61 -8s30.834 -12.5 42.501 -21.5s21.334 -19.5 29.001 -31.5s14.167 -25 19.5 -39c17.333 34 40.5 59.167 69.5 75.5s62.167 24.5 99.5 24.5
c35.333 0 63.5 -5.83301 84.5 -17.5s37.167 -27 48.5 -46s18.833 -40.833 22.5 -65.5s5.5 -50 5.5 -76v-327h-60v358c0 37.333 -7.83301 66.666 -23.5 87.999s-44.834 32 -87.501 32c-24.667 0 -46.334 -4.83301 -65.001 -14.5s-34.334 -23.167 -47.001 -40.5
s-22.334 -38.166 -29.001 -62.499s-10 -51.5 -10 -81.5v-279h-60v358c0 37.333 -7.83301 66.666 -23.5 87.999s-44.834 32 -87.501 32c-26.667 0 -49.5 -5.5 -68.5 -16.5s-34.667 -25.667 -47 -44s-21.333 -39.5 -27 -63.5s-8.5 -49 -8.5 -75v-279h-60v518h60v-78z" />
    <glyph glyph-name="n" unicode="n" horiz-adv-x="555" 
d="M132 446c24 25.333 48.833 46 74.5 62s56.5 24 92.5 24c56.667 0 101.5 -15.667 134.5 -47s49.5 -80 49.5 -146v-339h-60v338c0 46.667 -10.333 81.667 -31 105s-55 35 -103 35c-28 0 -52 -5.5 -72 -16.5s-36.167 -25.5 -48.5 -43.5s-21.5 -38.667 -27.5 -62
s-9 -47.333 -9 -72v-284h-60v518h60v-72z" />
    <glyph glyph-name="o" unicode="o" horiz-adv-x="576" 
d="M288 532c40.667 0 76.001 -7.16992 106.001 -21.5029s55 -33.666 75 -57.999s34.833 -53.166 44.5 -86.499s14.5 -69 14.5 -107c0 -41.333 -5.66699 -78.666 -17 -111.999s-27.5 -62 -48.5 -86s-46.333 -42.5 -76 -55.5s-62.5 -19.5 -98.5 -19.5
c-33.333 0 -64.5 5.66699 -93.5 17s-54.333 28.5 -76 51.5s-38.834 51.5 -51.501 85.5s-19 73.667 -19 119c0 38 5 73.5 15 106.5s25 61.833 45 86.5s45 44.167 75 58.5s65 21.5 105 21.5zM288.001 477.997c-31.333 0 -58.167 -6.1709 -80.5 -18.5039
s-40.5 -28.666 -54.5 -48.999s-24.333 -43.666 -31 -69.999s-10 -53.5 -10 -81.5c0 -32 3.83301 -61.5 11.5 -88.5s18.834 -50.167 33.501 -69.5s33 -34.333 55 -45s47.333 -16 76 -16c31.333 0 58.166 6.16699 80.499 18.5s40.5 28.833 54.5 49.5s24.333 44 31 70
s10 53 10 81c0 30.667 -3.16699 59.334 -9.5 86.001s-16.5 49.834 -30.5 69.501s-32.167 35.167 -54.5 46.5s-49.5 17 -81.5 17z" />
    <glyph glyph-name="p" unicode="p" horiz-adv-x="596" 
d="M307 478c-52 0 -94.168 -19.334 -126.501 -58.001s-48.5 -94.667 -48.5 -168c0 -28 3.83301 -54.833 11.5 -80.5s18.834 -48.167 33.501 -67.5s33 -34.833 55 -46.5s47 -17.5 75 -17.5c25.333 0 48.833 5.33301 70.5 16s40.334 25.5 56.001 44.5s28 41.333 37 67
s13.5 53.167 13.5 82.5c0 31.333 -3.33301 60.833 -10 88.5s-17.334 51.834 -32.001 72.501s-33.167 37 -55.5 49s-48.833 18 -79.5 18zM131.999 -204.001l-59.999 -0.00195312v722h60v-91h2c8.66699 16.667 19.834 31.667 33.501 45s28.667 24.333 45 33
s33.166 15.334 50.499 20.001s34.333 7 51 7c42 0 77.667 -7 107 -21s53.5 -33.167 72.5 -57.5s32.833 -53.166 41.5 -86.499s13 -69 13 -107c0 -36 -4.66699 -70.667 -14 -104s-23.5 -62.5 -42.5 -87.5s-43 -45 -72 -60s-63.167 -22.5 -102.5 -22.5
c-36.667 0 -71.834 8.16699 -105.501 24.5s-60.167 40.5 -79.5 72.5v-287z" />
    <glyph glyph-name="q" unicode="q" horiz-adv-x="596" 
d="M287 478c-52 0 -94.168 -19.334 -126.501 -58.001s-48.5 -94.667 -48.5 -168c0 -28 3.83301 -54.833 11.5 -80.5s18.834 -48.167 33.501 -67.5s33 -34.833 55 -46.5s47 -17.5 75 -17.5c25.333 0 48.833 5.33301 70.5 16s40.334 25.5 56.001 44.5s28 41.333 37 67
s13.5 53.167 13.5 82.5c0 31.333 -3.33301 60.833 -10 88.5s-17.334 51.834 -32.001 72.501s-33.167 37 -55.5 49s-48.833 18 -79.5 18zM523.999 517.999l0.000976562 -721.998h-60v287c-19.333 -32 -45.833 -56.167 -79.5 -72.5s-68.834 -24.5 -105.501 -24.5
c-39.333 0 -73.5 7.5 -102.5 22.5s-53 35 -72 60s-33.167 54.167 -42.5 87.5s-14 68 -14 104c0 38 4.33301 73.667 13 107s22.5 62.166 41.5 86.499s43.167 43.5 72.5 57.5s65 21 107 21c16.667 0 33.667 -2.33301 51 -7s34.166 -11.334 50.499 -20.001
s31.333 -19.667 45 -33s24.834 -28.333 33.501 -45h2v91h60z" />
    <glyph glyph-name="r" unicode="r" horiz-adv-x="330" 
d="M132 421h2.00098c16.667 41.333 38.167 70.166 64.5 86.499s61.166 24.5 104.499 24.5v-65c-34 0 -62 -5.66699 -84 -17s-39.5 -26.666 -52.5 -45.999s-22 -42 -27 -68s-7.5 -53.333 -7.5 -82v-254h-60v518h60v-97z" />
    <glyph glyph-name="s" unicode="s" horiz-adv-x="492" 
d="M112 389c0 -23.333 8.17383 -41.166 24.5068 -53.499s36.833 -22.333 61.5 -30s51.334 -14.5 80.001 -20.5s55.334 -14.5 80.001 -25.5s45.167 -25.833 61.5 -44.5s24.5 -44.667 24.5 -78c0 -24.667 -5.33301 -46.5 -16 -65.5s-25.334 -34.833 -44.001 -47.5
s-40.834 -22.167 -66.501 -28.5s-53.834 -9.5 -84.501 -9.5s-57.834 4.5 -81.501 13.5s-43.834 21.5 -60.501 37.5s-29.667 34.667 -39 56s-14.666 44.333 -15.999 69h61c9.33301 -44.667 26.166 -76.167 50.499 -94.5s59.166 -27.5 104.499 -27.5c22 0 41 2.66699 57 8
s29.167 12.5 39.5 21.5s18.166 19.167 23.499 30.5s8 23.333 8 36c0 25.333 -8.16699 44.166 -24.5 56.499s-36.833 22 -61.5 29s-51.334 13 -80.001 18s-55.334 12.5 -80.001 22.5s-45.167 24.333 -61.5 43s-24.5 45 -24.5 79c0 43.333 15.833 78.833 47.5 106.5
s76.5 41.5 134.5 41.5c56 0 101.5 -12.5 136.5 -37.5s56.167 -66.833 63.5 -125.5h-61c-5.33301 40 -20.5 68.167 -45.5 84.5s-56.5 24.5 -94.5 24.5s-67 -8.16699 -87 -24.5s-30 -37.833 -30 -64.5z" />
    <glyph glyph-name="t" unicode="t" horiz-adv-x="278" 
d="M254 -2c-7.33301 -1.33301 -17 -3.66699 -29 -7s-25.333 -5 -40 -5c-30 0 -52.833 7.5 -68.5 22.5s-23.5 41.833 -23.5 80.5v379h-73v50h73v144h60v-144h97v-50h-97v-355c0 -12.667 0.333008 -23.667 1 -33s2.66699 -17 6 -23s8.5 -10.333 15.5 -13s16.833 -4 29.5 -4
c8 0 16.167 0.666992 24.5 2s16.5 3 24.5 5v-49z" />
    <glyph glyph-name="u" unicode="u" horiz-adv-x="555" 
d="M132 518l-0.00195312 -339.999c0 -44.667 10.333 -78.834 31 -102.501s54.667 -35.5 102 -35.5c24.667 0 46.834 4.83301 66.501 14.5s36.167 23.167 49.5 40.5s23.666 38 30.999 62s11 50.333 11 79v282h60v-518h-60v72h-1c-19.333 -24 -42 -44.333 -68 -61
s-58.667 -25 -98 -25c-34.667 0 -63.667 4.83301 -87 14.5s-42.166 23.167 -56.499 40.5s-24.666 37.5 -30.999 60.5s-9.5 48.167 -9.5 75.5v341h60z" />
    <glyph glyph-name="v" unicode="v" horiz-adv-x="500" 
d="M82 518l168 -444l168 444h65l-201 -518h-67l-198 518h65z" />
    <glyph glyph-name="w" unicode="w" horiz-adv-x="722" 
d="M75 518l134 -442l120 442h67l114 -438l136 438h61l-168 -518h-64l-113 435h-2l-115 -435h-72l-158 518h60z" />
    <glyph glyph-name="x" unicode="x" horiz-adv-x="500" 
d="M108 518l143 -206l147 206h76l-187 -250l194 -268h-72l-157 224l-161 -224h-73l199 268l-183 250h74z" />
    <glyph glyph-name="y" unicode="y" horiz-adv-x="490" 
d="M85 518l166.001 -445.002l166 445h65l-193 -511c-12 -32.667 -23.5 -62 -34.5 -88s-22.667 -48.167 -35 -66.5s-26 -32.333 -41 -42s-32.833 -14.5 -53.5 -14.5c-10.667 0 -20.834 0.666992 -30.501 2s-18.5 3 -26.5 5v56l24.5 -4c8.33301 -1.33301 16.833 -2 25.5 -2
c10 0 19 2 27 6s15.833 11.333 23.5 22s15.5 25.334 23.5 44.001s17 42.334 27 71.001l-201 522h67z" />
    <glyph glyph-name="z" unicode="z" horiz-adv-x="500" 
d="M454 518v-53l-344 -415h357v-50h-434v53l344 415h-321v50h398z" />
    <glyph glyph-name="braceleft" unicode="{" horiz-adv-x="333" 
d="M285 741c-32 -9.33301 -54.667 -23.335 -68 -42.002s-20 -45 -20 -79v-206c0 -37.333 -5.5 -67.333 -16.5 -90s-32.833 -37.667 -65.5 -45v-2c17.333 -4.66699 31.333 -11.5 42 -20.5s19 -19.833 25 -32.5s10 -27 12 -43s3 -33.667 3 -53v-192c0 -30 6 -55.667 18 -77
s34.667 -36.333 68 -45v-1c-30 0 -54.667 2.83301 -74 8.5s-34.666 14.834 -45.999 27.501s-19.166 29.334 -23.499 50.001s-6.5 46 -6.5 76v182c0 16.667 -0.833008 31.334 -2.5 44.001s-5.33398 23.667 -11.001 33s-13.834 17.5 -24.501 24.5s-25.334 13.167 -44.001 18.5
v2c34 6.66699 56.167 20 66.5 40s15.5 45.333 15.5 76v204c0 25.333 2.33301 47.166 7 65.499s12.834 33.333 24.501 45s27.167 20.167 46.5 25.5s44 8 74 8v-2z" />
    <glyph glyph-name="bar" unicode="|" horiz-adv-x="222" 
d="M81 739h60v-739h-60v739z" />
    <glyph glyph-name="braceright" unicode="}" horiz-adv-x="333" 
d="M51 743c30 0 54.668 -2.66406 74.001 -7.99707s34.833 -13.833 46.5 -25.5s19.834 -26.667 24.501 -45s7 -40.166 7 -65.499v-204c0 -30.667 5.16699 -56 15.5 -76s32.5 -33.333 66.5 -40v-2c-18.667 -5.33301 -33.334 -11.5 -44.001 -18.5
s-18.834 -15.167 -24.501 -24.5s-9.33398 -20.333 -11.001 -33s-2.5 -27.334 -2.5 -44.001v-182c0 -30 -2.16699 -55.333 -6.5 -76s-12.166 -37.334 -23.499 -50.001s-26.666 -21.834 -45.999 -27.501s-44 -8.5 -74 -8.5v1c33.333 8.66699 56 23.667 68 45s18 47 18 77v192
c0 19.333 1 37 3 53s6 30.333 12 43s14.333 23.5 25 32.5s24.667 15.833 42 20.5v2c-16.667 4 -30.334 9.66699 -41.001 17s-19 16.666 -25 27.999s-10.167 24.5 -12.5 39.5s-3.5 31.833 -3.5 50.5v206c0 34 -6.66699 60.333 -20 79s-36 32.667 -68 42v2z" />
    <glyph glyph-name="asciitilde" unicode="~" horiz-adv-x="660" 
d="M221 324c18.667 0 37.999 -3.83496 57.999 -11.502s39.667 -16 59 -25s37.833 -17.167 55.5 -24.5s33.5 -11 47.5 -11c11.333 0 22 2.83301 32 8.5s19.167 12.834 27.5 21.501s15.833 18 22.5 28s12.334 19.667 17.001 29l40 -34
c-7.33301 -13.333 -15.5 -26.5 -24.5 -39.5s-19.333 -24.667 -31 -35s-24.5 -18.666 -38.5 -24.999s-29.333 -9.5 -46 -9.5c-16 0 -34.333 3.66699 -55 11s-41.167 15.5 -61.5 24.5l-58 25c-18.333 7.66699 -33.166 11.5 -44.499 11.5c-22 0 -41.333 -8.5 -58 -25.5
s-33.334 -39.833 -50.001 -68.5l-33 47l24.5 34c9 12 19.167 23.167 30.5 33.5s24 18.833 38 25.5s30 10 48 10z" />
    <glyph glyph-name="currency" unicode="&#xa4;" 
d="M75 152c-16 23.333 -27.999 46.667 -35.999 70s-12 49.333 -12 78c0 30 3.66699 56.667 11 80s19.666 47 36.999 71l-43 43l52 53l44 -43c22.667 17.333 47 29.833 73 37.5s53 11.5 81 11.5s53.667 -4.33301 77 -13s46.333 -20.667 69 -36l44 43l52 -53l-43 -43
c17.333 -24.667 29.666 -49.167 36.999 -73.5s11 -51.833 11 -82.5c0 -28 -4.16699 -53 -12.5 -75s-20.166 -44.667 -35.499 -68l43 -42l-52 -53l-44 43c-45.333 -33.333 -97 -50 -155 -50c-28 0 -53.667 4.5 -77 13.5s-46 21.167 -68 36.5l-44 -43l-52 53zM282.001 481.001
c-26 0 -50.167 -4.49707 -72.5 -13.4971s-41.666 -21.667 -57.999 -38s-29.166 -35.5 -38.499 -57.5s-14 -46 -14 -72c0 -24.667 4.66699 -47.834 14 -69.501s22.166 -40.5 38.499 -56.5s35.166 -28.667 56.499 -38s44 -14 68 -14c24.667 0 48 4.66699 70 14
s41.333 22.166 58 38.499s29.667 35.5 39 57.5s14 45.667 14 71c0 24 -4.5 46.667 -13.5 68s-21.5 40.166 -37.5 56.499s-34.667 29.333 -56 39s-44 14.5 -68 14.5z" />
    <glyph glyph-name="brokenbar" unicode="&#xa6;" horiz-adv-x="222" 
d="M81 296h60v-296h-60v296zM81 739h60v-296h-60v296z" />
    <glyph glyph-name="section" unicode="&#xa7;" 
d="M190 447c-26.667 -11.333 -48.002 -25.3291 -64.002 -41.9961s-24 -37.334 -24 -62.001c0 -12.667 2.66699 -24.334 8 -35.001s12 -20.5 20 -29.5s17 -17.333 27 -25s20 -14.834 30 -21.501l178 -115c10.667 6 21.334 12.667 32.001 20s20.334 15.666 29.001 24.999
s15.5 19.5 20.5 30.5s7.5 23.5 7.5 37.5c0 13.333 -2.83301 25.5 -8.5 36.5s-13 21 -22 30s-18.833 17.167 -29.5 24.5s-21 14 -31 20zM401.998 560.004c0 42 -9.99512 73.332 -29.9951 93.999s-51.333 31 -94 31c-32 0 -58.667 -7.83301 -80 -23.5s-32 -40.167 -32 -73.5
c0 -22.667 8.5 -43 25.5 -61s38.167 -35.167 63.5 -51.5s52.666 -32.333 81.999 -48s56.666 -32.5 81.999 -50.5s46.5 -38.167 63.5 -60.5s25.5 -47.833 25.5 -76.5c0 -19.333 -3 -36.5 -9 -51.5s-14 -28.667 -24 -41s-21.667 -23.5 -35 -33.5l-42 -30
c17.333 -14.667 31.333 -31.167 42 -49.5s16 -38.5 16 -60.5c0 -25.333 -4.66699 -47.666 -14 -66.999s-22 -35.5 -38 -48.5s-34.667 -22.833 -56 -29.5s-44 -10 -68 -10c-28 0 -53.5 4.5 -76.5 13.5s-42.5 21.5 -58.5 37.5s-28.333 35 -37 57s-13 46.333 -13 73h60
c0 -41.333 10.5 -72.833 31.5 -94.5s52.5 -32.5 94.5 -32.5c14 0 27.667 2 41 6s25.166 10 35.499 18s18.666 17.833 24.999 29.5s9.5 25.167 9.5 40.5s-3.33301 29.333 -10 42s-15.334 24.5 -26.001 35.5s-22.667 21.333 -36 31s-26.333 18.5 -39 26.5l-131 82
c-32 19.333 -57 40.833 -75 64.5s-27 52.5 -27 86.5s10.333 63.333 31 88s46 43.334 76 56.001c-15.333 17.333 -28 34.666 -38 51.999s-15 38.333 -15 63c0 19.333 3.83301 37.833 11.5 55.5s19.167 33.167 34.5 46.5s34.333 23.833 57 31.5s48.667 11.5 78 11.5
c56 0 98.833 -16.167 128.5 -48.5s44.5 -75.833 44.5 -130.5h-54z" />
    <glyph glyph-name="copyright" unicode="&#xa9;" horiz-adv-x="800" 
d="M401 -19c-52.667 0 -102 10 -148 30s-86.167 47.167 -120.5 81.5s-61.5 74.5 -81.5 120.5s-30 95.333 -30 148c0 52 10 101 30 147s47.167 86 81.5 120s74.5 61 120.5 81s95.333 30 148 30c52 0 101 -10 147 -30s86.167 -47 120.5 -81s61.333 -74 81 -120
s29.5 -95 29.5 -147c0 -52.667 -9.83301 -102 -29.5 -148s-46.667 -86.167 -81 -120.5s-74.5 -61.5 -120.5 -81.5s-95 -30 -147 -30zM401 31c46 0 88.5 8.5 127.5 25.5s72.5 40.333 100.5 70s50 64.5 66 104.5s24 83.333 24 130c0 46 -8 89 -24 129s-38 74.667 -66 104
s-61.5 52.5 -100.5 69.5s-81.5 25.5 -127.5 25.5s-88.667 -8.5 -128 -25.5s-73.166 -40.167 -101.499 -69.5s-50.5 -64 -66.5 -104s-24 -83 -24 -129c0 -46.667 8 -90 24 -130s38.167 -74.833 66.5 -104.5s62.166 -53 101.499 -70s82 -25.5 128 -25.5zM593 292
c-2 -22.667 -8.1709 -43.1641 -18.5039 -61.4971s-23.5 -33.833 -39.5 -46.5s-34 -22.334 -54 -29.001s-41 -10 -63 -10c-32 0 -60.833 5.66699 -86.5 17s-47.667 26.666 -66 45.999s-32.5 42.333 -42.5 69s-15 55.667 -15 87s4.66699 60.166 14 86.499s23 49.166 41 68.499
s39.833 34.5 65.5 45.5s54.5 16.5 86.5 16.5c46 0 85.333 -12.333 118 -37s52.667 -60 60 -106h-54c-5.33301 30 -19.666 54 -42.999 72s-50 27 -80 27c-25.333 0 -47.333 -4.5 -66 -13.5s-34.167 -21.333 -46.5 -37s-21.666 -34 -27.999 -55s-9.5 -43.167 -9.5 -66.5
c0 -22.667 3.33301 -44.667 10 -66s16.5 -40.166 29.5 -56.499s28.833 -29.333 47.5 -39s40.334 -14.5 65.001 -14.5c14.667 0 28.834 2.33301 42.501 7s26 11.5 37 20.5s20.167 19.833 27.5 32.5s12 27 14 43h54z" />
    <glyph glyph-name="guillemotleft" unicode="&#xab;" 
d="M297 291l146 113v-63l-104 -82l104 -80v-62l-146 111v63zM113 291l146 113v-63l-104 -82l104 -80v-62l-146 111v63z" />
    <glyph glyph-name="logicalnot" unicode="&#xac;" horiz-adv-x="660" 
d="M516 220h-436v60h500v-266h-64v206z" />
    <glyph glyph-name="sfthyphen" unicode="&#xad;" horiz-adv-x="333" 
d="M293 280v-60h-253v60h253z" />
    <glyph glyph-name="registered" unicode="&#xae;" horiz-adv-x="800" 
d="M401 -19c-52.667 0 -102 10 -148 30s-86.167 47.167 -120.5 81.5s-61.5 74.5 -81.5 120.5s-30 95.333 -30 148c0 52 10 101 30 147s47.167 86 81.5 120s74.5 61 120.5 81s95.333 30 148 30c52 0 101 -10 147 -30s86.167 -47 120.5 -81s61.333 -74 81 -120
s29.5 -95 29.5 -147c0 -52.667 -9.83301 -102 -29.5 -148s-46.667 -86.167 -81 -120.5s-74.5 -61.5 -120.5 -81.5s-95 -30 -147 -30zM401 31c46 0 88.5 8.5 127.5 25.5s72.5 40.333 100.5 70s50 64.5 66 104.5s24 83.333 24 130c0 46 -8 89 -24 129s-38 74.667 -66 104
s-61.5 52.5 -100.5 69.5s-81.5 25.5 -127.5 25.5s-88.667 -8.5 -128 -25.5s-73.166 -40.167 -101.499 -69.5s-50.5 -64 -66.5 -104s-24 -83 -24 -129c0 -46.667 8 -90 24 -130s38.167 -74.833 66.5 -104.5s62.166 -53 101.499 -70s82 -25.5 128 -25.5zM260 572h185
c56 0 95 -10 117 -30s33 -47.333 33 -82c0 -41.333 -12.5 -71 -37.5 -89s-56.833 -27 -95.5 -27l128 -195h-62l-121 195h-95v-195h-52v423zM312 385l117.001 -0.000976562c14.667 0 28.667 1 42 3s25 5.66699 35 11s18 13 24 23s9 23 9 39
c0 16.667 -3.16699 29.834 -9.5 39.501s-14.5 17 -24.5 22s-21.333 8.33301 -34 10s-25.334 2.5 -38.001 2.5h-121v-150z" />
    <glyph glyph-name="degree" unicode="&#xb0;" horiz-adv-x="400" 
d="M351 555c0 -20.667 -4 -40.167 -12 -58.5s-18.833 -34.166 -32.5 -47.499s-29.5 -24 -47.5 -32s-37.333 -12 -58 -12s-40.167 4 -58.5 12s-34.166 18.667 -47.499 32s-24 29.166 -32 47.499s-12 37.833 -12 58.5c0 20 4 39.167 12 57.5s18.667 34.333 32 48
s29.166 24.5 47.499 32.5s37.833 12 58.5 12s40 -4 58 -12s33.833 -18.833 47.5 -32.5s24.5 -29.5 32.5 -47.5s12 -37.333 12 -58zM311 555c0 14.667 -3 28.667 -9 42s-14 25 -24 35s-21.667 18 -35 24s-27.666 9 -42.999 9s-29.5 -3 -42.5 -9s-24.5 -14 -34.5 -24
s-17.833 -21.667 -23.5 -35s-8.5 -27.333 -8.5 -42c0 -15.333 2.83301 -29.666 8.5 -42.999s13.5 -25 23.5 -35s21.667 -17.833 35 -23.5s27.666 -8.5 42.999 -8.5c14.667 0 28.667 2.83301 42 8.5s25 13.5 35 23.5s18 21.667 24 35s9 27.666 9 42.999z" />
    <glyph glyph-name="plusminus" unicode="&#xb1;" horiz-adv-x="660" 
d="M300 592h60v-170h220v-60h-220v-170h-60v170h-220v60h220v170zM80 152h500v-60h-500v60z" />
    <glyph glyph-name="mu" unicode="&#xb5;" horiz-adv-x="555" 
d="M132 518v-339.999c0 -44.667 10.333 -78.834 31 -102.501s54.667 -35.5 102 -35.5c24.667 0 46.834 4.83301 66.501 14.5s36.167 23.167 49.5 40.5s23.666 38 30.999 62s11 50.333 11 79v282h60v-518h-60v72h-1c-20 -25.333 -43 -46 -69 -62s-58.333 -24 -97 -24
c-28 0 -52.333 3.33301 -73 10s-37.667 14 -51 22v-222h-60v722h60z" />
    <glyph glyph-name="paragraph" unicode="&#xb6;" horiz-adv-x="650" 
d="M506 -146h-60.001v799h-128v-799h-60v482c-25.333 0 -49.666 5 -72.999 15s-43.833 23.667 -61.5 41s-31.667 37.5 -42 60.5s-15.5 47.5 -15.5 73.5c0 62.667 19.5 110.667 58.5 144s93.833 50 164.5 50h217v-866z" />
    <glyph glyph-name="periodcentered" unicode="&#xb7;" horiz-adv-x="278" 
d="M139 398c13.333 0 24.666 -4.66699 33.999 -14s14 -20.666 14 -33.999s-4.66699 -24.833 -14 -34.5s-20.666 -14.5 -33.999 -14.5s-24.833 4.83301 -34.5 14.5s-14.5 21.167 -14.5 34.5s5 24.666 15 33.999s21.333 14 34 14z" />
    <glyph glyph-name="guillemotright" unicode="&#xbb;" 
d="M443 230l-146 -113v63l104 82l-104 80v62l146 -111v-63zM259 230l-146 -113v63l104 82l-104 80v62l146 -111v-63z" />
    <glyph glyph-name="afii10023" unicode="&#x401;" horiz-adv-x="611" 
d="M560 720v-58h-411v-251h371v-58h-371v-295h421v-58h-489v720h479zM204 786v89h60v-89h-60zM363 786v89h60v-89h-60z" />
    <glyph glyph-name="afii10051" unicode="&#x402;" horiz-adv-x="778" 
d="M312 405c6 0.666992 15.333 1.33496 28 2.00195s26.334 1.33398 41.001 2.00098s28.834 1.16699 42.501 1.5s24.5 0.5 32.5 0.5c52 0 95 -5.66699 129 -17s61.167 -26.833 81.5 -46.5s34.666 -42.334 42.999 -68.001s12.5 -52.5 12.5 -80.5c0 -36.667 -6 -67.667 -18 -93
s-28.5 -45.833 -49.5 -61.5s-46.333 -27 -76 -34s-61.834 -10.5 -96.501 -10.5h-83v58h30c40.667 0 75.167 2.16699 103.5 6.5s51.5 11.666 69.5 21.999s31.167 24.5 39.5 42.5s12.5 40.667 12.5 68c0 57.333 -17.667 97.666 -53 120.999s-91.333 35 -168 35
c-12 0 -24 -0.166992 -36 -0.5s-23.5 -1 -34.5 -2s-21 -2 -30 -3s-15.833 -1.83301 -20.5 -2.5v-345h-68v662h-228v58h524v-58h-228v-257z" />
    <glyph glyph-name="afii10052" unicode="&#x403;" horiz-adv-x="563" 
d="M545 720v-58h-396v-662h-68v720h464zM267 788l132 166h92l-164 -166h-60z" />
    <glyph glyph-name="afii10053" unicode="&#x404;" horiz-adv-x="722" 
d="M592 511c-14 61.333 -40.001 104.996 -78.001 130.996s-87.667 39 -149 39c-40 0 -75.5 -7.5 -106.5 -22.5s-57 -35 -78 -60s-37 -53.667 -48 -86s-16.5 -66.166 -16.5 -101.499h308v-58h-308c0 -41.333 4.5 -80.833 13.5 -118.5s23.5 -71 43.5 -100
s46.167 -52.167 78.5 -69.5s72.166 -26 119.499 -26c30.667 0 58.667 5 84 15s47.5 23.833 66.5 41.5s35 38.5 48 62.5s22.833 50.333 29.5 79h71c-8 -34.667 -19.667 -67.5 -35 -98.5s-35.5 -58.167 -60.5 -81.5s-55.333 -41.833 -91 -55.5s-77.5 -20.5 -125.5 -20.5
c-55.333 0 -102.666 10.167 -141.999 30.5s-71.5 47.833 -96.5 82.5s-43.167 74.834 -54.5 120.501s-17 94.167 -17 145.5c0 68.667 8.5 127 25.5 175s40.5 87.167 70.5 117.5s65.333 52.333 106 66s85 20.5 133 20.5c36.667 0 70.834 -4.83301 102.501 -14.5
s59.667 -24.167 84 -43.5s44.333 -43.166 60 -71.499s26.5 -61.166 32.5 -98.499h-70z" />
    <glyph glyph-name="afii10054" unicode="&#x405;" horiz-adv-x="627" 
d="M109 215c2.66699 -32 9.83105 -59.1699 21.498 -81.5029s26.667 -40.5 45 -54.5s39.5 -24.167 63.5 -30.5s49.667 -9.5 77 -9.5c32 0 59.667 4 83 12s42.333 18.833 57 32.5s25.5 29.5 32.5 47.5s10.5 37 10.5 57c0 28 -6.33301 50.667 -19 68s-29.167 31.5 -49.5 42.5
s-43.666 19.833 -69.999 26.5s-53.333 13.167 -81 19.5s-54.667 13.833 -81 22.5s-49.666 20.334 -69.999 35.001s-36.833 33.5 -49.5 56.5s-19 52.167 -19 87.5c0 24.667 5.16699 48.667 15.5 72s25.666 44 45.999 62s45.833 32.333 76.5 43s66 16 106 16
c40.667 0 76.167 -5.66699 106.5 -17s55.5 -26.833 75.5 -46.5s35 -42.5 45 -68.5s15 -53.667 15 -83h-65c0 27.333 -4.83301 51 -14.5 71s-22.834 36.333 -39.501 49s-35.667 22 -57 28s-43.333 9 -66 9c-31.333 0 -58.166 -4 -80.499 -12s-40.833 -18.5 -55.5 -31.5
s-25.334 -27.833 -32.001 -44.5s-10 -33.334 -10 -50.001c0 -27.333 6.33301 -49.166 19 -65.499s29.334 -29.666 50.001 -39.999s44.167 -18.666 70.5 -24.999s53.333 -12.5 81 -18.5s54.667 -13.167 81 -21.5s49.833 -20 70.5 -35s37.334 -34.167 50.001 -57.5
s19 -53 19 -89c0 -66.667 -23 -118.334 -69 -155.001s-110.667 -55 -194 -55c-37.333 0 -72 4.83301 -104 14.5s-59.667 24.334 -83 44.001s-41.5 44 -54.5 73s-19.5 63.167 -19.5 102.5h66z" />
    <glyph glyph-name="afii10055" unicode="&#x406;" horiz-adv-x="230" 
d="M149 0h-68v720h68v-720z" />
    <glyph glyph-name="afii10056" unicode="&#x407;" horiz-adv-x="230" 
d="M149 0h-68v720h68v-720zM0 786v89h60v-89h-60zM170 786v89h60v-89h-60z" />
    <glyph glyph-name="afii10057" unicode="&#x408;" horiz-adv-x="500" 
d="M419 720l0.00292969 -523.002c0 -70 -16.333 -123.5 -49 -160.5s-84 -55.5 -154 -55.5c-40.667 0 -73.334 6.83301 -98.001 20.5s-43.834 32 -57.501 55s-22.834 49.333 -27.501 79s-7 60.5 -7 92.5h68c0 -22 0.833008 -44.167 2.5 -66.5s6.66699 -42.166 15 -59.499
s21.333 -31.5 39 -42.5s42.167 -16.5 73.5 -16.5c46.667 0 79.5 13.333 98.5 40s28.5 65.334 28.5 116.001v521h68z" />
    <glyph glyph-name="afii10058" unicode="&#x409;" horiz-adv-x="1029" 
d="M546 720l-0.00292969 -308.999h171c33.333 0 65.5 -3.33301 96.5 -10s58.5 -18.167 82.5 -34.5s43.333 -38 58 -65s22 -60.5 22 -100.5c0 -27.333 -3.66699 -53 -11 -77s-20.166 -45.333 -38.499 -64s-43 -33.334 -74 -44.001s-69.833 -16 -116.5 -16h-258v662h-276v-312
c0 -65.333 -2.66699 -121 -8 -167s-13.5 -83.667 -24.5 -113s-24.833 -50.666 -41.5 -63.999s-36.334 -20 -59.001 -20c-9.33301 0 -17.666 0.5 -24.999 1.5s-16.666 3.16699 -27.999 6.5v55c7.33301 -1.33301 15.333 -2.5 24 -3.5s16.334 -1.5 23.001 -1.5
c23.333 0 41 28.167 53 84.5s18 147.166 18 272.499v319h412zM545.997 58.001l142.001 0.00292969c37.333 0 69.833 1.66699 97.5 5s50.5 10.166 68.5 20.499s31.5 25 40.5 44s13.5 44.167 13.5 75.5c0 30 -5.33301 54.667 -16 74s-25.334 34.666 -44.001 45.999
s-41 19.166 -67 23.499s-54 6.5 -84 6.5h-151v-295z" />
    <glyph glyph-name="afii10059" unicode="&#x40a;" horiz-adv-x="1041" 
d="M149 411l340.999 0.000976562v309h68v-309h171c33.333 0 65.5 -3.33301 96.5 -10s58.5 -18.167 82.5 -34.5s43.333 -38 58 -65s22 -60.5 22 -100.5c0 -27.333 -3.66699 -53 -11 -77s-20.166 -45.333 -38.499 -64s-43 -33.334 -74 -44.001s-69.833 -16 -116.5 -16h-258
v353h-341v-353h-68v720h68v-309zM557.999 58.001l142.001 0.00292969c37.333 0 69.833 1.66699 97.5 5s50.5 10.166 68.5 20.499s31.5 25 40.5 44s13.5 44.167 13.5 75.5c0 30 -5.33301 54.667 -16 74s-25.334 34.666 -44.001 45.999s-41 19.166 -67 23.499s-54 6.5 -84 6.5
h-151v-295z" />
    <glyph glyph-name="afii10060" unicode="&#x40b;" horiz-adv-x="778" 
d="M312 405c6 0.666992 15.332 1.33398 27.999 2.00098s26.334 1.33398 41.001 2.00098s28.834 1.16699 42.501 1.5s24.5 0.5 32.5 0.5c52 0 95 -5.66699 129 -17s61.167 -26.833 81.5 -46.5s34.666 -42.334 42.999 -68.001s12.5 -52.5 12.5 -80.5v-199h-68v197
c0 57.333 -17.667 97.666 -53 120.999s-91.333 35 -168 35c-12 0 -24 -0.166992 -36 -0.5s-23.5 -1 -34.5 -2s-21 -2 -30 -3s-15.833 -1.83301 -20.5 -2.5v-345h-68v662h-228v58h524v-58h-228v-257z" />
    <glyph glyph-name="afii10061" unicode="&#x40c;" horiz-adv-x="663" 
d="M149 357l357 363h89l-284 -287l334 -433h-83l-300 391l-113 -113v-278h-68v720h68v-363zM248 786l132 166h92l-164 -166h-60z" />
    <glyph glyph-name="afii10062" unicode="&#x40e;" horiz-adv-x="580" 
d="M75 720l213.999 -521l220 521h75l-273 -627c-9.33301 -21.333 -18.833 -39 -28.5 -53s-20.167 -25.5 -31.5 -34.5s-24.166 -15.333 -38.499 -19s-30.833 -5.5 -49.5 -5.5c-16 0 -30 1.66699 -42 5v57c4 -1.33301 9.5 -2.33301 16.5 -3s14.167 -1 21.5 -1
c22 0 38.5 4 49.5 12s20.833 21 29.5 39l14 29l-248 601h71zM211.999 929c5.33301 -28 17.168 -48.5 35.501 -61.5s41.5 -19.5 69.5 -19.5s51 6.5 69 19.5s30.667 33.5 38 61.5h37c-4.66699 -42 -20.334 -73.5 -47.001 -94.5s-60.667 -31.5 -102 -31.5
c-40 0 -72.333 11 -97 33s-38.667 53 -42 93h39z" />
    <glyph glyph-name="afii10145" unicode="&#x40f;" horiz-adv-x="724" 
d="M149 58h426v662h68v-720h-247v-165h-68v165h-247v720h68v-662z" />
    <glyph glyph-name="afii10017" unicode="&#x410;" horiz-adv-x="651" 
d="M365 720l276 -720h-70l-83 226h-328l-85 -226h-70l283 720h77zM183 284h282l-141 378z" />
    <glyph glyph-name="afii10018" unicode="&#x411;" horiz-adv-x="632" 
d="M527 720l-0.000976562 -57.999h-378v-251h171c33.333 0 65.5 -3.33301 96.5 -10s58.5 -18.167 82.5 -34.5s43.333 -38 58 -65s22 -60.5 22 -100.5c0 -27.333 -3.66699 -53 -11 -77s-20.166 -45.333 -38.499 -64s-43 -33.334 -74 -44.001s-69.833 -16 -116.5 -16h-258v720
h446zM148.999 58.001l142.001 0.00292969c37.333 0 69.833 1.66699 97.5 5s50.5 10.166 68.5 20.499s31.5 25 40.5 44s13.5 44.167 13.5 75.5c0 30 -5.33301 54.667 -16 74s-25.334 34.666 -44.001 45.999s-41 19.166 -67 23.499s-54 6.5 -84 6.5h-151v-295z" />
    <glyph glyph-name="afii10019" unicode="&#x412;" horiz-adv-x="663" 
d="M149 58l173 0.000976562c37.333 0 69.833 1.66699 97.5 5s50.5 10.166 68.5 20.499s31.5 25 40.5 44s13.5 44.167 13.5 75.5c0 30 -5 54.167 -15 72.5s-24.333 32.5 -43 42.5s-41 16.833 -67 20.5s-55 5.5 -87 5.5h-181v-286zM149 402.001l172 -0.00195312
c35.333 0 65 3 89 9s43.333 14.833 58 26.5s25.167 26 31.5 43s9.5 36.5 9.5 58.5c0 22.667 -3.66699 41.834 -11 57.501s-19 28.334 -35 38.001s-36.833 16.667 -62.5 21s-57.167 6.5 -94.5 6.5h-157v-260zM81 719.999l260.004 -0.00195312c42 0 78 -4.33301 108 -13
s54.5 -21 73.5 -37s32.833 -35.167 41.5 -57.5s13 -46.833 13 -73.5c0 -25.333 -3.33301 -47.166 -10 -65.499s-15.334 -33.666 -26.001 -45.999s-22.834 -22 -36.501 -29s-27.834 -11.833 -42.501 -14.5v-2c50 -7.33301 87.167 -27 111.5 -59s36.5 -72 36.5 -120
c0 -37.333 -5.83301 -69 -17.5 -95s-27.834 -47 -48.501 -63s-45.5 -27.5 -74.5 -34.5s-60.5 -10.5 -94.5 -10.5h-294v720z" />
    <glyph glyph-name="afii10020" unicode="&#x413;" horiz-adv-x="563" 
d="M545 720v-58h-396v-662h-68v720h464z" />
    <glyph glyph-name="afii10021" unicode="&#x414;" horiz-adv-x="694" 
d="M613 720l0.000976562 -662h55v-223h-68v165h-506v-165h-68v223h53c13.333 28.667 25.166 55.5 35.499 80.5s19 52.333 26 82s12.333 63.5 16 101.5s5.5 84 5.5 138v260h451zM230.001 662l0.000976562 -229.999c0 -42.667 -1.83301 -81.334 -5.5 -116.001
s-8.83398 -66.834 -15.501 -96.501s-15 -57.667 -25 -84s-21.333 -52.166 -34 -77.499h395v604h-315z" />
    <glyph glyph-name="afii10022" unicode="&#x415;" horiz-adv-x="611" 
d="M560 720v-58h-411v-251h371v-58h-371v-295h421v-58h-489v720h479z" />
    <glyph glyph-name="afii10024" unicode="&#x416;" horiz-adv-x="999" 
d="M534 348l336 372h80l-274 -301l314 -419h-78l-281 373l-97 -107v-266h-68v266l-97 107l-281 -373h-78l314 419l-274 301h80l336 -372v372h68v-372z" />
    <glyph glyph-name="afii10025" unicode="&#x417;" horiz-adv-x="637" 
d="M63 523c0 32 5.16602 61.335 15.499 88.002s25.833 49.334 46.5 68.001s46 33.167 76 43.5s64.667 15.5 104 15.5c36 0 69.5 -3.83301 100.5 -11.5s57.667 -19.167 80 -34.5s39.833 -34.666 52.5 -57.999s19 -50.333 19 -81c0 -38 -8.5 -72 -25.5 -102
s-45.833 -53.667 -86.5 -71c22.667 -6 42.667 -15.333 60 -28s31.833 -27.334 43.5 -44.001s20.5 -34.5 26.5 -53.5s9 -38.5 9 -58.5c0 -66 -22 -118.333 -66 -157s-111.667 -58 -203 -58c-38.667 0 -74.5 4.83301 -107.5 14.5s-61.5 24.167 -85.5 43.5
s-42.833 43.666 -56.5 72.999s-20.5 63.666 -20.5 102.999h66c5.33301 -64.667 25.666 -110.167 60.999 -136.5s84 -39.5 146 -39.5c36.667 0 67.667 4 93 12s45.833 18.833 61.5 32.5s26.834 29.5 33.501 47.5s10 37 10 57c0 24 -4 46.167 -12 66.5
s-19.833 37.666 -35.5 51.999s-34.667 25.666 -57 33.999s-47.5 12.5 -75.5 12.5h-59v58h44c52.667 0 93.834 10.5 123.501 31.5s44.5 56.5 44.5 106.5c0 22.667 -5 42.334 -15 59.001s-23.333 30.334 -40 41.001s-36.167 18.5 -58.5 23.5s-45.833 7.5 -70.5 7.5
c-24 0 -46.5 -2.83301 -67.5 -8.5s-39.5 -14.834 -55.5 -27.501s-28.667 -29 -38 -49s-14 -44 -14 -72h-67z" />
    <glyph glyph-name="afii10026" unicode="&#x418;" horiz-adv-x="725" 
d="M149 91h2l416 629h77v-720h-68v628h-2l-414 -628h-79v720h68v-629z" />
    <glyph glyph-name="afii10027" unicode="&#x419;" horiz-adv-x="725" 
d="M149 91h2l416 629h77v-720h-68v628h-2l-414 -628h-79v720h68v-629zM264 929c5.33301 -28 17.168 -48.5 35.501 -61.5s41.5 -19.5 69.5 -19.5s51 6.5 69 19.5s30.667 33.5 38 61.5h37c-4.66699 -42 -20.334 -73.5 -47.001 -94.5s-60.667 -31.5 -102 -31.5
c-40 0 -72.333 11 -97 33s-38.667 53 -42 93h39z" />
    <glyph glyph-name="afii10028" unicode="&#x41a;" horiz-adv-x="663" 
d="M149 357l357 363h89l-284 -287l334 -433h-83l-300 391l-113 -113v-278h-68v720h68v-363z" />
    <glyph glyph-name="afii10029" unicode="&#x41b;" horiz-adv-x="694" 
d="M613 720l-0.00195312 -720h-68v662h-343v-312c0 -65.333 -2.66699 -121 -8 -167s-13.5 -83.667 -24.5 -113s-24.833 -50.666 -41.5 -63.999s-36.334 -20 -59.001 -20c-9.33301 0 -17.666 0.5 -24.999 1.5s-16.666 3.16699 -27.999 6.5v55
c7.33301 -1.33301 15.333 -2.5 24 -3.5s16.334 -1.5 23.001 -1.5c23.333 0 41 28.167 53 84.5s18 147.166 18 272.499v319h479z" />
    <glyph glyph-name="afii10030" unicode="&#x41c;" horiz-adv-x="839" 
d="M185 720l236 -635h2l232 635h103v-720h-68v642h-2l-236 -642h-64l-237 642h-2v-642h-68v720h104z" />
    <glyph glyph-name="afii10031" unicode="&#x41d;" horiz-adv-x="724" 
d="M149 411h426v309h68v-720h-68v353h-426v-353h-68v720h68v-309z" />
    <glyph glyph-name="afii10032" unicode="&#x41e;" horiz-adv-x="777" 
d="M53 359c0 52 7.16895 101.167 21.502 147.5s35.5 86.666 63.5 120.999s62.667 61.5 104 81.5s89 30 143 30c56 0 105.167 -9.83301 147.5 -29.5s77.666 -46.667 105.999 -81s49.666 -74.666 63.999 -120.999s21.5 -95.833 21.5 -148.5
c0 -52 -7.16699 -100.833 -21.5 -146.5s-35.5 -85.667 -63.5 -120s-63 -61.5 -105 -81.5s-90.667 -30 -146 -30s-104 10 -146 30s-77 47.167 -105 81.5s-49 74.333 -63 120s-21 94.5 -21 146.5zM389.002 39c46.667 0 86.8291 8.83398 120.496 26.501
s61.334 41.167 83.001 70.5s37.667 63.333 48 102s15.5 79 15.5 121c0 50 -6.16699 94.833 -18.5 134.5s-30.166 73.5 -53.499 101.5s-51.666 49.333 -84.999 64s-70.666 22 -111.999 22c-46 0 -85.833 -9 -119.5 -27s-61.334 -41.833 -83.001 -71.5
s-37.667 -63.834 -48 -102.501s-15.5 -79 -15.5 -121c0 -42.667 5.16699 -83.334 15.5 -122.001s26.333 -72.667 48 -102s49.334 -52.666 83.001 -69.999s74.167 -26 121.5 -26z" />
    <glyph glyph-name="afii10033" unicode="&#x41f;" horiz-adv-x="724" 
d="M643 720v-720h-68v662h-426v-662h-68v720h562z" />
    <glyph glyph-name="afii10034" unicode="&#x420;" horiz-adv-x="632" 
d="M149 0l-68 0.000976562v720h258c46.667 0 85.5 -5.33301 116.5 -16s55.667 -25.334 74 -44.001s31.166 -40.167 38.499 -64.5s11 -49.833 11 -76.5c0 -40 -7.33301 -73 -22 -99s-34 -46.5 -58 -61.5s-51.667 -25.5 -83 -31.5s-63.666 -9 -96.999 -9h-170v-318z
M149 376.001l150 0.000976562c32 0 61 1.83301 87 5.5s48.333 10.5 67 20.5s33 24.167 43 42.5s15 42.5 15 72.5c0 31.333 -4.5 56.5 -13.5 75.5s-22.5 33.667 -40.5 44s-40.833 17.166 -68.5 20.499s-60.167 5 -97.5 5h-142v-286z" />
    <glyph glyph-name="afii10035" unicode="&#x421;" horiz-adv-x="727" 
d="M597 511c-14 61.333 -40.0029 104.995 -78.0029 130.995s-87.667 39 -149 39c-43.333 0 -80.666 -8.66699 -111.999 -26s-57.166 -40.666 -77.499 -69.999s-35.333 -63.166 -45 -101.499s-14.5 -78.833 -14.5 -121.5c0 -40 4.16699 -79.333 12.5 -118
s22.166 -73.167 41.499 -103.5s45.333 -54.833 78 -73.5s73.667 -28 123 -28c30.667 0 58.667 5 84 15s47.5 23.833 66.5 41.5s35 38.5 48 62.5s22.833 50.333 29.5 79h71c-8 -34.667 -19.667 -67.5 -35 -98.5s-35.5 -58.167 -60.5 -81.5s-55.333 -41.833 -91 -55.5
s-77.5 -20.5 -125.5 -20.5c-55.333 0 -102.666 10.167 -141.999 30.5s-71.5 47.833 -96.5 82.5s-43.167 74.834 -54.5 120.501s-17 94.167 -17 145.5c0 68.667 8.5 127 25.5 175s40.5 87.167 70.5 117.5s65.333 52.333 106 66s85 20.5 133 20.5
c36.667 0 70.834 -4.83301 102.501 -14.5s59.667 -24.167 84 -43.5s44.333 -43.166 60 -71.499s26.5 -61.166 32.5 -98.499h-70z" />
    <glyph glyph-name="afii10036" unicode="&#x422;" 
d="M312 0h-68v662h-228v58h524v-58h-228v-662z" />
    <glyph glyph-name="afii10037" unicode="&#x423;" horiz-adv-x="580" 
d="M75 720l213.999 -521l220 521h75l-273 -627c-9.33301 -21.333 -18.833 -39 -28.5 -53s-20.167 -25.5 -31.5 -34.5s-24.166 -15.333 -38.499 -19s-30.833 -5.5 -49.5 -5.5c-16 0 -30 1.66699 -42 5v57c4 -1.33301 9.5 -2.33301 16.5 -3s14.167 -1 21.5 -1
c22 0 38.5 4 49.5 12s20.833 21 29.5 39l14 29l-248 601h71z" />
    <glyph glyph-name="afii10038" unicode="&#x424;" horiz-adv-x="840" 
d="M454 720v-62h49c42.667 0 81.334 -7.66699 116.001 -23s64.5 -36.333 89.5 -63s44.333 -58 58 -94s20.5 -74.333 20.5 -115c0 -42 -6.83301 -80.833 -20.5 -116.5s-33 -66.5 -58 -92.5s-54.833 -46.333 -89.5 -61s-73.334 -22 -116.001 -22h-49v-71h-68v71h-49
c-42.667 0 -81.334 7.33301 -116.001 22s-64.5 35 -89.5 61s-44.333 56.833 -58 92.5s-20.5 74.5 -20.5 116.5c0 40.667 6.83301 79 20.5 115s33 67.333 58 94s54.833 47.667 89.5 63s73.334 23 116.001 23h49v62h68zM386 600h-47c-34 0 -64.5 -6 -91.5 -18
s-49.833 -28.5 -68.5 -49.5s-33 -45.833 -43 -74.5s-15 -59.667 -15 -93s5 -64.333 15 -93s24.333 -53.667 43 -75s41.5 -38 68.5 -50s57.5 -18 91.5 -18h47v471zM454 129h47c34 0 64.5 6 91.5 18s49.833 28.667 68.5 50s33 46.333 43 75s15 59.667 15 93s-5 64.333 -15 93
s-24.333 53.5 -43 74.5s-41.5 37.5 -68.5 49.5s-57.5 18 -91.5 18h-47v-471z" />
    <glyph glyph-name="afii10039" unicode="&#x425;" horiz-adv-x="611" 
d="M107 720l197 -303l198 303h79l-236 -350l247 -370h-78l-210 318l-209 -318h-77l248 370l-238 350h79z" />
    <glyph glyph-name="afii10040" unicode="&#x426;" horiz-adv-x="724" 
d="M149 58h426v662h68v-662h55v-223h-68v165h-549v720h68v-662z" />
    <glyph glyph-name="afii10041" unicode="&#x427;" horiz-adv-x="675" 
d="M143 720l0.00195312 -194c0 -30 5.16699 -54.167 15.5 -72.5s24.666 -32.5 42.999 -42.5s40.666 -16.833 66.999 -20.5s55.5 -5.5 87.5 -5.5c17.333 0 32.833 0.333008 46.5 1s26.834 1.5 39.501 2.5s25.5 2.33301 38.5 4s28.167 3.5 45.5 5.5v322h68v-720h-68v338
c-16 -2.66699 -33.833 -4.66699 -53.5 -6s-39.834 -2.33301 -60.501 -3s-41 -1.16699 -61 -1.5s-39 -0.5 -57 -0.5c-34 0 -64.5 3.83301 -91.5 11.5s-50 20 -69 37s-33.5 39 -43.5 66s-15 59.5 -15 97.5v181h68z" />
    <glyph glyph-name="afii10042" unicode="&#x428;" horiz-adv-x="966" 
d="M149 58h300v662h68v-662h300v662h68v-720h-804v720h68v-662z" />
    <glyph glyph-name="afii10043" unicode="&#x429;" horiz-adv-x="966" 
d="M149 58h300v662h68v-662h300v662h68v-662h55v-223h-68v165h-791v720h68v-662z" />
    <glyph glyph-name="afii10044" unicode="&#x42a;" horiz-adv-x="693" 
d="M210 720l-0.000976562 -308.999h171c33.333 0 65.5 -3.33301 96.5 -10s58.5 -18.167 82.5 -34.5s43.333 -38 58 -65s22 -60.5 22 -100.5c0 -27.333 -3.66699 -53 -11 -77s-20.166 -45.333 -38.499 -64s-43 -33.334 -74 -44.001s-69.833 -16 -116.5 -16h-258v662h-149v58
h217zM209.999 58.001l142.001 0.00292969c37.333 0 69.833 1.66699 97.5 5s50.5 10.166 68.5 20.499s31.5 25 40.5 44s13.5 44.167 13.5 75.5c0 30 -5.33301 54.667 -16 74s-25.334 34.666 -44.001 45.999s-41 19.166 -67 23.499s-54 6.5 -84 6.5h-151v-295z" />
    <glyph glyph-name="afii10045" unicode="&#x42b;" horiz-adv-x="859" 
d="M149 411l170.999 0.000976562c33.333 0 65.5 -3.33301 96.5 -10s58.5 -18.167 82.5 -34.5s43.333 -38 58 -65s22 -60.5 22 -100.5c0 -27.333 -3.66699 -53 -11 -77s-20.166 -45.333 -38.499 -64s-43 -33.334 -74 -44.001s-69.833 -16 -116.5 -16h-258v720h68v-309z
M148.999 58.001l142.001 0.00292969c37.333 0 69.833 1.66699 97.5 5s50.5 10.166 68.5 20.499s31.5 25 40.5 44s13.5 44.167 13.5 75.5c0 30 -5.33301 54.667 -16 74s-25.334 34.666 -44.001 45.999s-41 19.166 -67 23.499s-54 6.5 -84 6.5h-151v-295zM778 0.00390625h-68
v720h68v-720z" />
    <glyph glyph-name="afii10046" unicode="&#x42c;" horiz-adv-x="632" 
d="M149 411l170.999 0.000976562c33.333 0 65.5 -3.33301 96.5 -10s58.5 -18.167 82.5 -34.5s43.333 -38 58 -65s22 -60.5 22 -100.5c0 -27.333 -3.66699 -53 -11 -77s-20.166 -45.333 -38.499 -64s-43 -33.334 -74 -44.001s-69.833 -16 -116.5 -16h-258v720h68v-309z
M148.999 58.001l142.001 0.00292969c37.333 0 69.833 1.66699 97.5 5s50.5 10.166 68.5 20.499s31.5 25 40.5 44s13.5 44.167 13.5 75.5c0 30 -5.33301 54.667 -16 74s-25.334 34.666 -44.001 45.999s-41 19.166 -67 23.499s-54 6.5 -84 6.5h-151v-295z" />
    <glyph glyph-name="afii10047" unicode="&#x42d;" horiz-adv-x="723" 
d="M56 511c6 37.333 16.834 70.1699 32.501 98.5029s35.667 52.166 60 71.499s52.166 33.833 83.499 43.5s65.666 14.5 102.999 14.5c48 0 92.333 -6.83301 133 -20.5s76 -35.667 106 -66s53.5 -69.5 70.5 -117.5s25.5 -106.333 25.5 -175
c0 -51.333 -5.66699 -99.833 -17 -145.5s-29.5 -85.834 -54.5 -120.501s-57.167 -62.167 -96.5 -82.5s-86.666 -30.5 -141.999 -30.5c-48 0 -89.833 6.83301 -125.5 20.5s-66 32.167 -91 55.5s-45.167 50.5 -60.5 81.5s-27 63.833 -35 98.5h71
c6.66699 -28.667 16.5 -55 29.5 -79s29 -44.833 48 -62.5s41 -31.5 66 -41.5s53.167 -15 84.5 -15c47.333 0 87.166 8.66699 119.499 26s58.5 40.5 78.5 69.5s34.5 62.333 43.5 100s13.5 77.167 13.5 118.5h-308v58h308c-5.33301 36.667 -13.666 71.5 -24.999 104.5
s-27 61.667 -47 86s-44.5 43.666 -73.5 57.999s-63.5 21.5 -103.5 21.5c-61.333 0 -111 -13 -149 -39s-64 -69.667 -78 -131h-70v0z" />
    <glyph glyph-name="afii10048" unicode="&#x42e;" horiz-adv-x="1003" 
d="M279 411c6 46.667 17.335 90 34.002 130s38.667 74.667 66 104s60.333 52.333 99 69s83 25 133 25c56 0 105.167 -9.83301 147.5 -29.5s77.666 -46.667 105.999 -81s49.666 -74.666 63.999 -120.999s21.5 -95.833 21.5 -148.5c0 -52 -7.16699 -100.833 -21.5 -146.5
s-35.5 -85.667 -63.5 -120s-63 -61.5 -105 -81.5s-90.667 -30 -146 -30c-54 0 -101.833 9.5 -143.5 28.5s-76.667 45.167 -105 78.5s-49.833 72.666 -64.5 117.999s-22 94.333 -22 147h-130v-353h-68v720h68v-309h130zM615.002 39c46.667 0 86.8291 8.83398 120.496 26.501
s61.334 41.167 83.001 70.5s37.667 63.333 48 102s15.5 79 15.5 121c0 50 -6.16699 94.833 -18.5 134.5s-30.166 73.5 -53.499 101.5s-51.666 49.333 -84.999 64s-70.666 22 -111.999 22c-46 0 -85.833 -9 -119.5 -27s-61.334 -41.833 -83.001 -71.5
s-37.667 -63.834 -48 -102.501s-15.5 -79 -15.5 -121c0 -42.667 5.16699 -83.334 15.5 -122.001s26.333 -72.667 48 -102s49.334 -52.666 83.001 -69.999s74.167 -26 121.5 -26z" />
    <glyph glyph-name="afii10049" unicode="&#x42f;" horiz-adv-x="632" 
d="M305 318l-200.998 -318.001h-81l208 324c-24.667 4 -47.834 10.5 -69.501 19.5s-40.5 21.167 -56.5 36.5s-28.667 34.333 -38 57s-14 50 -14 82c0 26.667 3.66699 52.167 11 76.5s20.166 45.833 38.499 64.5s43 33.334 74 44.001s69.833 16 116.5 16h258v-720h-68v318
h-178zM483.002 661.999l-142 -0.000976562c-37.333 0 -69.833 -1.66699 -97.5 -5s-50.5 -10.166 -68.5 -20.499s-31.5 -25 -40.5 -44s-13.5 -44.167 -13.5 -75.5c0 -30 5 -54.167 15 -72.5s24.333 -32.5 43 -42.5s41 -16.833 67 -20.5s55 -5.5 87 -5.5h150v286z" />
    <glyph glyph-name="afii10065" unicode="&#x430;" horiz-adv-x="558" 
d="M413 272c-13.333 -7.33301 -33.1689 -13.332 -59.502 -17.999s-58.166 -8.33398 -95.499 -11.001c-46 -3.33301 -81.833 -13.666 -107.5 -30.999s-38.5 -43.666 -38.5 -78.999c0 -16 3.16699 -29.833 9.5 -41.5s14.666 -21.334 24.999 -29.001s22.333 -13.334 36 -17.001
s27.5 -5.5 41.5 -5.5c24 0 47.333 3 70 9s42.834 15.167 60.501 27.5s31.834 28 42.501 47s16 41.5 16 67.5v81zM71.9971 361.001c2 30.667 8.99902 56.8311 20.999 78.498s27.5 39.334 46.5 53.001s41 23.667 66 30s51.5 9.5 79.5 9.5c26 0 50.5 -2.83301 73.5 -8.5
s43 -14.667 60 -27s30.333 -28.833 40 -49.5s14.5 -46 14.5 -76v-282c0 -16.667 1.83301 -29 5.5 -37s10.834 -12 21.501 -12c4 0 9.16699 0.833008 15.5 2.5s13.166 3.83398 20.499 6.50098v-47c-7.33301 -2.66699 -15.666 -5 -24.999 -7s-16.666 -3 -21.999 -3
c-24.667 0 -42.667 5.33301 -54 16s-18.666 32 -21.999 64h-2c-23.333 -28 -51.333 -49.333 -84 -64s-68 -22 -106 -22c-22.667 0 -44.5 3 -65.5 9s-39.5 15.333 -55.5 28s-28.667 28.167 -38 46.5s-14 40.166 -14 65.499c0 88 60.333 140 181 156l115 15
c25.333 3.33301 43.166 9.5 53.499 18.5s15.5 25.167 15.5 48.5c0 30.667 -9.83301 55.834 -29.5 75.501s-52.834 29.5 -99.501 29.5c-20.667 0 -39.667 -1.83301 -57 -5.5s-32.5 -10 -45.5 -19s-23.667 -21 -32 -36s-13.833 -33.833 -16.5 -56.5h-61z" />
    <glyph glyph-name="afii10066" unicode="&#x431;" horiz-adv-x="583" 
d="M119 432c18.667 30.667 42.3291 54.9941 70.9961 72.9941s65 27 109 27c39.333 0 73.833 -7.16699 103.5 -21.5s54.334 -33.666 74.001 -57.999s34.334 -53.166 44.001 -86.499s14.5 -69 14.5 -107c0 -41.333 -5.66699 -78.666 -17 -111.999s-27.5 -62 -48.5 -86
s-46.333 -42.5 -76 -55.5s-62.5 -19.5 -98.5 -19.5c-40 0 -75 7.33301 -105 22s-55 35.167 -75 61.5s-35 57.833 -45 94.5s-15 77 -15 121c0 42.667 2.33301 85.5 7 128.5s14.334 82.333 29.001 118s35.667 66.334 63 92.001s64 42.834 110 51.501l75.5 15.5
c20.333 4.33301 37 8.83301 50 13.5s22.333 9.66699 28 15s8.5 12 8.5 20h63c0 -17.333 -5 -32 -15 -44s-23.833 -22.333 -41.5 -31s-38.5 -16 -62.5 -22s-50.333 -11.667 -79 -17c-24.667 -4.66699 -46.5 -11.334 -65.5 -20.001s-35.5 -20.667 -49.5 -36
s-25.667 -34.166 -35 -56.499s-16.666 -49.166 -21.999 -80.499zM294.995 39.9941c31.333 0 58.166 6.16504 80.499 18.498s40.5 28.833 54.5 49.5s24.333 44 31 70s10 53 10 81c0 30.667 -3.16699 59.334 -9.5 86.001s-16.5 49.834 -30.5 69.501s-32.167 35.167 -54.5 46.5
s-49.5 17 -81.5 17c-31.333 0 -58.166 -5.83301 -80.499 -17.5s-40.5 -27.167 -54.5 -46.5s-24.333 -41.833 -31 -67.5s-10 -52.5 -10 -80.5c0 -30 3.66699 -58.667 11 -86s18.5 -51.333 33.5 -72s33.333 -37.167 55 -49.5s47.167 -18.5 76.5 -18.5z" />
    <glyph glyph-name="afii10067" unicode="&#x432;" horiz-adv-x="522" 
d="M132 50l167.001 -0.000976562c34 0 61 8.33301 81 25s30 40 30 70c0 18.667 -3.5 34.334 -10.5 47.001s-16.167 23 -27.5 31s-24.833 13.667 -40.5 17s-31.834 5 -48.501 5h-151v-195zM132.001 294.999l153.999 -0.000976562c13.333 0 26.333 1.66699 39 5
s23.834 8.5 33.501 15.5s17.5 15.833 23.5 26.5s9 23.334 9 38.001c0 32 -9.83301 54.667 -29.5 68s-49.167 20 -88.5 20h-141v-173zM72 517.998l240.998 -0.00292969c22 0 41.5 -3.5 58.5 -10.5s31.5 -16 43.5 -27s21 -23.333 27 -37s9 -27.5 9 -41.5
c0 -32 -6.66699 -59 -20 -81s-33.666 -37.667 -60.999 -47c28 -7.33301 52.333 -21.666 73 -42.999s31 -49 31 -83c0 -24.667 -4.16699 -46.167 -12.5 -64.5s-19.5 -33.666 -33.5 -45.999s-30.167 -21.666 -48.5 -27.999s-37.166 -9.5 -56.499 -9.5h-251v518z" />
    <glyph glyph-name="afii10068" unicode="&#x433;" horiz-adv-x="404" 
d="M392 518v-50h-260v-468h-60v518h320z" />
    <glyph glyph-name="afii10069" unicode="&#x434;" horiz-adv-x="553" 
d="M469 518v-468h52v-185h-60v135h-383v-135h-60v185h46c14 25.333 25.167 51.333 33.5 78s14.5 53.167 18.5 79.5s6.66699 52.5 8 78.5s2 51 2 75v157h343zM185 468l0.000976562 -114.001c0 -28 -0.5 -54.667 -1.5 -80s-3.5 -50.166 -7.5 -74.499
s-9.83301 -48.833 -17.5 -73.5s-17.834 -50 -30.501 -76h281v418h-224z" />
    <glyph glyph-name="afii10070" unicode="&#x435;" horiz-adv-x="562" 
d="M450 295c0 25.333 -3.49805 49.168 -10.498 71.501s-17.333 41.666 -31 57.999s-30.834 29.333 -51.501 39s-44.334 14.5 -71.001 14.5s-50.167 -5 -70.5 -15s-37.666 -23.333 -51.999 -40s-25.833 -36 -34.5 -58s-14.334 -45.333 -17.001 -70h338zM112.002 245.002
c0 -28 3.66797 -54.3311 11.001 -78.998s18.333 -46.334 33 -65.001s32.834 -33.5 54.501 -44.5s46.834 -16.5 75.501 -16.5c39.333 0 73 10.333 101 31s46.667 50 56 88h67c-7.33301 -24.667 -17 -47.5 -29 -68.5s-27 -39.333 -45 -55s-39.333 -27.834 -64 -36.501
s-53.334 -13 -86.001 -13c-41.333 0 -77 7 -107 21s-54.667 33.167 -74 57.5s-33.666 53 -42.999 86s-14 68.5 -14 106.5s5.5 73.667 16.5 107s26.667 62.5 47 87.5s45.166 44.667 74.499 59s62.666 21.5 99.999 21.5c71.333 0 127.166 -24.333 167.499 -73
s60.5 -120 60.5 -214h-402z" />
    <glyph glyph-name="afii10072" unicode="&#x436;" horiz-adv-x="734" 
d="M105 518l232 -256v256h60v-256l232 256h78l-186 -204l207 -314h-68l-183 272l-80 -82v-190h-60v190l-80 82l-183 -272h-68l207 314l-186 204h78z" />
    <glyph glyph-name="afii10073" unicode="&#x437;" horiz-adv-x="505" 
d="M54 370c2 24 8.33203 45.999 18.999 65.999s24.5 37.167 41.5 51.5s36.5 25.333 58.5 33s45.667 11.5 71 11.5c33.333 0 62.166 -3.83301 86.499 -11.5s44.5 -17.667 60.5 -30s27.833 -26.666 35.5 -42.999s11.5 -33.166 11.5 -50.499
c0 -32.667 -9.83301 -59.5 -29.5 -80.5s-42.5 -33.833 -68.5 -38.5c32 -7.33301 59.5 -23.333 82.5 -48s34.5 -55.667 34.5 -93c0 -50 -18.333 -87.667 -55 -113s-87.334 -38 -152.001 -38s-115 15.5 -151 46.5s-56.667 74.167 -62 129.5h59
c4 -38.667 19.5 -68.667 46.5 -90s63.833 -32 110.5 -32c44 0 78.333 8.83301 103 26.5s37 40.834 37 69.501c0 20 -3.33301 37.167 -10 51.5s-15.834 26.166 -27.501 35.499s-25.167 16.333 -40.5 21s-31.333 7 -48 7h-53v50h65c12 0 23.833 2.33301 35.5 7
s22.334 11 32.001 19s17.334 17.5 23.001 28.5s8.5 22.833 8.5 35.5c0 31.333 -12 53.666 -36 66.999s-56 20 -96 20c-39.333 0 -69.166 -8.5 -89.499 -25.5s-35.166 -44.5 -44.499 -82.5h-58z" />
    <glyph glyph-name="afii10074" unicode="&#x438;" horiz-adv-x="566" 
d="M132 80l296 438h66v-518h-60v438l-295 -438h-67v518h60v-438z" />
    <glyph glyph-name="afii10075" unicode="&#x439;" horiz-adv-x="566" 
d="M132 80l296 438h66v-518h-60v438l-295 -438h-67v518h60v-438zM178 697c5.33301 -28 17.168 -48.5 35.501 -61.5s41.5 -19.5 69.5 -19.5s51 6.5 69 19.5s30.667 33.5 38 61.5h37c-4.66699 -42 -20.334 -73.5 -47.001 -94.5s-60.667 -31.5 -102 -31.5
c-40 0 -72.333 11 -97 33s-38.667 53 -42 93h39z" />
    <glyph glyph-name="afii10076" unicode="&#x43a;" horiz-adv-x="504" 
d="M132 272l254 246h82l-194 -187l217 -331h-67l-194 289l-98 -93v-196h-60v518h60v-246z" />
    <glyph glyph-name="afii10077" unicode="&#x43b;" horiz-adv-x="553" 
d="M470 518v-517.999h-60v468h-239v-97c0 -18 -0.166992 -37.333 -0.5 -58s-1 -41 -2 -61s-2.16699 -38.833 -3.5 -56.5s-2.66602 -32.834 -3.99902 -45.501c-6 -52 -17.833 -90.667 -35.5 -116s-42.5 -38 -74.5 -38c-6.66699 0 -14 0.5 -22 1.5s-15.333 2.83301 -22 5.5v49
c6 -1.33301 12.667 -2.33301 20 -3s12.666 -1 15.999 -1c16 0 30.333 11.333 43 34c4.66699 8 8.66699 20.833 12 38.5s6 43.167 8 76.5s3.33301 76 4 128s1 116.333 1 193h359z" />
    <glyph glyph-name="afii10078" unicode="&#x43c;" horiz-adv-x="649" 
d="M150 518l175 -450l174 450h78v-518h-60v424l-165 -424h-55l-165 424v-424h-60v518h78z" />
    <glyph glyph-name="afii10079" unicode="&#x43d;" horiz-adv-x="558" 
d="M135 301h288v217h60v-518h-60v251h-288v-251h-60v518h60v-217z" />
    <glyph glyph-name="afii10080" unicode="&#x43e;" horiz-adv-x="576" 
d="M288 532c40.667 0 76.001 -7.16992 106.001 -21.5029s55 -33.666 75 -57.999s34.833 -53.166 44.5 -86.499s14.5 -69 14.5 -107c0 -41.333 -5.66699 -78.666 -17 -111.999s-27.5 -62 -48.5 -86s-46.333 -42.5 -76 -55.5s-62.5 -19.5 -98.5 -19.5
c-33.333 0 -64.5 5.66699 -93.5 17s-54.333 28.5 -76 51.5s-38.834 51.5 -51.501 85.5s-19 73.667 -19 119c0 38 5 73.5 15 106.5s25 61.833 45 86.5s45 44.167 75 58.5s65 21.5 105 21.5zM288.001 477.997c-31.333 0 -58.167 -6.1709 -80.5 -18.5039
s-40.5 -28.666 -54.5 -48.999s-24.333 -43.666 -31 -69.999s-10 -53.5 -10 -81.5c0 -32 3.83301 -61.5 11.5 -88.5s18.834 -50.167 33.501 -69.5s33 -34.333 55 -45s47.333 -16 76 -16c31.333 0 58.166 6.16699 80.499 18.5s40.5 28.833 54.5 49.5s24.333 44 31 70
s10 53 10 81c0 30.667 -3.16699 59.334 -9.5 86.001s-16.5 49.834 -30.5 69.501s-32.167 35.167 -54.5 46.5s-49.5 17 -81.5 17z" />
    <glyph glyph-name="afii10081" unicode="&#x43f;" horiz-adv-x="552" 
d="M480 518v-518h-60v468h-288v-468h-60v518h408z" />
    <glyph glyph-name="afii10082" unicode="&#x440;" horiz-adv-x="596" 
d="M307 478c-52 0 -94.168 -19.334 -126.501 -58.001s-48.5 -94.667 -48.5 -168c0 -28 3.83301 -54.833 11.5 -80.5s18.834 -48.167 33.501 -67.5s33 -34.833 55 -46.5s47 -17.5 75 -17.5c25.333 0 48.833 5.33301 70.5 16s40.334 25.5 56.001 44.5s28 41.333 37 67
s13.5 53.167 13.5 82.5c0 31.333 -3.33301 60.833 -10 88.5s-17.334 51.834 -32.001 72.501s-33.167 37 -55.5 49s-48.833 18 -79.5 18zM131.999 -204.001l-59.999 -0.00195312v722h60v-91h2c8.66699 16.667 19.834 31.667 33.501 45s28.667 24.333 45 33
s33.166 15.334 50.499 20.001s34.333 7 51 7c42 0 77.667 -7 107 -21s53.5 -33.167 72.5 -57.5s32.833 -53.166 41.5 -86.499s13 -69 13 -107c0 -36 -4.66699 -70.667 -14 -104s-23.5 -62.5 -42.5 -87.5s-43 -45 -72 -60s-63.167 -22.5 -102.5 -22.5
c-36.667 0 -71.834 8.16699 -105.501 24.5s-60.167 40.5 -79.5 72.5v-287z" />
    <glyph glyph-name="afii10083" unicode="&#x441;" horiz-adv-x="557" 
d="M440 355c-10.667 38.667 -29.0029 68.8359 -55.0029 90.5029s-59 32.5 -99 32.5c-30.667 0 -57 -6.33301 -79 -19s-40 -29.5 -54 -50.5s-24.333 -44.667 -31 -71s-10 -52.833 -10 -79.5c0 -27.333 3.16699 -54 9.5 -80s16.5 -49.333 30.5 -70s32 -37.167 54 -49.5
s48.667 -18.5 80 -18.5c44.667 0 80.5 12.333 107.5 37s44.167 58.667 51.5 102h64c-5.33301 -28.667 -13.833 -54.834 -25.5 -78.501s-26.667 -44 -45 -61s-40.166 -30.167 -65.499 -39.5s-54.333 -14 -87 -14c-41.333 0 -77 7 -107 21s-54.667 33.167 -74 57.5
s-33.666 53.166 -42.999 86.499s-14 69 -14 107c0 36 5.16699 70.5 15.5 103.5s25.5 62.167 45.5 87.5s44.833 45.5 74.5 60.5s63.834 22.5 102.501 22.5c60 0 108.5 -14.333 145.5 -43s60.167 -73.334 69.5 -134.001h-61z" />
    <glyph glyph-name="afii10084" unicode="&#x442;" horiz-adv-x="436" 
d="M422 518v-50h-174v-468h-60v468h-174v50h408z" />
    <glyph glyph-name="afii10085" unicode="&#x443;" horiz-adv-x="490" 
d="M85 518l166.001 -445.002l166 445h65l-193 -511c-12 -32.667 -23.5 -62 -34.5 -88s-22.667 -48.167 -35 -66.5s-26 -32.333 -41 -42s-32.833 -14.5 -53.5 -14.5c-10.667 0 -20.834 0.666992 -30.501 2s-18.5 3 -26.5 5v56l24.5 -4c8.33301 -1.33301 16.833 -2 25.5 -2
c10 0 19 2 27 6s15.833 11.333 23.5 22s15.5 25.334 23.5 44.001s17 42.334 27 71.001l-201 522h67z" />
    <glyph glyph-name="afii10086" unicode="&#x444;" horiz-adv-x="870" 
d="M258 40c26 0 48.1641 6.33301 66.4971 19s33.5 29.167 45.5 49.5s20.833 43.833 26.5 70.5s8.5 54 8.5 82c0 28.667 -3.33301 56.167 -10 82.5s-16.167 49.5 -28.5 69.5s-27.666 35.833 -45.999 47.5s-39.166 17.5 -62.499 17.5c-25.333 0 -47.166 -6.5 -65.499 -19.5
s-33.5 -29.667 -45.5 -50s-20.833 -43.5 -26.5 -69.5s-8.5 -52 -8.5 -78c0 -28.667 2.66699 -56.334 8 -83.001s14 -50.167 26 -70.5s27.167 -36.666 45.5 -48.999s40.5 -18.5 66.5 -18.5zM464.997 739l-0.00195312 -298.998c14 24.667 34.5 46.167 61.5 64.5
s58.5 27.5 94.5 27.5c34 0 63.667 -7.5 89 -22.5s46.166 -35 62.499 -60s28.666 -54 36.999 -87s12.5 -67.5 12.5 -103.5c0 -37.333 -3.83301 -72.5 -11.5 -105.5s-19.667 -62 -36 -87s-37.166 -44.667 -62.499 -59s-55.666 -21.5 -90.999 -21.5c-34 0 -64.167 7 -90.5 21
s-48.166 36.667 -65.499 68v-279h-60v281c-17.333 -31.333 -39.166 -54.333 -65.499 -69s-56.5 -22 -90.5 -22c-35.333 0 -65.666 7.33301 -90.999 22s-46.166 34.5 -62.499 59.5s-28.333 54.167 -36 87.5s-11.5 68.666 -11.5 105.999c0 36 4.16699 70.333 12.5 103
s20.666 61.5 36.999 86.5s37.166 44.833 62.499 59.5s55 22 89 22c36 0 67.5 -8.83301 94.5 -26.5s47.5 -38.834 61.5 -63.501v297h60zM611.995 40.002c26 0 48.165 6.16699 66.498 18.5s33.5 28.666 45.5 48.999s20.667 43.833 26 70.5s8 54.334 8 83.001
c0 26 -2.83301 52 -8.5 78s-14.5 49.167 -26.5 69.5s-27.167 37 -45.5 50s-40.166 19.5 -65.499 19.5c-23.333 0 -44.166 -5.83301 -62.499 -17.5s-33.833 -27.5 -46.5 -47.5s-22.167 -43.167 -28.5 -69.5s-9.5 -53.833 -9.5 -82.5c0 -28 2.83301 -55.333 8.5 -82
s14.5 -50.167 26.5 -70.5s27.167 -36.833 45.5 -49.5s40.5 -19 66.5 -19z" />
    <glyph glyph-name="afii10087" unicode="&#x445;" horiz-adv-x="500" 
d="M108 518l143 -206l147 206h76l-187 -250l194 -268h-72l-157 224l-161 -224h-73l199 268l-183 250h74z" />
    <glyph glyph-name="afii10088" unicode="&#x446;" horiz-adv-x="560" 
d="M132 50h288v468h60v-468h52v-186h-60v136h-400v518h60v-468z" />
    <glyph glyph-name="afii10089" unicode="&#x447;" horiz-adv-x="510" 
d="M115 518l-0.00195312 -141.998c0 -30.667 10.333 -54.334 31 -71.001s48.334 -25 83.001 -25c26 0 47.167 0.333008 63.5 1s29.833 1.66699 40.5 3s19.334 3 26.001 5s13 4.33301 19 7v222h60v-518h-60v245c-24 -7.33301 -49.167 -12.333 -75.5 -15s-54.5 -4 -84.5 -4
c-22 0 -42.833 3.33301 -62.5 10s-37 16.667 -52 30s-26.833 29.666 -35.5 48.999s-13 42 -13 68v135h60z" />
    <glyph glyph-name="afii10090" unicode="&#x448;" horiz-adv-x="848" 
d="M132 50h262v468h60v-468h262v468h60v-518h-704v518h60v-468z" />
    <glyph glyph-name="afii10091" unicode="&#x449;" horiz-adv-x="856" 
d="M132 50h262v468h60v-468h262v468h60v-468h52v-186h-60v136h-696v518h60v-468z" />
    <glyph glyph-name="afii10092" unicode="&#x44a;" horiz-adv-x="539" 
d="M159 518v-216.998h152c28 0 53 -3.66699 75 -11s40.833 -17.833 56.5 -31.5s27.667 -29.834 36 -48.501s12.5 -39 12.5 -61c0 -34.667 -7 -61.834 -21 -81.501s-30.5 -34.5 -49.5 -44.5s-38.167 -16.333 -57.5 -19s-34 -4 -44 -4h-220v468h-110v50h170zM159 50.002
l135 0.000976562c45.333 0 78.833 8.66699 100.5 26s32.5 41.666 32.5 72.999c0 32 -11.5 57 -34.5 75s-51.5 27 -85.5 27h-148v-201z" />
    <glyph glyph-name="afii10093" unicode="&#x44b;" horiz-adv-x="701" 
d="M132 301l152 0.00195312c28 0 53 -3.66699 75 -11s40.833 -17.833 56.5 -31.5s27.667 -29.834 36 -48.501s12.5 -39 12.5 -61c0 -34.667 -7 -61.834 -21 -81.501s-30.5 -34.5 -49.5 -44.5s-38.167 -16.333 -57.5 -19s-34 -4 -44 -4h-220v518h60v-217zM132 50.002
l135 0.000976562c45.333 0 78.833 8.66699 100.5 26s32.5 41.666 32.5 72.999c0 32 -11.5 57 -34.5 75s-51.5 27 -85.5 27h-148v-201zM629 0.00292969h-60v518h60v-518z" />
    <glyph glyph-name="afii10094" unicode="&#x44c;" horiz-adv-x="512" 
d="M132 301l152 0.00195312c28 0 53 -3.66699 75 -11s40.833 -17.833 56.5 -31.5s27.667 -29.834 36 -48.501s12.5 -39 12.5 -61c0 -34.667 -7 -61.834 -21 -81.501s-30.5 -34.5 -49.5 -44.5s-38.167 -16.333 -57.5 -19s-34 -4 -44 -4h-220v518h60v-217zM132 50.002
l135 0.000976562c45.333 0 78.833 8.66699 100.5 26s32.5 41.666 32.5 72.999c0 32 -11.5 57 -34.5 75s-51.5 27 -85.5 27h-148v-201z" />
    <glyph glyph-name="afii10095" unicode="&#x44d;" horiz-adv-x="555" 
d="M54 355c9.33301 53.333 32.4961 96.168 69.4961 128.501s85.5 48.5 145.5 48.5c38.667 0 72.834 -7.5 102.501 -22.5s54.5 -35.167 74.5 -60.5s35.167 -54.5 45.5 -87.5s15.5 -67.5 15.5 -103.5c0 -38 -4.66699 -73.667 -14 -107s-23.666 -62.166 -42.999 -86.499
s-44 -43.5 -74 -57.5s-65.667 -21 -107 -21c-32.667 0 -61.667 4.66699 -87 14s-47.166 22.5 -65.499 39.5s-33.333 37.333 -45 61s-20.167 49.834 -25.5 78.501h64c7.33301 -43.333 24.5 -77.333 51.5 -102s62.833 -37 107.5 -37c30 0 55.833 6 77.5 18s39.667 28 54 48
s25 42.667 32 68s10.5 51 10.5 77h-206v50h203c-2 22 -7 43.667 -15 65s-19 40.166 -33 56.499s-31.167 29.666 -51.5 39.999s-44.166 15.5 -71.499 15.5c-40 0 -73 -10.833 -99 -32.5s-44.333 -51.834 -55 -90.501h-61v0z" />
    <glyph glyph-name="afii10096" unicode="&#x44e;" horiz-adv-x="766" 
d="M132 301l109.001 -0.00292969c3.33301 32.667 10.666 63 21.999 91s26.833 52.333 46.5 73s43.5 37 71.5 49s60.333 18 97 18c40.667 0 76 -7.16699 106 -21.5s55 -33.666 75 -57.999s34.833 -53.166 44.5 -86.499s14.5 -69 14.5 -107
c0 -41.333 -5.66699 -78.666 -17 -111.999s-27.5 -62 -48.5 -86s-46.333 -42.5 -76 -55.5s-62.5 -19.5 -98.5 -19.5c-32 0 -62.5 5.33301 -91.5 16s-54.5 27 -76.5 49s-39.5 49.667 -52.5 83s-19.5 72.333 -19.5 117h-106v-251h-60v518h60v-217zM654.001 258.997
c0 30.667 -3.16797 59.3301 -9.50098 85.9971s-16.5 49.834 -30.5 69.501s-32.167 35.167 -54.5 46.5s-49.5 17 -81.5 17c-31.333 0 -58.166 -6.16699 -80.499 -18.5s-40.5 -28.666 -54.5 -48.999s-24.333 -43.666 -31 -69.999s-10 -53.5 -10 -81.5
c0 -32 3.83301 -61.5 11.5 -88.5s18.834 -50.167 33.501 -69.5s33 -34.333 55 -45s47.333 -16 76 -16c31.333 0 58.166 6.16699 80.499 18.5s40.5 28.833 54.5 49.5s24.333 44 31 70s10 53 10 81z" />
    <glyph glyph-name="afii10097" unicode="&#x44f;" horiz-adv-x="512" 
d="M237 221l-125 -221.001h-67l131 226c-43.333 10.667 -75.5 28.167 -96.5 52.5s-31.5 54.5 -31.5 90.5c0 34.667 7 61.834 21 81.501s30.5 34.5 49.5 44.5s38.167 16.333 57.5 19s34 4 44 4h220v-518h-60v221h-143zM380 467.999l-135 -0.000976562
c-45.333 0 -78.833 -8.66699 -100.5 -26s-32.5 -41.666 -32.5 -72.999c0 -32 11.5 -56.333 34.5 -73s51.5 -25 85.5 -25h148v197z" />
    <glyph glyph-name="afii10071" unicode="&#x451;" horiz-adv-x="562" 
d="M450 295c0 25.333 -3.49805 49.168 -10.498 71.501s-17.333 41.666 -31 57.999s-30.834 29.333 -51.501 39s-44.334 14.5 -71.001 14.5s-50.167 -5 -70.5 -15s-37.666 -23.333 -51.999 -40s-25.833 -36 -34.5 -58s-14.334 -45.333 -17.001 -70h338zM112.002 245.002
c0 -28 3.66797 -54.3311 11.001 -78.998s18.333 -46.334 33 -65.001s32.834 -33.5 54.501 -44.5s46.834 -16.5 75.501 -16.5c39.333 0 73 10.333 101 31s46.667 50 56 88h67c-7.33301 -24.667 -17 -47.5 -29 -68.5s-27 -39.333 -45 -55s-39.333 -27.834 -64 -36.501
s-53.334 -13 -86.001 -13c-41.333 0 -77 7 -107 21s-54.667 33.167 -74 57.5s-33.666 53 -42.999 86s-14 68.5 -14 106.5s5.5 73.667 16.5 107s26.667 62.5 47 87.5s45.166 44.667 74.499 59s62.666 21.5 99.999 21.5c71.333 0 127.166 -24.333 167.499 -73
s60.5 -120 60.5 -214h-402zM180.003 597.004v89h60v-89h-60zM334.003 597.004v89h60v-89h-60z" />
    <glyph glyph-name="afii10099" unicode="&#x452;" horiz-adv-x="555" 
d="M132 720l-0.00292969 -75.998h169v-54h-169v-144c22 23.333 46.333 43.5 73 60.5s58 25.5 94 25.5c30.667 0 57.834 -3.66699 81.501 -11s43.334 -19.833 59.001 -37.5s27.5 -41.167 35.5 -70.5s12 -65.666 12 -108.999c0 -80 -5.5 -145.667 -16.5 -197
s-27.167 -92.333 -48.5 -123s-47.666 -52.667 -78.999 -66s-67.666 -22.333 -108.999 -27v54c36 4 66 12.333 90 25s43.333 33 58 61s25.167 65.5 31.5 112.5s9.5 106.833 9.5 179.5c0 25.333 -2 47.666 -6 66.999s-11 35.5 -21 48.5s-23.667 22.833 -41 29.5
s-39.333 10 -66 10c-29.333 0 -53.833 -5.83301 -73.5 -17.5s-35.834 -26.334 -48.501 -44.001s-21.667 -37.334 -27 -59.001s-8 -42.5 -8 -62.5v-295h-60v590h-67v54h67v76h60z" />
    <glyph glyph-name="afii10100" unicode="&#x453;" horiz-adv-x="404" 
d="M392 518v-50h-260v-468h-60v518h320zM182 575l100 125h70l-124 -125h-46z" />
    <glyph glyph-name="afii10101" unicode="&#x454;" horiz-adv-x="557" 
d="M440 355c-10.667 38.667 -29.0039 68.8359 -55.0039 90.5029s-59 32.5 -99 32.5c-27.333 0 -51.166 -5.16699 -71.499 -15.5s-37.5 -23.833 -51.5 -40.5s-25 -35.5 -33 -56.5s-13 -42.5 -15 -64.5h203v-50h-206c0 -26.667 3.5 -52.667 10.5 -78s17.667 -47.833 32 -67.5
s32.333 -35.5 54 -47.5s47.5 -18 77.5 -18c44.667 0 80.5 12.333 107.5 37s44.167 58.667 51.5 102h64c-5.33301 -28.667 -13.833 -54.834 -25.5 -78.501s-26.667 -44 -45 -61s-40.166 -30.167 -65.499 -39.5s-54.333 -14 -87 -14c-41.333 0 -77 7 -107 21
s-54.667 33.167 -74 57.5s-33.666 53.166 -42.999 86.499s-14 69 -14 107c0 36 5.16699 70.5 15.5 103.5s25.5 62.167 45.5 87.5s44.833 45.5 74.5 60.5s63.834 22.5 102.501 22.5c60 0 108.5 -14.333 145.5 -43s60.167 -73.334 69.5 -134.001h-61z" />
    <glyph glyph-name="afii10102" unicode="&#x455;" horiz-adv-x="492" 
d="M112 389c0 -23.333 8.17383 -41.166 24.5068 -53.499s36.833 -22.333 61.5 -30s51.334 -14.5 80.001 -20.5s55.334 -14.5 80.001 -25.5s45.167 -25.833 61.5 -44.5s24.5 -44.667 24.5 -78c0 -24.667 -5.33301 -46.5 -16 -65.5s-25.334 -34.833 -44.001 -47.5
s-40.834 -22.167 -66.501 -28.5s-53.834 -9.5 -84.501 -9.5s-57.834 4.5 -81.501 13.5s-43.834 21.5 -60.501 37.5s-29.667 34.667 -39 56s-14.666 44.333 -15.999 69h61c9.33301 -44.667 26.166 -76.167 50.499 -94.5s59.166 -27.5 104.499 -27.5c22 0 41 2.66699 57 8
s29.167 12.5 39.5 21.5s18.166 19.167 23.499 30.5s8 23.333 8 36c0 25.333 -8.16699 44.166 -24.5 56.499s-36.833 22 -61.5 29s-51.334 13 -80.001 18s-55.334 12.5 -80.001 22.5s-45.167 24.333 -61.5 43s-24.5 45 -24.5 79c0 43.333 15.833 78.833 47.5 106.5
s76.5 41.5 134.5 41.5c56 0 101.5 -12.5 136.5 -37.5s56.167 -66.833 63.5 -125.5h-61c-5.33301 40 -20.5 68.167 -45.5 84.5s-56.5 24.5 -94.5 24.5s-67 -8.16699 -87 -24.5s-30 -37.833 -30 -64.5z" />
    <glyph glyph-name="afii10103" unicode="&#x456;" horiz-adv-x="204" 
d="M132 0h-60v518h60v-518zM72 631v89h60v-89h-60z" />
    <glyph glyph-name="afii10104" unicode="&#x457;" horiz-adv-x="204" 
d="M132 0h-60v518h60v-518zM0 610v89h60v-89h-60zM144 610v89h60v-89h-60z" />
    <glyph glyph-name="afii10105" unicode="&#x458;" horiz-adv-x="220" 
d="M148 518v-586.997c0 -22 -1 -41.333 -3 -58s-6.5 -30.834 -13.5 -42.501s-17.333 -20.334 -31 -26.001s-32.5 -8.5 -56.5 -8.5c-14.667 0 -27.667 1.33301 -39 4v53c3.33301 -0.666992 8 -1.16699 14 -1.5s9.66699 -0.5 11 -0.5c23.333 0 38.833 6.16699 46.5 18.5
s11.5 30.166 11.5 53.499v595h60zM88 631.003v89h60v-89h-60z" />
    <glyph glyph-name="afii10106" unicode="&#x459;" horiz-adv-x="824" 
d="M444 518v-216.997h152c28 0 53 -3.66699 75 -11s40.833 -17.833 56.5 -31.5s27.667 -29.834 36 -48.501s12.5 -39 12.5 -61c0 -34.667 -7 -61.834 -21 -81.501s-30.5 -34.5 -49.5 -44.5s-38.167 -16.333 -57.5 -19s-34 -4 -44 -4h-220v468h-213v-97
c0 -18 -0.166992 -37.333 -0.5 -58s-1 -41 -2 -61s-2.16699 -38.833 -3.5 -56.5s-2.66602 -32.834 -3.99902 -45.501c-6 -52 -17.833 -90.667 -35.5 -116s-42.5 -38 -74.5 -38c-6.66699 0 -14 0.5 -22 1.5s-15.333 2.83301 -22 5.5v49c6 -1.33301 12.667 -2.33301 20 -3
s12.666 -1 15.999 -1c16 0 30.333 11.333 43 34c4.66699 8 8.66699 20.833 12 38.5s6 43.167 8 76.5s3.33301 76 4 128s1 116.333 1 193h333zM444 50.0029l135 0.000976562c45.333 0 78.833 8.66699 100.5 26s32.5 41.666 32.5 72.999c0 32 -11.5 57 -34.5 75
s-51.5 27 -85.5 27h-148v-201z" />
    <glyph glyph-name="afii10107" unicode="&#x45a;" horiz-adv-x="835" 
d="M135 301l260 0.00195312v217h60v-217h152c28 0 53 -3.66699 75 -11s40.833 -17.833 56.5 -31.5s27.667 -29.834 36 -48.501s12.5 -39 12.5 -61c0 -34.667 -7 -61.834 -21 -81.501s-30.5 -34.5 -49.5 -44.5s-38.167 -16.333 -57.5 -19s-34 -4 -44 -4h-220v251h-260v-251
h-60v518h60v-217zM455 50.002l135 0.000976562c45.333 0 78.833 8.66699 100.5 26s32.5 41.666 32.5 72.999c0 32 -11.5 57 -34.5 75s-51.5 27 -85.5 27h-148v-201z" />
    <glyph glyph-name="afii10108" unicode="&#x45b;" horiz-adv-x="555" 
d="M132 720v-76h169v-54h-169v-144c24 25.333 48.833 46 74.5 62s56.5 24 92.5 24c56.667 0 101.5 -15.667 134.5 -47s49.5 -80 49.5 -146v-339h-60v338c0 46.667 -10.333 81.667 -31 105s-55 35 -103 35c-28 0 -52 -5.5 -72 -16.5s-36.167 -25.5 -48.5 -43.5
s-21.5 -38.667 -27.5 -62s-9 -47.333 -9 -72v-284h-60v590h-67v54h67v76h60z" />
    <glyph glyph-name="afii10109" unicode="&#x45c;" horiz-adv-x="504" 
d="M132 272l254 246h82l-194 -187l217 -331h-67l-194 289l-98 -93v-196h-60v518h60v-246zM227 575l100 125h70l-124 -125h-46z" />
    <glyph glyph-name="afii10110" unicode="&#x45e;" horiz-adv-x="490" 
d="M85 518l166.001 -445.002l166 445h65l-193 -511c-12 -32.667 -23.5 -62 -34.5 -88s-22.667 -48.167 -35 -66.5s-26 -32.333 -41 -42s-32.833 -14.5 -53.5 -14.5c-10.667 0 -20.834 0.666992 -30.501 2s-18.5 3 -26.5 5v56l24.5 -4c8.33301 -1.33301 16.833 -2 25.5 -2
c10 0 19 2 27 6s15.833 11.333 23.5 22s15.5 25.334 23.5 44.001s17 42.334 27 71.001l-201 522h67zM161.001 696.998c5.33301 -28 17.168 -48.5 35.501 -61.5s41.5 -19.5 69.5 -19.5s51 6.5 69 19.5s30.667 33.5 38 61.5h37c-4.66699 -42 -20.334 -73.5 -47.001 -94.5
s-60.667 -31.5 -102 -31.5c-40 0 -72.333 11 -97 33s-38.667 53 -42 93h39z" />
    <glyph glyph-name="afii10193" unicode="&#x45f;" horiz-adv-x="552" 
d="M132 50h288v468h60v-518h-174v-136h-60v136h-174v518h60v-468z" />
    <glyph glyph-name="afii10050" unicode="&#x490;" horiz-adv-x="563" 
d="M477 720v130h68v-188h-396v-662h-68v720h396z" />
    <glyph glyph-name="afii10098" unicode="&#x491;" horiz-adv-x="404" 
d="M332 518v97h60v-147h-260v-468h-60v518h260z" />
    <glyph glyph-name="endash" unicode="&#x2013;" horiz-adv-x="500" 
d="M500 220h-500v60h500v-60z" />
    <glyph glyph-name="emdash" unicode="&#x2014;" horiz-adv-x="1000" 
d="M0 220v60h1000v-60h-1000z" />
    <glyph glyph-name="quoteleft" unicode="&#x2018;" horiz-adv-x="222" 
d="M69 495v117.998c0 29.333 6.83301 52.833 20.5 70.5s31.167 29.834 52.5 36.501v-37c-8 -5.33301 -15.667 -12.666 -23 -21.999s-11 -24 -11 -44v-34h34v-88h-73z" />
    <glyph glyph-name="quoteright" unicode="&#x2019;" horiz-adv-x="222" 
d="M153 720v-117.998c0 -29.333 -6.83301 -52.833 -20.5 -70.5s-31.167 -29.834 -52.5 -36.501v37c8 5.33301 15.667 12.666 23 21.999s11 24 11 44v34h-34v88h73z" />
    <glyph glyph-name="quotesinglbase" unicode="&#x201a;" horiz-adv-x="278" 
d="M175 88v-117.998c0 -29.333 -6.83301 -52.833 -20.5 -70.5s-31.167 -29.834 -52.5 -36.501v37c8 5.33301 15.667 12.666 23 21.999s11 24 11 44v34h-34v88h73z" />
    <glyph glyph-name="quotedblleft" unicode="&#x201c;" horiz-adv-x="389" 
d="M237 495v117.998c0 29.333 6.83301 52.833 20.5 70.5s31.167 29.834 52.5 36.501v-37c-8 -5.33301 -15.667 -12.666 -23 -21.999s-11 -24 -11 -44v-34h34v-88h-73zM86 494.998v117.998c0 29.333 6.83301 52.833 20.5 70.5s31.167 29.834 52.5 36.501v-37
c-8 -5.33301 -15.667 -12.666 -23 -21.999s-11 -24 -11 -44v-34h34v-88h-73z" />
    <glyph glyph-name="quotedblright" unicode="&#x201d;" horiz-adv-x="389" 
d="M303 720v-117.998c0 -29.333 -6.83301 -52.833 -20.5 -70.5s-31.167 -29.834 -52.5 -36.501v37c8 5.33301 15.667 12.666 23 21.999s11 24 11 44v34h-34v88h73zM152 720.002v-117.998c0 -29.333 -6.83301 -52.833 -20.5 -70.5s-31.167 -29.834 -52.5 -36.501v37
c8 5.33301 15.667 12.666 23 21.999s11 24 11 44v34h-34v88h73z" />
    <glyph glyph-name="quotedblbase" unicode="&#x201e;" horiz-adv-x="389" 
d="M303 88v-117.998c0 -29.333 -6.83301 -52.833 -20.5 -70.5s-31.167 -29.834 -52.5 -36.501v37c8 5.33301 15.667 12.666 23 21.999s11 24 11 44v34h-34v88h73zM152 88.002v-117.998c0 -29.333 -6.83301 -52.833 -20.5 -70.5s-31.167 -29.834 -52.5 -36.501v37
c8 5.33301 15.667 12.666 23 21.999s11 24 11 44v34h-34v88h73z" />
    <glyph glyph-name="dagger" unicode="&#x2020;" 
d="M308 720v-230h211v-54h-211v-602h-60v602h-211v54h211v230h60z" />
    <glyph glyph-name="daggerdbl" unicode="&#x2021;" 
d="M350 365l-0.00195312 -42.001h-151c3.33301 -10.667 5.83301 -22 7.5 -34s2.5 -23.667 2.5 -35c0 -37.333 -9.66699 -71.666 -29 -102.999s-41.333 -59.333 -66 -84l2 -2c12.667 6.66699 26.667 12.834 42 18.501s31 8.5 47 8.5c21.333 0 39.833 -2.16699 55.5 -6.5
s30.334 -9.16602 44.001 -14.499s27 -10.166 40 -14.499s27.5 -6.5 43.5 -6.5c23.333 0 43.333 5.66699 60 17s32.667 24.666 48 39.999l34 -51c-14.667 -13.333 -28.334 -24.5 -41.001 -33.5s-25.5 -16.167 -38.5 -21.5s-27 -9.16602 -42 -11.499s-32.5 -3.5 -52.5 -3.5
c-12 0 -24.333 2.33301 -37 7l-40 15c-14 5.33301 -29.167 10.333 -45.5 15s-34.5 7 -54.5 7c-19.333 0 -37.5 -3.66699 -54.5 -11l-50.5 -22l-35 58c29.333 21.333 54.333 47.333 75 78s31 64.667 31 102c0 30.667 -7 60 -21 88h-99v42h81c-4 9.33301 -9.16699 19 -15.5 29
s-12.166 21.167 -17.499 33.5s-10 26.166 -14 41.499s-6 33 -6 53c0 26 4.66699 50.167 14 72.5s23.333 41.666 42 57.999s41.834 29.166 69.501 38.499s60.167 14 97.5 14c32.667 0 63 -5 91 -15s52 -24.333 72 -43s35.667 -41.5 47 -68.5s17 -57.167 17 -90.5h-66
c-2 52.667 -17.167 93 -45.5 121s-66.5 42 -114.5 42c-20 0 -39.667 -2.66699 -59 -8s-36.5 -13.5 -51.5 -24.5s-27 -24.833 -36 -41.5s-13.5 -36 -13.5 -58c0 -15.333 2.16699 -29.5 6.5 -42.5s9.83301 -25.667 16.5 -38s14 -24.5 22 -36.5s15.333 -24.333 22 -37h166z" />
    <glyph glyph-name="bullet" unicode="&#x2022;" horiz-adv-x="500" 
d="M430 359c0 -24.667 -4.66699 -47.834 -14 -69.501s-22.333 -40.667 -39 -57s-36 -29.166 -58 -38.499s-45.333 -14 -70 -14s-47.834 4.66699 -69.501 14s-40.667 22.166 -57 38.499s-29.166 35.333 -38.499 57s-14 44.834 -14 69.501s4.66699 48 14 70
s22.166 41.333 38.499 58s35.333 29.667 57 39s44.834 14 69.501 14s48 -4.66699 70 -14s41.333 -22.333 58 -39s29.667 -36 39 -58s14 -45.333 14 -70z" />
    <glyph glyph-name="ellipsis" unicode="&#x2026;" horiz-adv-x="1000" 
d="M131 0v88h73v-88h-73zM464 0v88h73v-88h-73zM797 0v88h73v-88h-73z" />
    <glyph glyph-name="perthousand" unicode="&#x2030;" horiz-adv-x="1287" 
d="M658 331c22.667 0 44.167 -4.33301 64.5 -13s38 -20.5 53 -35.5s26.833 -32.667 35.5 -53s13 -41.833 13 -64.5s-4.33301 -44 -13 -64s-20.5 -37.5 -35.5 -52.5s-32.667 -26.833 -53 -35.5s-41.833 -13 -64.5 -13s-44 4.33301 -64 13s-37.5 20.5 -52.5 35.5
s-26.833 32.5 -35.5 52.5s-13 41.333 -13 64s4.33301 44 13 64s20.5 37.5 35.5 52.5s32.5 27 52.5 36s41.333 13.5 64 13.5zM658 274c-14.667 0 -28.5 -2.83301 -41.5 -8.5s-24.5 -13.5 -34.5 -23.5s-17.833 -21.667 -23.5 -35s-8.5 -27.333 -8.5 -42
s2.83301 -28.5 8.5 -41.5s13.5 -24.5 23.5 -34.5s21.5 -17.833 34.5 -23.5s26.833 -8.5 41.5 -8.5s28.5 2.83301 41.5 8.5s24.5 13.5 34.5 23.5s18 21.5 24 34.5s9 26.833 9 41.5s-2.83301 28.5 -8.5 41.5s-13.5 24.5 -23.5 34.5s-21.667 18 -35 24s-27.333 9 -42 9z
M232 698c22.667 0 44.167 -4.33301 64.5 -13s38 -20.5 53 -35.5s26.833 -32.667 35.5 -53s13 -41.833 13 -64.5s-4.33301 -44 -13 -64s-20.5 -37.5 -35.5 -52.5s-32.667 -26.833 -53 -35.5s-41.833 -13 -64.5 -13s-44 4.33301 -64 13s-37.5 20.5 -52.5 35.5
s-26.833 32.5 -35.5 52.5s-13 41.333 -13 64s4.33301 44 13 64s20.5 37.5 35.5 52.5s32.5 27 52.5 36s41.333 13.5 64 13.5zM232 641c-14.667 0 -28.5 -2.83301 -41.5 -8.5s-24.5 -13.5 -34.5 -23.5s-17.833 -21.667 -23.5 -35s-8.5 -27.333 -8.5 -42
s2.83301 -28.5 8.5 -41.5s13.5 -24.5 23.5 -34.5s21.5 -17.833 34.5 -23.5s26.833 -8.5 41.5 -8.5s28.5 2.83301 41.5 8.5s24.5 13.5 34.5 23.5s18 21.5 24 34.5s9 26.833 9 41.5s-2.83301 28.5 -8.5 41.5s-13.5 24.5 -23.5 34.5s-21.667 18 -35 24s-27.333 9 -42 9z
M271 -14h-52l397 719h52zM1054 331c22.667 0 44.167 -4.33301 64.5 -13s38 -20.5 53 -35.5s26.833 -32.667 35.5 -53s13 -41.833 13 -64.5s-4.33301 -44 -13 -64s-20.5 -37.5 -35.5 -52.5s-32.667 -26.833 -53 -35.5s-41.833 -13 -64.5 -13s-44 4.33301 -64 13
s-37.5 20.5 -52.5 35.5s-26.833 32.5 -35.5 52.5s-13 41.333 -13 64s4.33301 44 13 64s20.5 37.5 35.5 52.5s32.5 27 52.5 36s41.333 13.5 64 13.5zM1054 274c-14.667 0 -28.5 -2.83301 -41.5 -8.5s-24.5 -13.5 -34.5 -23.5s-17.833 -21.667 -23.5 -35
s-8.5 -27.333 -8.5 -42s2.83301 -28.5 8.5 -41.5s13.5 -24.5 23.5 -34.5s21.5 -17.833 34.5 -23.5s26.833 -8.5 41.5 -8.5s28.5 2.83301 41.5 8.5s24.5 13.5 34.5 23.5s18 21.5 24 34.5s9 26.833 9 41.5s-2.83301 28.5 -8.5 41.5s-13.5 24.5 -23.5 34.5s-21.667 18 -35 24
s-27.333 9 -42 9z" />
    <glyph glyph-name="guilsinglleft" unicode="&#x2039;" horiz-adv-x="389" 
d="M121 291l146 113v-63l-104 -82l104 -80v-62l-146 111v63z" />
    <glyph glyph-name="guilsinglright" unicode="&#x203a;" horiz-adv-x="389" 
d="M268 230l-146 -113v63l104 82l-104 80v62l146 -111v-63z" />
    <glyph glyph-name="afii61352" unicode="&#x2116;" horiz-adv-x="1079" 
d="M156 720l416 -629h2v629h68v-720h-79l-414 628h-2v-628h-68v720h77zM713 91h312v-39h-312v39zM752 320c0 -38.667 10.0029 -70.666 30.0029 -95.999s49 -38 87 -38c20.667 0 38.334 3.83301 53.001 11.5s26.667 17.834 36 30.501s16.333 27 21 43s7 32.333 7 49
c0 18 -2.16699 35.167 -6.5 51.5s-11.333 30.666 -21 42.999s-21.834 22 -36.501 29s-32.334 10.5 -53.001 10.5s-38.334 -3.83301 -53.001 -11.5s-26.834 -17.834 -36.501 -30.501s-16.667 -27 -21 -43s-6.5 -32.333 -6.5 -49zM869.003 156.001
c-21.333 0 -41.501 3.50098 -60.501 10.501s-35.5 17.333 -49.5 31s-25.167 30.667 -33.5 51s-12.5 44.166 -12.5 71.499c0 22.667 3.16699 44 9.5 64s16 37.333 29 52s29.333 26.334 49 35.001s42.5 13 68.5 13s48.833 -4.33301 68.5 -13s36 -20.334 49 -35.001
s22.667 -32 29 -52s9.5 -41.333 9.5 -64c0 -49.333 -14.167 -89 -42.5 -119s-66.166 -45 -113.499 -45z" />
    <glyph glyph-name="trademark" unicode="&#x2122;" horiz-adv-x="940" 
d="M523 720l120 -311h2l118 311h96v-421h-52v377h-2l-145 -377h-34l-145 377h-2v-377h-52v421h96zM349 720v-40h-134v-381h-52v381h-134v40h320z" />
    <glyph glyph-name=".null" horiz-adv-x="0" 
 />
    <glyph glyph-name="nonmarkingreturn" horiz-adv-x="278" 
 />
    <glyph glyph-name="percent" horiz-adv-x="889" 
d="M658 331c22.667 0 44.167 -4.33301 64.5 -13s38 -20.5 53 -35.5s26.833 -32.667 35.5 -53s13 -41.833 13 -64.5s-4.33301 -44 -13 -64s-20.5 -37.5 -35.5 -52.5s-32.667 -26.833 -53 -35.5s-41.833 -13 -64.5 -13s-44 4.33301 -64 13s-37.5 20.5 -52.5 35.5
s-26.833 32.5 -35.5 52.5s-13 41.333 -13 64s4.33301 44 13 64s20.5 37.5 35.5 52.5s32.5 27 52.5 36s41.333 13.5 64 13.5zM658 274c-14.667 0 -28.5 -2.83301 -41.5 -8.5s-24.5 -13.5 -34.5 -23.5s-17.833 -21.667 -23.5 -35s-8.5 -27.333 -8.5 -42
s2.83301 -28.5 8.5 -41.5s13.5 -24.5 23.5 -34.5s21.5 -17.833 34.5 -23.5s26.833 -8.5 41.5 -8.5s28.5 2.83301 41.5 8.5s24.5 13.5 34.5 23.5s18 21.5 24 34.5s9 26.833 9 41.5s-2.83301 28.5 -8.5 41.5s-13.5 24.5 -23.5 34.5s-21.667 18 -35 24s-27.333 9 -42 9z
M232 698c22.667 0 44.167 -4.33301 64.5 -13s38 -20.5 53 -35.5s26.833 -32.667 35.5 -53s13 -41.833 13 -64.5s-4.33301 -44 -13 -64s-20.5 -37.5 -35.5 -52.5s-32.667 -26.833 -53 -35.5s-41.833 -13 -64.5 -13s-44 4.33301 -64 13s-37.5 20.5 -52.5 35.5
s-26.833 32.5 -35.5 52.5s-13 41.333 -13 64s4.33301 44 13 64s20.5 37.5 35.5 52.5s32.5 27 52.5 36s41.333 13.5 64 13.5zM232 641c-14.667 0 -28.5 -2.83301 -41.5 -8.5s-24.5 -13.5 -34.5 -23.5s-17.833 -21.667 -23.5 -35s-8.5 -27.333 -8.5 -42
s2.83301 -28.5 8.5 -41.5s13.5 -24.5 23.5 -34.5s21.5 -17.833 34.5 -23.5s26.833 -8.5 41.5 -8.5s28.5 2.83301 41.5 8.5s24.5 13.5 34.5 23.5s18 21.5 24 34.5s9 26.833 9 41.5s-2.83301 28.5 -8.5 41.5s-13.5 24.5 -23.5 34.5s-21.667 18 -35 24s-27.333 9 -42 9z
M271 -14h-52l397 719h52z" />
    </font>
</defs>
</svg>
